<svg width="146" height="147" viewBox="0 0 146 147" fill="none" xmlns="http://www.w3.org/2000/svg">
<path d="M72.9992 122.35C99.9507 122.35 121.799 100.501 121.799 73.55C121.799 46.5985 99.9507 24.75 72.9992 24.75C46.0477 24.75 24.1992 46.5985 24.1992 73.55C24.1992 100.501 46.0477 122.35 72.9992 122.35Z" fill="url(#paint0_linear)"/>
<path d="M72.9998 129.46C103.878 129.46 128.91 104.428 128.91 73.55C128.91 42.6718 103.878 17.64 72.9998 17.64C42.1216 17.64 17.0898 42.6718 17.0898 73.55C17.0898 104.428 42.1216 129.46 72.9998 129.46Z" stroke="url(#paint1_linear)" stroke-width="2" stroke-miterlimit="10"/>
<path opacity="0.67" d="M73 137.05C108.07 137.05 136.5 108.62 136.5 73.5501C136.5 38.48 108.07 10.05 73 10.05C37.9299 10.05 9.5 38.48 9.5 73.5501C9.5 108.62 37.9299 137.05 73 137.05Z" stroke="url(#paint2_linear)" stroke-width="2" stroke-miterlimit="10"/>
<path opacity="0.12" d="M72.9983 145.31C112.63 145.31 144.758 113.182 144.758 73.55C144.758 33.9181 112.63 1.79004 72.9983 1.79004C33.3663 1.79004 1.23828 33.9181 1.23828 73.55C1.23828 113.182 33.3663 145.31 72.9983 145.31Z" stroke="url(#paint3_linear)" stroke-width="2" stroke-miterlimit="10"/>
<path d="M87.7477 106.9H58.2477C57.215 106.9 56.2246 106.49 55.4935 105.761C54.7624 105.032 54.3503 104.043 54.3477 103.01V49.5C54.3503 48.4674 54.7624 47.478 55.4935 46.7487C56.2246 46.0195 57.215 45.61 58.2477 45.61H87.7477C88.7803 45.61 89.7707 46.0195 90.5018 46.7487C91.233 47.478 91.645 48.4674 91.6477 49.5V103C91.6477 103.512 91.5468 104.019 91.3508 104.492C91.1548 104.966 90.8675 105.396 90.5054 105.758C90.1432 106.12 89.7133 106.407 89.2401 106.603C88.767 106.799 88.2598 106.9 87.7477 106.9V106.9ZM58.2477 47.61C57.7455 47.61 57.2637 47.8088 56.9077 48.1629C56.5516 48.5171 56.3503 48.9978 56.3477 49.5V103C56.3503 103.502 56.5516 103.983 56.9077 104.337C57.2637 104.691 57.7455 104.89 58.2477 104.89H87.7477C88.2498 104.89 88.7316 104.691 89.0876 104.337C89.4437 103.983 89.645 103.502 89.6477 103V49.5C89.645 48.9978 89.4437 48.5171 89.0876 48.1629C88.7316 47.8088 88.2498 47.61 87.7477 47.61H58.2477Z" fill="white"/>
<path d="M63.8177 54.67H55.3477C55.0824 54.67 54.8281 54.5647 54.6406 54.3772C54.453 54.1896 54.3477 53.9353 54.3477 53.67C54.3477 53.4048 54.453 53.1505 54.6406 52.9629C54.8281 52.7754 55.0824 52.67 55.3477 52.67H63.8177C64.0829 52.67 64.3372 52.7754 64.5248 52.9629C64.7123 53.1505 64.8177 53.4048 64.8177 53.67C64.8177 53.9353 64.7123 54.1896 64.5248 54.3772C64.3372 54.5647 64.0829 54.67 63.8177 54.67V54.67Z" fill="white"/>
<path d="M75.1192 103.23H71.4492C71.184 103.23 70.9296 103.125 70.7421 102.937C70.5546 102.75 70.4492 102.495 70.4492 102.23C70.4492 101.965 70.5546 101.71 70.7421 101.523C70.9296 101.335 71.184 101.23 71.4492 101.23H75.1192C75.3844 101.23 75.6388 101.335 75.8263 101.523C76.0139 101.71 76.1192 101.965 76.1192 102.23C76.1192 102.495 76.0139 102.75 75.8263 102.937C75.6388 103.125 75.3844 103.23 75.1192 103.23Z" fill="white"/>
<path d="M90.6492 54.67H71.4492C71.184 54.67 70.9296 54.5647 70.7421 54.3772C70.5546 54.1896 70.4492 53.9353 70.4492 53.67C70.4492 53.4048 70.5546 53.1505 70.7421 52.9629C70.9296 52.7754 71.184 52.67 71.4492 52.67H90.6492C90.9144 52.67 91.1688 52.7754 91.3563 52.9629C91.5439 53.1505 91.6492 53.4048 91.6492 53.67C91.6492 53.9353 91.5439 54.1896 91.3563 54.3772C91.1688 54.5647 90.9144 54.67 90.6492 54.67Z" fill="white"/>
<path d="M90.6477 99.14H55.3477C55.0824 99.14 54.8281 99.0347 54.6406 98.8471C54.453 98.6596 54.3477 98.4052 54.3477 98.14C54.3477 97.8748 54.453 97.6204 54.6406 97.4329C54.8281 97.2454 55.0824 97.14 55.3477 97.14H90.6477C90.9129 97.14 91.1672 97.2454 91.3548 97.4329C91.5423 97.6204 91.6477 97.8748 91.6477 98.14C91.6477 98.4052 91.5423 98.6596 91.3548 98.8471C91.1672 99.0347 90.9129 99.14 90.6477 99.14Z" fill="white"/>
<path d="M68.7798 74.15H62.2798C61.5655 74.1474 60.8813 73.8618 60.3771 73.3557C59.8729 72.8496 59.5898 72.1644 59.5898 71.45V65C59.5898 64.2857 59.8729 63.6004 60.3771 63.0944C60.8813 62.5883 61.5655 62.3027 62.2798 62.3H68.7798C69.4942 62.3027 70.1784 62.5883 70.6826 63.0944C71.1868 63.6004 71.4698 64.2857 71.4698 65V71.49C71.4594 72.1974 71.1717 72.8725 70.6686 73.3699C70.1655 73.8674 69.4873 74.1475 68.7798 74.15ZM62.2798 64.26C62.0959 64.2627 61.9204 64.3376 61.7913 64.4686C61.6622 64.5996 61.5898 64.7761 61.5898 64.96V71.45C61.5885 71.5415 61.6054 71.6323 61.6395 71.7172C61.6736 71.802 61.7242 71.8793 61.7884 71.9444C61.8526 72.0096 61.9291 72.0613 62.0135 72.0966C62.0978 72.1319 62.1884 72.1501 62.2798 72.15H68.7798C68.8713 72.1501 68.9618 72.1319 69.0462 72.0966C69.1306 72.0613 69.2071 72.0096 69.2713 71.9444C69.3355 71.8793 69.3861 71.802 69.4202 71.7172C69.4543 71.6323 69.4712 71.5415 69.4698 71.45V65C69.4699 64.8161 69.3975 64.6396 69.2684 64.5086C69.1392 64.3776 68.9638 64.3027 68.7798 64.3L62.2798 64.26Z" fill="white"/>
<path d="M83.2972 74.15H76.8072C76.4531 74.15 76.1025 74.0801 75.7755 73.9443C75.4485 73.8085 75.1515 73.6095 74.9015 73.3586C74.6516 73.1078 74.4537 72.8101 74.3191 72.4825C74.1845 72.155 74.1159 71.8041 74.1172 71.45V65C74.1159 64.6459 74.1845 64.2951 74.3191 63.9676C74.4537 63.64 74.6516 63.3423 74.9015 63.0915C75.1515 62.8406 75.4485 62.6416 75.7755 62.5058C76.1025 62.37 76.4531 62.3 76.8072 62.3H83.2972C84.0133 62.3 84.7 62.5845 85.2064 63.0909C85.7127 63.5972 85.9972 64.284 85.9972 65V71.49C85.9867 72.1992 85.6976 72.8757 85.1924 73.3734C84.6872 73.8712 84.0064 74.1501 83.2972 74.15ZM76.8072 64.26C76.6233 64.2627 76.4478 64.3376 76.3187 64.4686C76.1896 64.5996 76.1172 64.7761 76.1172 64.96V71.45C76.1159 71.5415 76.1327 71.6323 76.1668 71.7172C76.2009 71.802 76.2515 71.8793 76.3157 71.9444C76.3799 72.0096 76.4564 72.0613 76.5408 72.0966C76.6252 72.1319 76.7157 72.1501 76.8072 72.15H83.2972C83.4829 72.15 83.6609 72.0763 83.7922 71.945C83.9235 71.8137 83.9972 71.6357 83.9972 71.45V65C83.9972 64.9081 83.9791 64.8171 83.9439 64.7322C83.9087 64.6472 83.8572 64.5701 83.7922 64.5051C83.7272 64.4401 83.65 64.3885 83.5651 64.3533C83.4802 64.3182 83.3891 64.3 83.2972 64.3L76.8072 64.26Z" fill="white"/>
<path d="M68.7798 87.8101H62.2798C61.5672 87.8074 60.8845 87.5232 60.3806 87.0193C59.8767 86.5154 59.5925 85.8327 59.5898 85.1201V78.6201C59.5925 77.9074 59.8767 77.2248 60.3806 76.7208C60.8845 76.2169 61.5672 75.9327 62.2798 75.9301H68.7798C69.4925 75.9327 70.1751 76.2169 70.6791 76.7208C71.183 77.2248 71.4672 77.9074 71.4698 78.6201V85.1201C71.4672 85.8327 71.183 86.5154 70.6791 87.0193C70.1751 87.5232 69.4925 87.8074 68.7798 87.8101V87.8101ZM62.2798 77.9301C62.0968 77.9301 61.9213 78.0027 61.7919 78.1321C61.6625 78.2615 61.5898 78.4371 61.5898 78.6201V85.1201C61.5898 85.3031 61.6625 85.4786 61.7919 85.608C61.9213 85.7374 62.0968 85.8101 62.2798 85.8101H68.7798C68.9628 85.8101 69.1383 85.7374 69.2677 85.608C69.3971 85.4786 69.4698 85.3031 69.4698 85.1201V78.6201C69.4698 78.4371 69.3971 78.2615 69.2677 78.1321C69.1383 78.0027 68.9628 77.9301 68.7798 77.9301H62.2798Z" fill="white"/>
<path d="M83.2972 87.8101H76.8072C76.0937 87.8101 75.4095 87.5266 74.9051 87.0222C74.4006 86.5177 74.1172 85.8335 74.1172 85.1201V78.6201C74.1172 77.9066 74.4006 77.2224 74.9051 76.7179C75.4095 76.2135 76.0937 75.9301 76.8072 75.9301H83.2972C84.0115 75.93 84.6968 76.2131 85.2028 76.7173C85.7089 77.2215 85.9945 77.9057 85.9972 78.6201V85.1201C85.9945 85.8344 85.7089 86.5186 85.2028 87.0228C84.6968 87.527 84.0115 87.8101 83.2972 87.8101V87.8101ZM76.8072 77.9301C76.6242 77.9301 76.4487 78.0027 76.3193 78.1321C76.1899 78.2615 76.1172 78.4371 76.1172 78.6201V85.1201C76.1172 85.3031 76.1899 85.4786 76.3193 85.608C76.4487 85.7374 76.6242 85.8101 76.8072 85.8101H83.2972C83.3886 85.8114 83.4794 85.7945 83.5643 85.7604C83.6492 85.7263 83.7264 85.6757 83.7916 85.6115C83.8567 85.5473 83.9084 85.4708 83.9437 85.3864C83.979 85.3021 83.9972 85.2115 83.9972 85.1201V78.6201C83.9972 78.5286 83.979 78.438 83.9437 78.3537C83.9084 78.2693 83.8567 78.1928 83.7916 78.1286C83.7264 78.0644 83.6492 78.0138 83.5643 77.9797C83.4794 77.9456 83.3886 77.9287 83.2972 77.9301H76.8072Z" fill="white"/>
<defs>
<linearGradient id="paint0_linear" x1="17.2139" y1="112.686" x2="136.608" y2="28.8991" gradientUnits="userSpaceOnUse">
<stop stop-color="#FF5350"/>
<stop offset="0.17" stop-color="#FE5354"/>
<stop offset="0.36" stop-color="#F95361"/>
<stop offset="0.54" stop-color="#F25375"/>
<stop offset="0.73" stop-color="#E85392"/>
<stop offset="0.91" stop-color="#DB53B7"/>
<stop offset="1" stop-color="#D453CC"/>
</linearGradient>
<linearGradient class="a" id="paint1_linear" x1="2039.91" y1="9136.56" x2="14767.3" y2="9136.56" gradientUnits="userSpaceOnUse">
<stop stop-color="#FF5350"/>
<stop offset="0.17" stop-color="#FE5354"/>
<stop offset="0.36" stop-color="#F95361"/>
<stop offset="0.54" stop-color="#F25375"/>
<stop offset="0.73" stop-color="#E85392"/>
<stop offset="0.91" stop-color="#DB53B7"/>
<stop offset="1" stop-color="#D453CC"/>
</linearGradient>
<linearGradient class="b" id="paint2_linear" x1="1343" y1="10366.9" x2="17726" y2="10366.9" gradientUnits="userSpaceOnUse">
<stop stop-color="#FF5350"/>
<stop offset="0.17" stop-color="#FE5354"/>
<stop offset="0.36" stop-color="#F95361"/>
<stop offset="0.54" stop-color="#F25375"/>
<stop offset="0.73" stop-color="#E85392"/>
<stop offset="0.91" stop-color="#DB53B7"/>
<stop offset="1" stop-color="#D453CC"/>
</linearGradient>
<linearGradient class="c" id="paint3_linear" x1="322.723" y1="11705.8" x2="21207.8" y2="11705.8" gradientUnits="userSpaceOnUse">
<stop stop-color="#FF5350"/>
<stop offset="0.17" stop-color="#FE5354"/>
<stop offset="0.36" stop-color="#F95361"/>
<stop offset="0.54" stop-color="#F25375"/>
<stop offset="0.73" stop-color="#E85392"/>
<stop offset="0.91" stop-color="#DB53B7"/>
<stop offset="1" stop-color="#D453CC"/>
</linearGradient>
</defs>
</svg>
