<svg width="147" height="147" viewBox="0 0 147 147" fill="none" xmlns="http://www.w3.org/2000/svg">
<path d="M73.591 122.43C100.543 122.43 122.391 100.581 122.391 73.63C122.391 46.6785 100.543 24.83 73.591 24.83C46.6395 24.83 24.791 46.6785 24.791 73.63C24.791 100.581 46.6395 122.43 73.591 122.43Z" fill="url(#paint0_linear)"/>
<path d="M73.5897 129.54C104.468 129.54 129.5 104.508 129.5 73.63C129.5 42.7517 104.468 17.72 73.5897 17.72C42.7114 17.72 17.6797 42.7517 17.6797 73.63C17.6797 104.508 42.7114 129.54 73.5897 129.54Z" stroke="url(#paint1_linear)" stroke-width="2" stroke-miterlimit="10"/>
<path opacity="0.67" d="M73.5898 137.13C108.66 137.13 137.09 108.7 137.09 73.63C137.09 38.5599 108.66 10.13 73.5898 10.13C38.5198 10.13 10.0898 38.5599 10.0898 73.63C10.0898 108.7 38.5198 137.13 73.5898 137.13Z" stroke="url(#paint2_linear)" stroke-width="2" stroke-miterlimit="10"/>
<path opacity="0.12" d="M73.5901 145.39C113.222 145.39 145.35 113.262 145.35 73.63C145.35 33.998 113.222 1.87 73.5901 1.87C33.9581 1.87 1.83008 33.998 1.83008 73.63C1.83008 113.262 33.9581 145.39 73.5901 145.39Z" stroke="url(#paint3_linear)" stroke-width="2" stroke-miterlimit="10"/>
<path d="M97.9991 60.78C98.0215 60.9831 98.1181 61.1709 98.2703 61.3072C98.4226 61.4436 98.6198 61.519 98.8241 61.519C99.0285 61.519 99.2257 61.4436 99.3779 61.3072C99.5302 61.1709 99.6267 60.9831 99.6491 60.78V53.78C99.6362 53.0433 99.3364 52.3407 98.8135 51.8215C98.2906 51.3024 97.5859 51.0077 96.8491 51H95.6691V48.1C95.6691 47.3494 95.371 46.6296 94.8403 46.0989C94.3095 45.5681 93.5897 45.27 92.8391 45.27H91.6591V42.42C91.6591 41.6694 91.361 40.9496 90.8303 40.4189C90.2995 39.8881 89.5797 39.59 88.8291 39.59H50.3291C49.5786 39.59 48.8588 39.8881 48.328 40.4189C47.7973 40.9496 47.4991 41.6694 47.4991 42.42V47.94C47.4864 48.0559 47.4982 48.1733 47.5338 48.2844C47.5694 48.3955 47.6281 48.4978 47.7059 48.5847C47.7838 48.6716 47.8791 48.7412 47.9856 48.7887C48.0921 48.8363 48.2075 48.8609 48.3241 48.8609C48.4408 48.8609 48.5562 48.8363 48.6627 48.7887C48.7692 48.7412 48.8645 48.6716 48.9424 48.5847C49.0202 48.4978 49.0789 48.3955 49.1145 48.2844C49.1501 48.1733 49.1619 48.0559 49.1491 47.94V42.42C49.1491 42.107 49.2735 41.8069 49.4948 41.5856C49.716 41.3643 50.0162 41.24 50.3291 41.24H88.8291C89.1404 41.2426 89.4379 41.3681 89.6571 41.5891C89.8762 41.8101 89.9992 42.1087 89.9991 42.42V93.48C89.9991 93.6349 89.9686 93.7884 89.9093 93.9315C89.85 94.0747 89.7631 94.2048 89.6535 94.3144C89.544 94.4239 89.4139 94.5108 89.2707 94.5701C89.1275 94.6294 88.9741 94.66 88.8191 94.66H50.3291C50.0162 94.66 49.716 94.5356 49.4948 94.3144C49.2735 94.0931 49.1491 93.7929 49.1491 93.48V59.81C49.1619 59.694 49.1501 59.5766 49.1145 59.4655C49.0789 59.3544 49.0202 59.2521 48.9424 59.1652C48.8645 59.0783 48.7692 59.0088 48.6627 58.9612C48.5562 58.9136 48.4408 58.889 48.3241 58.889C48.2075 58.889 48.0921 58.9136 47.9856 58.9612C47.8791 59.0088 47.7838 59.0783 47.7059 59.1652C47.6281 59.2521 47.5694 59.3544 47.5338 59.4655C47.4982 59.5766 47.4864 59.694 47.4991 59.81V93.48C47.5018 94.2288 47.8011 94.946 48.3316 95.4746C48.862 96.0032 49.5803 96.3 50.3291 96.3H51.5091V99.16C51.5078 99.5325 51.5801 99.9015 51.7217 100.246C51.8633 100.591 52.0716 100.904 52.3345 101.168C52.5974 101.431 52.9098 101.641 53.2538 101.784C53.5978 101.926 53.9667 102 54.3391 102H55.5191V104.85C55.5191 105.601 55.8173 106.32 56.348 106.851C56.8788 107.382 57.5986 107.68 58.3491 107.68H96.8491C97.5997 107.68 98.3195 107.382 98.8503 106.851C99.381 106.32 99.6791 105.601 99.6791 104.85V80.2C99.6919 80.084 99.6801 79.9666 99.6445 79.8555C99.6089 79.7444 99.5502 79.6421 99.4724 79.5552C99.3945 79.4683 99.2992 79.3988 99.1927 79.3512C99.0862 79.3036 98.9708 79.279 98.8541 79.279C98.7375 79.279 98.6221 79.3036 98.5156 79.3512C98.4091 79.3988 98.3138 79.4683 98.2359 79.5552C98.1581 79.6421 98.0994 79.7444 98.0638 79.8555C98.0282 79.9666 98.0164 80.084 98.0291 80.2V104.84C98.0291 104.995 97.9986 105.148 97.9393 105.292C97.88 105.435 97.7931 105.565 97.6835 105.674C97.574 105.784 97.4439 105.871 97.3007 105.93C97.1575 105.989 97.0041 106.02 96.8491 106.02H58.3491C58.1942 106.02 58.0407 105.989 57.8976 105.93C57.7544 105.871 57.6243 105.784 57.5148 105.674C57.4052 105.565 57.3183 105.435 57.259 105.292C57.1997 105.148 57.1691 104.995 57.1691 104.84V102H92.8391C93.5897 102 94.3095 101.702 94.8403 101.171C95.371 100.64 95.6691 99.9205 95.6691 99.17V52.6H96.8491C97.1569 52.6078 97.4494 52.7356 97.6642 52.956C97.8791 53.1765 97.9992 53.4721 97.9991 53.78V60.78ZM93.9991 99.16C93.9991 99.3149 93.9686 99.4684 93.9093 99.6115C93.85 99.7547 93.7631 99.8848 93.6535 99.9944C93.544 100.104 93.4139 100.191 93.2707 100.25C93.1275 100.309 92.9741 100.34 92.8191 100.34H54.3391C54.0262 100.34 53.726 100.216 53.5048 99.9944C53.2835 99.7731 53.1591 99.4729 53.1591 99.16V96.3H88.8291C89.578 96.3 90.2963 96.0032 90.8267 95.4746C91.3572 94.946 91.6565 94.2288 91.6591 93.48V46.92H92.8391C93.1486 46.9252 93.4436 47.0518 93.6606 47.2726C93.8776 47.4933 93.9992 47.7904 93.9991 48.1V99.16Z" fill="white"/>
<path d="M84.0808 56.23H68.0008C67.7976 56.2524 67.6099 56.3489 67.4735 56.5012C67.3371 56.6534 67.2617 56.8506 67.2617 57.055C67.2617 57.2594 67.3371 57.4565 67.4735 57.6088C67.6099 57.761 67.7976 57.8576 68.0008 57.88H84.0008C84.1167 57.8928 84.2341 57.881 84.3452 57.8453C84.4563 57.8097 84.5586 57.751 84.6455 57.6732C84.7324 57.5954 84.8019 57.5001 84.8495 57.3935C84.8971 57.287 84.9217 57.1716 84.9217 57.055C84.9217 56.9383 84.8971 56.8229 84.8495 56.7164C84.8019 56.6099 84.7324 56.5146 84.6455 56.4367C84.5586 56.3589 84.4563 56.3003 84.3452 56.2646C84.2341 56.229 84.1167 56.2172 84.0008 56.23H84.0808Z" fill="white"/>
<path d="M84.0808 60.5H68.0008C67.7976 60.5224 67.6099 60.619 67.4735 60.7712C67.3371 60.9234 67.2617 61.1206 67.2617 61.325C67.2617 61.5294 67.3371 61.7266 67.4735 61.8788C67.6099 62.031 67.7976 62.1276 68.0008 62.15H84.0008C84.1167 62.1628 84.2341 62.151 84.3452 62.1153C84.4563 62.0797 84.5586 62.0211 84.6455 61.9432C84.7324 61.8654 84.8019 61.7701 84.8495 61.6636C84.8971 61.557 84.9217 61.4417 84.9217 61.325C84.9217 61.2083 84.8971 61.093 84.8495 60.9864C84.8019 60.8799 84.7324 60.7846 84.6455 60.7068C84.5586 60.6289 84.4563 60.5703 84.3452 60.5346C84.2341 60.499 84.1167 60.4872 84.0008 60.5H84.0808Z" fill="white"/>
<path d="M84.0808 69.1901H68.0008C67.7976 69.2125 67.6099 69.309 67.4735 69.4613C67.3371 69.6135 67.2617 69.8107 67.2617 70.0151C67.2617 70.2194 67.3371 70.4166 67.4735 70.5689C67.6099 70.7211 67.7976 70.8177 68.0008 70.8401H84.0008C84.1167 70.8528 84.2341 70.841 84.3452 70.8054C84.4563 70.7698 84.5586 70.7111 84.6455 70.6333C84.7324 70.5554 84.8019 70.4601 84.8495 70.3536C84.8971 70.2471 84.9217 70.1317 84.9217 70.0151C84.9217 69.8984 84.8971 69.783 84.8495 69.6765C84.8019 69.57 84.7324 69.4747 84.6455 69.3968C84.5586 69.319 84.4563 69.2603 84.3452 69.2247C84.2341 69.1891 84.1167 69.1773 84.0008 69.1901H84.0808Z" fill="white"/>
<path d="M84.0808 73.47H68.0008C67.7976 73.4924 67.6099 73.5889 67.4735 73.7412C67.3371 73.8934 67.2617 74.0906 67.2617 74.295C67.2617 74.4993 67.3371 74.6965 67.4735 74.8488C67.6099 75.001 67.7976 75.0976 68.0008 75.12H84.0008C84.1167 75.1328 84.2341 75.1209 84.3452 75.0853C84.4563 75.0497 84.5586 74.991 84.6455 74.9132C84.7324 74.8353 84.8019 74.74 84.8495 74.6335C84.8971 74.527 84.9217 74.4116 84.9217 74.295C84.9217 74.1783 84.8971 74.0629 84.8495 73.9564C84.8019 73.8499 84.7324 73.7546 84.6455 73.6767C84.5586 73.5989 84.4563 73.5402 84.3452 73.5046C84.2341 73.469 84.1167 73.4572 84.0008 73.47H84.0808Z" fill="white"/>
<path d="M65.9999 54.79C65.8779 54.6483 65.706 54.5588 65.5199 54.54C65.3312 54.5282 65.1452 54.589 64.9999 54.71L63.7899 55.71L63.6199 55.38C63.5155 55.1783 63.3577 55.0092 63.1637 54.891C62.9697 54.7729 62.747 54.7103 62.5199 54.71H55.5199C55.199 54.7356 54.9003 54.884 54.6861 55.1243C54.4719 55.3646 54.3586 55.6783 54.3699 56V63C54.3699 63.3289 54.5006 63.6443 54.7331 63.8768C54.9656 64.1094 55.281 64.24 55.6099 64.24H62.6099C62.9388 64.24 63.2542 64.1094 63.4867 63.8768C63.7193 63.6443 63.8499 63.3289 63.8499 63V57.7L65.9999 55.78C66.1417 55.658 66.2312 55.4862 66.2499 55.3C66.245 55.2025 66.2203 55.107 66.1773 55.0193C66.1344 54.9317 66.074 54.8536 65.9999 54.79ZM62.3899 57L60.0799 59L58.9399 57.76C58.8069 57.6281 58.6272 57.5541 58.4399 57.5541C58.2526 57.5541 58.0729 57.6281 57.9399 57.76C57.8734 57.8252 57.8205 57.903 57.7845 57.9888C57.7484 58.0747 57.7298 58.1669 57.7298 58.26C57.7298 58.3532 57.7484 58.4453 57.7845 58.5312C57.8205 58.6171 57.8734 58.6949 57.9399 58.76L59.5399 60.49C59.601 60.5606 59.6756 60.6183 59.7593 60.6596C59.843 60.7009 59.9341 60.7251 60.0273 60.7307C60.1205 60.7363 60.2138 60.7232 60.3018 60.6921C60.3899 60.6611 60.4708 60.6128 60.5399 60.55L62.4499 58.92V62.85H55.7799V56.15H62.3899V57Z" fill="white"/>
<path d="M62.5603 80.67H55.5603C55.2323 80.6727 54.9184 80.8041 54.6864 81.0361C54.4544 81.2681 54.3229 81.582 54.3203 81.91V88.91C54.3203 89.2389 54.451 89.5543 54.6835 89.7869C54.916 90.0194 55.2314 90.15 55.5603 90.15H62.5603C62.8892 90.15 63.2046 90.0194 63.4371 89.7869C63.6697 89.5543 63.8003 89.2389 63.8003 88.91V81.91C63.7977 81.582 63.6662 81.2681 63.4342 81.0361C63.2023 80.8041 62.8884 80.6727 62.5603 80.67ZM62.3903 88.67H55.7803V82.08H62.3903V88.67Z" fill="white"/>
<path d="M62.5602 67.71H55.5602C55.3973 67.7164 55.2373 67.7549 55.0893 67.8232C54.9413 67.8916 54.8082 67.9884 54.6977 68.1082C54.5872 68.228 54.5014 68.3685 54.4452 68.5215C54.389 68.6745 54.3635 68.8371 54.3702 69V76C54.3728 76.328 54.5043 76.6419 54.7363 76.8739C54.9682 77.1059 55.2821 77.2373 55.6102 77.24H62.6102C62.7771 77.2324 62.9408 77.1914 63.0916 77.1195C63.2424 77.0476 63.3772 76.9462 63.4882 76.8213C63.5991 76.6963 63.6839 76.5505 63.7375 76.3922C63.7911 76.234 63.8124 76.0666 63.8002 75.9V69C63.8069 68.833 63.7798 68.6663 63.7205 68.5101C63.6613 68.3538 63.571 68.2111 63.4552 68.0906C63.3393 67.9702 63.2004 67.8743 63.0466 67.8089C62.8928 67.7435 62.7273 67.7098 62.5602 67.71ZM62.3902 75.71H55.7802V69.12H62.3902V75.71Z" fill="white"/>
<path d="M84.0808 82.16H68.0008C67.7976 82.1824 67.6099 82.279 67.4735 82.4312C67.3371 82.5835 67.2617 82.7806 67.2617 82.985C67.2617 83.1894 67.3371 83.3866 67.4735 83.5388C67.6099 83.6911 67.7976 83.7876 68.0008 83.81H84.0008C84.1167 83.8228 84.2341 83.811 84.3452 83.7754C84.4563 83.7397 84.5586 83.6811 84.6455 83.6033C84.7324 83.5254 84.8019 83.4301 84.8495 83.3236C84.8971 83.2171 84.9217 83.1017 84.9217 82.985C84.9217 82.8684 84.8971 82.753 84.8495 82.6465C84.8019 82.5399 84.7324 82.4446 84.6455 82.3668C84.5586 82.289 84.4563 82.2303 84.3452 82.1947C84.2341 82.159 84.1167 82.1472 84.0008 82.16H84.0808Z" fill="white"/>
<path d="M84.0808 86.43H68.0008C67.7976 86.4524 67.6099 86.549 67.4735 86.7012C67.3371 86.8535 67.2617 87.0507 67.2617 87.255C67.2617 87.4594 67.3371 87.6566 67.4735 87.8089C67.6099 87.9611 67.7976 88.0577 68.0008 88.0801H84.0008C84.1167 88.0928 84.2341 88.081 84.3452 88.0454C84.4563 88.0098 84.5586 87.9511 84.6455 87.8733C84.7324 87.7954 84.8019 87.7001 84.8495 87.5936C84.8971 87.4871 84.9217 87.3717 84.9217 87.255C84.9217 87.1384 84.8971 87.023 84.8495 86.9165C84.8019 86.81 84.7324 86.7147 84.6455 86.6368C84.5586 86.559 84.4563 86.5003 84.3452 86.4647C84.2341 86.4291 84.1167 86.4173 84.0008 86.43H84.0808Z" fill="white"/>
<path d="M79.0009 44.33H60.5609C60.1303 44.3057 59.6993 44.3696 59.2942 44.5178C58.8892 44.6659 58.5186 44.8951 58.2052 45.1914C57.8918 45.4876 57.6421 45.8447 57.4715 46.2408C57.3009 46.6369 57.2129 47.0637 57.2129 47.4949C57.2129 47.9262 57.3009 48.353 57.4715 48.7491C57.6421 49.1452 57.8918 49.5023 58.2052 49.7985C58.5186 50.0948 58.8892 50.324 59.2942 50.4721C59.6993 50.6203 60.1303 50.6842 60.5609 50.6599H79.0009C79.4315 50.6842 79.8625 50.6203 80.2675 50.4721C80.6726 50.324 81.0431 50.0948 81.3565 49.7985C81.6699 49.5023 81.9196 49.1452 82.0902 48.7491C82.2608 48.353 82.3488 47.9262 82.3488 47.4949C82.3488 47.0637 82.2608 46.6369 82.0902 46.2408C81.9196 45.8447 81.6699 45.4876 81.3565 45.1914C81.0431 44.8951 80.6726 44.6659 80.2675 44.5178C79.8625 44.3696 79.4315 44.3057 79.0009 44.33ZM79.0009 48.9999H60.5609C60.3434 49.0356 60.1207 49.0235 59.9084 48.9645C59.696 48.9055 59.499 48.8011 59.331 48.6584C59.163 48.5157 59.0281 48.3382 58.9356 48.1381C58.843 47.9381 58.7951 47.7204 58.7951 47.4999C58.7951 47.2795 58.843 47.0618 58.9356 46.8618C59.0281 46.6617 59.163 46.4842 59.331 46.3415C59.499 46.1988 59.696 46.0944 59.9084 46.0354C60.1207 45.9764 60.3434 45.9643 60.5609 45.9999H79.0009C79.2184 45.9643 79.441 45.9764 79.6534 46.0354C79.8657 46.0944 80.0627 46.1988 80.2307 46.3415C80.3987 46.4842 80.5336 46.6617 80.6262 46.8618C80.7187 47.0618 80.7666 47.2795 80.7666 47.4999C80.7666 47.7204 80.7187 47.9381 80.6262 48.1381C80.5336 48.3382 80.3987 48.5157 80.2307 48.6584C80.0627 48.8011 79.8657 48.9055 79.6534 48.9645C79.441 49.0235 79.2184 49.0356 79.0009 48.9999Z" fill="white"/>
<defs>
<linearGradient id="paint0_linear" x1="17.8165" y1="112.774" x2="137.202" y2="28.9925" gradientUnits="userSpaceOnUse">
<stop stop-color="#FF5350"/>
<stop offset="0.17" stop-color="#FE5354"/>
<stop offset="0.36" stop-color="#F95361"/>
<stop offset="0.54" stop-color="#F25375"/>
<stop offset="0.73" stop-color="#E85392"/>
<stop offset="0.91" stop-color="#DB53B7"/>
<stop offset="1" stop-color="#D453CC"/>
</linearGradient>
<linearGradient class="a" id="paint1_linear" x1="2441.94" y1="9369.23" x2="15168.2" y2="9369.23" gradientUnits="userSpaceOnUse">
<stop stop-color="#FF5350"/>
<stop offset="0.17" stop-color="#FE5354"/>
<stop offset="0.36" stop-color="#F95361"/>
<stop offset="0.54" stop-color="#F25375"/>
<stop offset="0.73" stop-color="#E85392"/>
<stop offset="0.91" stop-color="#DB53B7"/>
<stop offset="1" stop-color="#D453CC"/>
</linearGradient>
<linearGradient class="b" id="paint2_linear" x1="1799.52" y1="10631.1" x2="18182.5" y2="10631.1" gradientUnits="userSpaceOnUse">
<stop stop-color="#FF5350"/>
<stop offset="0.17" stop-color="#FE5354"/>
<stop offset="0.36" stop-color="#F95361"/>
<stop offset="0.54" stop-color="#F25375"/>
<stop offset="0.73" stop-color="#E85392"/>
<stop offset="0.91" stop-color="#DB53B7"/>
<stop offset="1" stop-color="#D453CC"/>
</linearGradient>
<linearGradient class="c" id="paint3_linear" x1="838.552" y1="12004.4" x2="21723.6" y2="12004.4" gradientUnits="userSpaceOnUse">
<stop stop-color="#FF5350"/>
<stop offset="0.17" stop-color="#FE5354"/>
<stop offset="0.36" stop-color="#F95361"/>
<stop offset="0.54" stop-color="#F25375"/>
<stop offset="0.73" stop-color="#E85392"/>
<stop offset="0.91" stop-color="#DB53B7"/>
<stop offset="1" stop-color="#D453CC"/>
</linearGradient>
</defs>
</svg>
