<svg width="147" height="147" viewBox="0 0 147 147" fill="none" xmlns="http://www.w3.org/2000/svg">
<path d="M73.591 122.43C100.543 122.43 122.391 100.581 122.391 73.63C122.391 46.6785 100.543 24.83 73.591 24.83C46.6395 24.83 24.791 46.6785 24.791 73.63C24.791 100.581 46.6395 122.43 73.591 122.43Z" fill="url(#paint0_linear)"/>
<path d="M73.5897 129.54C104.468 129.54 129.5 104.508 129.5 73.63C129.5 42.7517 104.468 17.72 73.5897 17.72C42.7114 17.72 17.6797 42.7517 17.6797 73.63C17.6797 104.508 42.7114 129.54 73.5897 129.54Z" stroke="url(#paint1_linear)" stroke-width="2" stroke-miterlimit="10"/>
<path opacity="0.67" d="M73.5898 137.13C108.66 137.13 137.09 108.7 137.09 73.63C137.09 38.5599 108.66 10.13 73.5898 10.13C38.5198 10.13 10.0898 38.5599 10.0898 73.63C10.0898 108.7 38.5198 137.13 73.5898 137.13Z" stroke="url(#paint2_linear)" stroke-width="2" stroke-miterlimit="10"/>
<path opacity="0.12" d="M73.5901 145.39C113.222 145.39 145.35 113.262 145.35 73.63C145.35 33.998 113.222 1.87 73.5901 1.87C33.9581 1.87 1.83008 33.998 1.83008 73.63C1.83008 113.262 33.9581 145.39 73.5901 145.39Z" stroke="url(#paint3_linear)" stroke-width="2" stroke-miterlimit="10"/>
<path d="M57.52 67.2699H71.47L72.89 68.66C72.9834 68.7583 73.0959 68.8366 73.2205 68.8901C73.3451 68.9436 73.4794 68.9712 73.615 68.9712C73.7506 68.9712 73.8849 68.9436 74.0095 68.8901C74.1341 68.8366 74.2466 68.7583 74.34 68.66L75.77 67.2699H89.54C90.2216 67.2699 90.8753 66.9992 91.3573 66.5172C91.8392 66.0352 92.11 65.3815 92.11 64.6999V45.1399C92.11 44.4583 91.8392 43.8046 91.3573 43.3227C90.8753 42.8407 90.2216 42.5699 89.54 42.5699H75.82C75.3572 42.5708 74.9002 42.6723 74.4806 42.8674C74.061 43.0625 73.6888 43.3466 73.39 43.6999C73.0969 43.3502 72.7314 43.0681 72.3188 42.873C71.9063 42.6779 71.4563 42.5745 71 42.5699H57.52C56.8471 42.583 56.2062 42.8596 55.735 43.3401C55.2638 43.8207 54.9999 44.4669 55 45.1399V64.6999C55 65.3815 55.2708 66.0352 55.7527 66.5172C56.2347 66.9992 56.8884 67.2699 57.57 67.2699H57.52ZM74.15 45.7499C74.15 45.5311 74.1933 45.3144 74.2773 45.1124C74.3614 44.9103 74.4845 44.7269 74.6397 44.5726C74.7949 44.4183 74.9791 44.2963 75.1817 44.2134C75.3842 44.1306 75.6012 44.0886 75.82 44.0899H89.54C89.811 44.0895 90.0719 44.1929 90.2691 44.3789C90.4662 44.5649 90.5847 44.8193 90.6 45.0899V64.6999C90.5974 64.9803 90.4849 65.2484 90.2867 65.4466C90.0884 65.6448 89.8203 65.7573 89.54 65.7599H75.54C75.4067 65.7579 75.2744 65.7824 75.1507 65.8322C75.0271 65.882 74.9146 65.9561 74.82 66.0499L74.33 66.5299L74.12 45.7499H74.15ZM56.46 45.1399C56.4729 44.8685 56.5906 44.6126 56.7883 44.4261C56.986 44.2396 57.2483 44.1371 57.52 44.1399H71C71.221 44.1383 71.4401 44.1808 71.6444 44.2649C71.8488 44.3491 72.0343 44.4732 72.19 44.6299C72.5024 44.9434 72.6784 45.3674 72.68 45.8099L72.88 66.5399L72.43 66.0999C72.2334 65.9125 71.9717 65.8085 71.7 65.8099H57.52C57.2389 65.8099 56.9693 65.6983 56.7705 65.4995C56.5717 65.3007 56.46 65.0311 56.46 64.7499V45.1399Z" fill="white"/>
<path d="M69.6397 46.53H59.0697C58.9632 46.5178 58.8554 46.5281 58.7533 46.5605C58.6511 46.5928 58.5569 46.6464 58.477 46.7177C58.397 46.789 58.333 46.8764 58.2891 46.9742C58.2453 47.0719 58.2227 47.1779 58.2227 47.285C58.2227 47.3922 58.2453 47.4981 58.2891 47.5959C58.333 47.6937 58.397 47.7811 58.477 47.8524C58.5569 47.9237 58.6511 47.9772 58.7533 48.0096C58.8554 48.0419 58.9632 48.0523 59.0697 48.04H69.6397C69.7461 48.0523 69.854 48.0419 69.9561 48.0096C70.0583 47.9772 70.1524 47.9237 70.2324 47.8524C70.3124 47.7811 70.3764 47.6937 70.4202 47.5959C70.4641 47.4981 70.4867 47.3922 70.4867 47.285C70.4867 47.1779 70.4641 47.0719 70.4202 46.9742C70.3764 46.8764 70.3124 46.789 70.2324 46.7177C70.1524 46.6464 70.0583 46.5928 69.9561 46.5605C69.854 46.5281 69.7461 46.5178 69.6397 46.53Z" fill="white"/>
<path d="M69.6405 51.45H59.0705C58.869 51.45 58.6757 51.53 58.5331 51.6726C58.3906 51.8151 58.3105 52.0084 58.3105 52.2099C58.3105 52.4115 58.3906 52.6048 58.5331 52.7474C58.6757 52.8899 58.869 52.97 59.0705 52.97H69.6405C69.8421 52.97 70.0354 52.8899 70.1779 52.7474C70.3205 52.6048 70.4005 52.4115 70.4005 52.2099C70.4005 52.0084 70.3205 51.8151 70.1779 51.6726C70.0354 51.53 69.8421 51.45 69.6405 51.45Z" fill="white"/>
<path d="M69.64 56.38H62.64C62.5336 56.3677 62.4257 56.3781 62.3236 56.4104C62.2214 56.4428 62.1273 56.4964 62.0473 56.5677C61.9673 56.639 61.9033 56.7264 61.8595 56.8241C61.8156 56.9219 61.793 57.0279 61.793 57.135C61.793 57.2422 61.8156 57.3481 61.8595 57.4459C61.9033 57.5436 61.9673 57.631 62.0473 57.7023C62.1273 57.7736 62.2214 57.8272 62.3236 57.8596C62.4257 57.8919 62.5336 57.9023 62.64 57.89H69.64C69.7464 57.9023 69.8543 57.8919 69.9564 57.8596C70.0586 57.8272 70.1527 57.7736 70.2327 57.7023C70.3127 57.631 70.3767 57.5436 70.4205 57.4459C70.4644 57.3481 70.487 57.2422 70.487 57.135C70.487 57.0279 70.4644 56.9219 70.4205 56.8241C70.3767 56.7264 70.3127 56.639 70.2327 56.5677C70.1527 56.4964 70.0586 56.4428 69.9564 56.4104C69.8543 56.3781 69.7464 56.3677 69.64 56.38Z" fill="white"/>
<path d="M66.1405 61.3H59.0705C58.869 61.3 58.6757 61.3801 58.5331 61.5226C58.3906 61.6652 58.3105 61.8585 58.3105 62.06C58.3105 62.2616 58.3906 62.4549 58.5331 62.5975C58.6757 62.74 58.869 62.82 59.0705 62.82H66.1405C66.3421 62.82 66.5354 62.74 66.6779 62.5975C66.8205 62.4549 66.9005 62.2616 66.9005 62.06C66.9005 61.8585 66.8205 61.6652 66.6779 61.5226C66.5354 61.3801 66.3421 61.3 66.1405 61.3Z" fill="white"/>
<path d="M77.2103 48H83.8103C83.9168 48.0123 84.0246 48.0019 84.1267 47.9695C84.2289 47.9372 84.3231 47.8836 84.403 47.8123C84.483 47.741 84.547 47.6536 84.5909 47.5558C84.6347 47.4581 84.6573 47.3521 84.6573 47.245C84.6573 47.1378 84.6347 47.0319 84.5909 46.9341C84.547 46.8363 84.483 46.7489 84.403 46.6776C84.3231 46.6064 84.2289 46.5528 84.1267 46.5204C84.0246 46.4881 83.9168 46.4777 83.8103 46.49H77.2103C77.1039 46.4777 76.996 46.4881 76.8939 46.5204C76.7917 46.5528 76.6976 46.6064 76.6176 46.6776C76.5376 46.7489 76.4736 46.8363 76.4298 46.9341C76.3859 47.0319 76.3633 47.1378 76.3633 47.245C76.3633 47.3521 76.3859 47.4581 76.4298 47.5558C76.4736 47.6536 76.5376 47.741 76.6176 47.8123C76.6976 47.8836 76.7917 47.9372 76.8939 47.9695C76.996 48.0019 77.1039 48.0123 77.2103 48Z" fill="white"/>
<path d="M87.7792 51.45H77.2092C77.0077 51.45 76.8143 51.53 76.6718 51.6726C76.5293 51.8151 76.4492 52.0084 76.4492 52.2099C76.4492 52.4115 76.5293 52.6048 76.6718 52.7474C76.8143 52.8899 77.0077 52.97 77.2092 52.97H87.7792C87.9808 52.97 88.1741 52.8899 88.3166 52.7474C88.4591 52.6048 88.5392 52.4115 88.5392 52.2099C88.5392 52.0084 88.4591 51.8151 88.3166 51.6726C88.1741 51.53 87.9808 51.45 87.7792 51.45Z" fill="white"/>
<path d="M87.7803 56.38H77.2103C77.1039 56.3677 76.996 56.3781 76.8939 56.4104C76.7917 56.4428 76.6976 56.4964 76.6176 56.5677C76.5376 56.639 76.4736 56.7264 76.4298 56.8241C76.3859 56.9219 76.3633 57.0279 76.3633 57.135C76.3633 57.2422 76.3859 57.3481 76.4298 57.4459C76.4736 57.5436 76.5376 57.631 76.6176 57.7023C76.6976 57.7736 76.7917 57.8272 76.8939 57.8596C76.996 57.8919 77.1039 57.9023 77.2103 57.89H87.7803C87.8868 57.9023 87.9946 57.8919 88.0967 57.8596C88.1989 57.8272 88.2931 57.7736 88.373 57.7023C88.453 57.631 88.517 57.5436 88.5609 57.4459C88.6047 57.3481 88.6273 57.2422 88.6273 57.135C88.6273 57.0279 88.6047 56.9219 88.5609 56.8241C88.517 56.7264 88.453 56.639 88.373 56.5677C88.2931 56.4964 88.1989 56.4428 88.0967 56.4104C87.9946 56.3781 87.8868 56.3677 87.7803 56.38Z" fill="white"/>
<path d="M87.7802 61.3H81.0002C80.7987 61.3 80.6054 61.3801 80.4628 61.5226C80.3203 61.6652 80.2402 61.8585 80.2402 62.06C80.2402 62.2616 80.3203 62.4549 80.4628 62.5975C80.6054 62.74 80.7987 62.82 81.0002 62.82H87.7602C87.9618 62.82 88.1551 62.74 88.2976 62.5975C88.4402 62.4549 88.5202 62.2616 88.5202 62.06C88.5202 61.8585 88.4402 61.6652 88.2976 61.5226C88.1551 61.3801 87.9618 61.3 87.7602 61.3H87.7802Z" fill="white"/>
<path d="M73.5793 69.5C71.7996 69.5053 70.0945 70.2153 68.8369 71.4747C67.5794 72.7341 66.872 74.4403 66.8693 76.22V79.22C66.8627 80.1063 67.0313 80.9852 67.3653 81.8062C67.6993 82.6272 68.1922 83.3741 68.8157 84.0041C69.4392 84.6341 70.1809 85.1347 70.9984 85.4772C71.8159 85.8197 72.693 85.9974 73.5793 86C75.359 85.9947 77.0642 85.2847 78.3217 84.0253C79.5792 82.7659 80.2867 81.0597 80.2893 79.28V76.28C80.2867 74.5003 79.5792 72.7941 78.3217 71.5347C77.0642 70.2753 75.359 69.5653 73.5793 69.56V69.5ZM78.8193 76.22V79.22C78.8193 79.9029 78.6848 80.5791 78.4235 81.21C78.1622 81.8408 77.7791 82.4141 77.2963 82.897C76.8134 83.3798 76.2402 83.7628 75.6093 84.0242C74.9784 84.2855 74.3022 84.42 73.6193 84.42C72.9365 84.42 72.2603 84.2855 71.6294 84.0242C70.9985 83.7628 70.4252 83.3798 69.9424 82.897C69.4595 82.4141 69.0765 81.8408 68.8152 81.21C68.5538 80.5791 68.4193 79.9029 68.4193 79.22V76.22C68.4193 74.8409 68.9672 73.5182 69.9424 72.543C70.9176 71.5679 72.2402 71.02 73.6193 71.02C74.3022 71.02 74.9784 71.1545 75.6093 71.4158C76.2402 71.6771 76.8134 72.0602 77.2963 72.543C77.7791 73.0259 78.1622 73.5992 78.4235 74.23C78.6848 74.8609 78.8193 75.5371 78.8193 76.22Z" fill="white"/>
<path d="M91.0703 73.33C89.479 73.33 87.9529 73.9622 86.8277 75.0874C85.7025 76.2126 85.0703 77.7387 85.0703 79.33V82C85.0703 83.5913 85.7025 85.1175 86.8277 86.2427C87.9529 87.3679 89.479 88 91.0703 88C92.6616 88 94.1877 87.3679 95.313 86.2427C96.4382 85.1175 97.0703 83.5913 97.0703 82V79.3C97.0703 77.7087 96.4382 76.1826 95.313 75.0574C94.1877 73.9322 92.6616 73.3 91.0703 73.3V73.33ZM95.5503 79.33V82C95.5516 82.5861 95.4372 83.1667 95.2135 83.7084C94.9898 84.2501 94.6614 84.7423 94.2469 85.1567C93.8325 85.5711 93.3403 85.8996 92.7986 86.1232C92.2569 86.3469 91.6764 86.4614 91.0903 86.46C90.5026 86.464 89.9199 86.3515 89.3758 86.129C88.8318 85.9065 88.3373 85.5785 87.9207 85.1638C87.5042 84.7491 87.1739 84.256 86.949 83.713C86.7241 83.17 86.609 82.5878 86.6103 82V79.3C86.6103 78.1172 87.0802 76.9828 87.9166 76.1463C88.753 75.3099 89.8874 74.84 91.0703 74.84C92.2532 74.84 93.3876 75.3099 94.224 76.1463C95.0604 76.9828 95.5303 78.1172 95.5303 79.3L95.5503 79.33Z" fill="white"/>
<path d="M95.3109 88.4C95.1501 88.3992 94.992 88.4414 94.8531 88.5223C94.7142 88.6032 94.5994 88.7198 94.5209 88.86C94.1055 89.3678 93.5798 89.7741 92.9836 90.0479C92.3875 90.3217 91.7367 90.4558 91.0809 90.44C90.4246 90.4284 89.7799 90.2654 89.1971 89.9635C88.6142 89.6617 88.109 89.2293 87.7209 88.7C87.6485 88.6015 87.5535 88.5219 87.4438 88.4679C87.3341 88.414 87.2131 88.3872 87.0909 88.39C85.8969 88.407 84.7308 88.753 83.7209 89.39C83.0693 88.6045 82.2638 87.9606 81.3541 87.4979C80.4443 87.0353 79.4495 86.7638 78.4309 86.7C78.2629 86.701 78.0982 86.7469 77.954 86.8331C77.8098 86.9193 77.6913 87.0425 77.6109 87.19C77.1297 87.7888 76.517 88.2686 75.8203 88.5923C75.1237 88.9159 74.3619 89.0747 73.5939 89.0564C72.826 89.038 72.0726 88.8429 71.3923 88.4863C70.7119 88.1297 70.1229 87.6211 69.6709 87C69.5991 86.9009 69.5042 86.8208 69.3944 86.7668C69.2846 86.7127 69.1632 86.6864 69.0409 86.69C67.0829 86.7468 65.2273 87.5775 63.8809 89C63.7362 89.1461 63.5994 89.2996 63.4709 89.46C62.5256 88.8666 61.4452 88.5225 60.3309 88.46C60.1686 88.4584 60.0089 88.5002 59.8682 88.5811C59.7276 88.662 59.6111 88.779 59.5309 88.92C59.1158 89.4281 58.5903 89.8346 57.9943 90.1088C57.3983 90.3829 56.7476 90.5174 56.0918 90.502C55.4359 90.4866 54.7923 90.3216 54.2098 90.0197C53.6274 89.7179 53.1216 89.287 52.7309 88.76C52.6591 88.6609 52.5642 88.5808 52.4544 88.5268C52.3446 88.4727 52.2232 88.4464 52.1009 88.45C50.3849 88.4938 48.7526 89.2004 47.5463 90.4216C46.3401 91.6428 45.6536 93.2837 45.6309 95V100.89C45.6308 101.09 45.7095 101.282 45.8499 101.424C45.9903 101.566 46.181 101.647 46.3809 101.65H61.7509V103.88C61.7508 104.08 61.8295 104.272 61.9699 104.414C62.1103 104.556 62.301 104.637 62.5009 104.64H84.6909C84.8924 104.64 85.0857 104.56 85.2283 104.417C85.3708 104.275 85.4509 104.082 85.4509 103.88V101.65H100.791C100.992 101.65 101.186 101.57 101.328 101.427C101.471 101.285 101.551 101.092 101.551 100.89V95C101.552 93.3069 100.906 91.6772 99.7468 90.4433C98.5873 89.2095 97.0008 88.4644 95.3109 88.36V88.4ZM47.1409 100.17V95C47.1484 93.7267 47.6247 92.5008 48.4787 91.5564C49.3328 90.612 50.5047 90.0152 51.7709 89.88C52.3172 90.5161 52.9946 91.0267 53.7566 91.3767C54.5187 91.7267 55.3473 91.9079 56.1859 91.9079C57.0244 91.9079 57.8531 91.7267 58.6151 91.3767C59.3771 91.0267 60.0545 90.5161 60.6009 89.88C61.3109 89.982 61.9921 90.2306 62.6009 90.61C62.0303 91.6993 61.7318 92.9104 61.7309 94.14V100.14L47.1409 100.17ZM83.9409 103.17H63.2609V94.17C63.2545 92.6696 63.8106 91.2212 64.8195 90.1106C65.8283 88.9999 67.2167 88.3076 68.7109 88.17C69.3257 88.8966 70.0916 89.4805 70.9551 89.881C71.8186 90.2814 72.759 90.4889 73.7109 90.4889C74.6627 90.4889 75.6031 90.2814 76.4666 89.881C77.3301 89.4805 78.096 88.8966 78.7109 88.17C80.1551 88.3544 81.483 89.0577 82.447 90.1487C83.4111 91.2397 83.9456 92.6441 83.9509 94.1L83.9409 103.17ZM100.031 100.17H85.4509V94.17C85.4525 92.9389 85.1502 91.7263 84.5709 90.64C85.2321 90.2222 85.9822 89.9653 86.7609 89.89C87.3063 90.5259 87.9828 91.0364 88.744 91.3863C89.5052 91.7362 90.3331 91.9174 91.1709 91.9174C92.0086 91.9174 92.8365 91.7362 93.5977 91.3863C94.3589 91.0364 95.0354 90.5259 95.5809 89.89C96.8115 90.062 97.938 90.6748 98.7509 91.6146C99.5638 92.5545 100.008 93.7574 100.001 95L100.031 100.17Z" fill="white"/>
<path d="M56.0801 87.94C57.6714 87.94 59.1975 87.3079 60.3227 86.1827C61.4479 85.0575 62.0801 83.5313 62.0801 81.94V79.3C62.0801 77.7087 61.4479 76.1826 60.3227 75.0574C59.1975 73.9322 57.6714 73.3 56.0801 73.3C54.4888 73.3 52.9627 73.9322 51.8374 75.0574C50.7122 76.1826 50.0801 77.7087 50.0801 79.3V82C50.0801 83.5913 50.7122 85.1175 51.8374 86.2427C52.9627 87.3679 54.4888 88 56.0801 88V87.94ZM51.6201 79.3C51.6201 78.1172 52.09 76.9828 52.9264 76.1463C53.7628 75.3099 54.8972 74.84 56.0801 74.84C57.2629 74.84 58.3974 75.3099 59.2338 76.1463C60.0702 76.9828 60.5401 78.1172 60.5401 79.3V82C60.5401 83.1829 60.0702 84.3173 59.2338 85.1537C58.3974 85.9902 57.2629 86.46 56.0801 86.46C54.8972 86.46 53.7628 85.9902 52.9264 85.1537C52.09 84.3173 51.6201 83.1829 51.6201 82V79.3Z" fill="white"/>
<defs>
<linearGradient id="paint0_linear" x1="17.8099" y1="112.776" x2="137.196" y2="28.9945" gradientUnits="userSpaceOnUse">
<stop stop-color="#FF5350"/>
<stop offset="0.17" stop-color="#FE5354"/>
<stop offset="0.36" stop-color="#F95361"/>
<stop offset="0.54" stop-color="#F25375"/>
<stop offset="0.73" stop-color="#E85392"/>
<stop offset="0.91" stop-color="#DB53B7"/>
<stop offset="1" stop-color="#D453CC"/>
</linearGradient>
<linearGradient class="a" id="paint1_linear" x1="2441.94" y1="9369.23" x2="15168.2" y2="9369.23" gradientUnits="userSpaceOnUse">
<stop stop-color="#FF5350"/>
<stop offset="0.17" stop-color="#FE5354"/>
<stop offset="0.36" stop-color="#F95361"/>
<stop offset="0.54" stop-color="#F25375"/>
<stop offset="0.73" stop-color="#E85392"/>
<stop offset="0.91" stop-color="#DB53B7"/>
<stop offset="1" stop-color="#D453CC"/>
</linearGradient>
<linearGradient class="b" id="paint2_linear" x1="1799.52" y1="10631.1" x2="18182.5" y2="10631.1" gradientUnits="userSpaceOnUse">
<stop stop-color="#FF5350"/>
<stop offset="0.17" stop-color="#FE5354"/>
<stop offset="0.36" stop-color="#F95361"/>
<stop offset="0.54" stop-color="#F25375"/>
<stop offset="0.73" stop-color="#E85392"/>
<stop offset="0.91" stop-color="#DB53B7"/>
<stop offset="1" stop-color="#D453CC"/>
</linearGradient>
<linearGradient class="c" id="paint3_linear" x1="838.552" y1="12004.4" x2="21723.6" y2="12004.4" gradientUnits="userSpaceOnUse">
<stop stop-color="#FF5350"/>
<stop offset="0.17" stop-color="#FE5354"/>
<stop offset="0.36" stop-color="#F95361"/>
<stop offset="0.54" stop-color="#F25375"/>
<stop offset="0.73" stop-color="#E85392"/>
<stop offset="0.91" stop-color="#DB53B7"/>
<stop offset="1" stop-color="#D453CC"/>
</linearGradient>
</defs>
</svg>
