<svg width="112" height="112" viewBox="0 0 112 112" fill="none" xmlns="http://www.w3.org/2000/svg">
<path d="M25.5592 42.26V39.64C25.5645 38.6728 25.9524 37.747 26.6383 37.0649C27.3241 36.3828 28.252 36 29.2192 36H33.8792V37.08C33.8792 37.8438 34.1827 38.5764 34.7228 39.1165C35.2629 39.6566 35.9954 39.96 36.7592 39.96C37.523 39.96 38.2556 39.6566 38.7957 39.1165C39.3358 38.5764 39.6392 37.8438 39.6392 37.08V36H41.9992V37.08C41.9992 37.8438 42.3026 38.5764 42.8428 39.1165C43.3829 39.6566 44.1154 39.96 44.8792 39.96C45.643 39.96 46.3756 39.6566 46.9157 39.1165C47.4558 38.5764 47.7592 37.8438 47.7592 37.08V36H50.0992V37.08C50.0992 37.8438 50.4027 38.5764 50.9428 39.1165C51.4829 39.6566 52.2154 39.96 52.9792 39.96C53.743 39.96 54.4756 39.6566 55.0157 39.1165C55.5558 38.5764 55.8592 37.8438 55.8592 37.08V36H58.1992V37.08C58.1992 37.8438 58.5027 38.5764 59.0428 39.1165C59.5829 39.6566 60.3154 39.96 61.0792 39.96C61.843 39.96 62.5756 39.6566 63.1157 39.1165C63.6558 38.5764 63.9592 37.8438 63.9592 37.08V36H66.2992V37.08C66.2992 37.8438 66.6027 38.5764 67.1428 39.1165C67.6829 39.6566 68.4154 39.96 69.1792 39.96C69.943 39.96 70.6756 39.6566 71.2157 39.1165C71.7558 38.5764 72.0592 37.8438 72.0592 37.08V36H76.7192C77.6899 36 78.6209 36.3856 79.3072 37.072C79.9936 37.7584 80.3792 38.6893 80.3792 39.66V42.28H30.5192C30.2699 42.28 30.0308 42.379 29.8545 42.5553C29.6783 42.7316 29.5792 42.9707 29.5792 43.22C29.5792 43.4693 29.6783 43.7084 29.8545 43.8847C30.0308 44.061 30.2699 44.16 30.5192 44.16H80.3592V56.32C80.3592 56.5693 80.4583 56.8084 80.6345 56.9847C80.8108 57.161 81.0499 57.26 81.2992 57.26C81.5485 57.26 81.7876 57.161 81.9639 56.9847C82.1402 56.8084 82.2392 56.5693 82.2392 56.32V39.64C82.2366 38.1715 81.6521 36.7639 80.6137 35.7255C79.5753 34.6872 78.1677 34.1026 76.6992 34.1H71.9992V33C71.9992 32.2362 71.6958 31.5036 71.1557 30.9635C70.6156 30.4234 69.883 30.12 69.1192 30.12C68.3554 30.12 67.6229 30.4234 67.0827 30.9635C66.5426 31.5036 66.2392 32.2362 66.2392 33V34.1H63.8992V33C63.8992 32.2362 63.5958 31.5036 63.0557 30.9635C62.5156 30.4234 61.7831 30.12 61.0192 30.12C60.2554 30.12 59.5229 30.4234 58.9828 30.9635C58.4427 31.5036 58.1392 32.2362 58.1392 33V34.1H55.7992V33C55.7992 32.2362 55.4958 31.5036 54.9557 30.9635C54.4156 30.4234 53.683 30.12 52.9192 30.12C52.1554 30.12 51.4229 30.4234 50.8828 30.9635C50.3426 31.5036 50.0392 32.2362 50.0392 33V34.1H47.6992V33C47.5996 32.3152 47.2568 31.6892 46.7334 31.2365C46.2101 30.7838 45.5412 30.5346 44.8492 30.5346C44.1572 30.5346 43.4884 30.7838 42.965 31.2365C42.4417 31.6892 42.0988 32.3152 41.9992 33V34.1H39.6592V33C39.6592 32.2362 39.3558 31.5036 38.8157 30.9635C38.2756 30.4234 37.543 30.12 36.7792 30.12C36.0154 30.12 35.2829 30.4234 34.7428 30.9635C34.2026 31.5036 33.8992 32.2362 33.8992 33V34.1H29.2392C27.7707 34.1026 26.3631 34.6872 25.3248 35.7255C24.2864 36.7639 23.7019 38.1715 23.6992 39.64V73C23.7019 74.4676 24.2867 75.8741 25.3254 76.9109C26.364 77.9477 27.7717 78.53 29.2392 78.53H54.4292C54.5601 78.5435 54.6924 78.5295 54.8176 78.4886C54.9427 78.4478 55.0578 78.3812 55.1556 78.2931C55.2533 78.2049 55.3314 78.0972 55.3849 77.977C55.4384 77.8567 55.466 77.7266 55.466 77.595C55.466 77.4634 55.4384 77.3332 55.3849 77.213C55.3314 77.0927 55.2533 76.9851 55.1556 76.8969C55.0578 76.8088 54.9427 76.7421 54.8176 76.7013C54.6924 76.6605 54.5601 76.6464 54.4292 76.66H29.2192C28.2485 76.66 27.3176 76.2744 26.6312 75.588C25.9448 74.9016 25.5592 73.9707 25.5592 73V42.26ZM68.1592 33C68.1592 32.7348 68.2646 32.4804 68.4521 32.2929C68.6397 32.1053 68.894 32 69.1592 32C69.4244 32 69.6788 32.1053 69.8663 32.2929C70.0539 32.4804 70.1592 32.7348 70.1592 33V37C70.1592 37.2652 70.0539 37.5196 69.8663 37.7071C69.6788 37.8946 69.4244 38 69.1592 38C68.894 38 68.6397 37.8946 68.4521 37.7071C68.2646 37.5196 68.1592 37.2652 68.1592 37V33ZM60.0592 33C60.0592 32.7348 60.1646 32.4804 60.3521 32.2929C60.5396 32.1053 60.794 32 61.0592 32C61.3244 32 61.5788 32.1053 61.7663 32.2929C61.9539 32.4804 62.0592 32.7348 62.0592 33V37C62.0592 37.2652 61.9539 37.5196 61.7663 37.7071C61.5788 37.8946 61.3244 38 61.0592 38C60.794 38 60.5396 37.8946 60.3521 37.7071C60.1646 37.5196 60.0592 37.2652 60.0592 37V33ZM51.9992 33C51.9992 32.7348 52.1046 32.4804 52.2921 32.2929C52.4797 32.1053 52.734 32 52.9992 32C53.2644 32 53.5188 32.1053 53.7063 32.2929C53.8939 32.4804 53.9992 32.7348 53.9992 33V37C53.9992 37.2652 53.8939 37.5196 53.7063 37.7071C53.5188 37.8946 53.2644 38 52.9992 38C52.734 38 52.4797 37.8946 52.2921 37.7071C52.1046 37.5196 51.9992 37.2652 51.9992 37V33ZM43.8992 33C43.8992 32.7348 44.0046 32.4804 44.1921 32.2929C44.3797 32.1053 44.634 32 44.8992 32C45.1644 32 45.4188 32.1053 45.6063 32.2929C45.7939 32.4804 45.8992 32.7348 45.8992 33V37C45.8992 37.2652 45.7939 37.5196 45.6063 37.7071C45.4188 37.8946 45.1644 38 44.8992 38C44.634 38 44.3797 37.8946 44.1921 37.7071C44.0046 37.5196 43.8992 37.2652 43.8992 37V33ZM35.7992 33C35.7992 32.7348 35.9046 32.4804 36.0921 32.2929C36.2797 32.1053 36.534 32 36.7992 32C37.0644 32 37.3188 32.1053 37.5063 32.2929C37.6939 32.4804 37.7992 32.7348 37.7992 33V37C37.7992 37.2652 37.6939 37.5196 37.5063 37.7071C37.3188 37.8946 37.0644 38 36.7992 38C36.534 38 36.2797 37.8946 36.0921 37.7071C35.9046 37.5196 35.7992 37.2652 35.7992 37V33Z" fill="#BA54C8"/>
<path d="M71.9386 56.56C69.213 56.5667 66.5366 57.2865 64.1754 58.6478C61.8141 60.0091 59.8501 61.9646 58.4786 64.32C58.3786 64.5329 58.362 64.7756 58.4322 65.0001C58.5023 65.2247 58.6541 65.4147 58.8576 65.5328C59.0611 65.6508 59.3014 65.6883 59.5312 65.6378C59.7609 65.5873 59.9634 65.4525 60.0986 65.26C61.8249 62.2949 64.6117 60.095 67.8967 59.1045C71.1816 58.114 74.72 58.4065 77.7977 59.923C80.8754 61.4395 83.2632 64.0671 84.4791 67.2755C85.6951 70.4838 85.6486 74.034 84.3492 77.2094C83.0497 80.3849 80.594 82.9491 77.4777 84.3846C74.3614 85.8201 70.8165 86.0199 67.5586 84.9438C64.3007 83.8676 61.5724 81.5957 59.9243 78.5864C58.2761 75.5771 57.831 72.0547 58.6786 68.73C58.7396 68.49 58.7027 68.2356 58.5762 68.0227C58.4496 67.8099 58.2436 67.656 58.0036 67.595C57.7636 67.534 57.5091 67.5708 57.2963 67.6974C57.0834 67.824 56.9296 68.03 56.8686 68.27C56.066 71.4127 56.2657 74.7277 57.4396 77.7515C58.6135 80.7752 60.703 83.3564 63.416 85.1343C66.1289 86.9122 69.3296 87.7979 72.5706 87.6674C75.8116 87.5369 78.9308 86.3969 81.4921 84.4067C84.0533 82.4165 85.9286 79.6756 86.8557 76.5673C87.7828 73.4591 87.7153 70.1387 86.6627 67.0707C85.6101 64.0026 83.6251 61.3402 80.9851 59.4556C78.3451 57.5711 75.1822 56.5587 71.9386 56.56Z" fill="#BA54C8"/>
<path d="M72.88 62.21V61.4C72.88 61.1507 72.781 60.9116 72.6047 60.7353C72.4284 60.5591 72.1893 60.46 71.94 60.46C71.6907 60.46 71.4516 60.5591 71.2753 60.7353C71.099 60.9116 71 61.1507 71 61.4V62.21C71 62.3335 71.0243 62.4557 71.0715 62.5697C71.1188 62.6838 71.188 62.7874 71.2753 62.8747C71.3626 62.962 71.4662 63.0312 71.5803 63.0785C71.6943 63.1257 71.8166 63.15 71.94 63.15C72.0634 63.15 72.1857 63.1257 72.2997 63.0785C72.4138 63.0312 72.5174 62.962 72.6047 62.8747C72.692 62.7874 72.7612 62.6838 72.8084 62.5697C72.8557 62.4557 72.88 62.3335 72.88 62.21Z" fill="#BA54C8"/>
<path d="M64.9295 66.05C65.1787 66.0466 65.4176 65.9503 65.5995 65.78C65.7626 65.5969 65.8527 65.3602 65.8527 65.115C65.8527 64.8698 65.7626 64.6331 65.5995 64.45L65.0195 63.87C64.8431 63.6936 64.6039 63.5945 64.3545 63.5945C64.1051 63.5945 63.8659 63.6936 63.6895 63.87C63.5131 64.0464 63.4141 64.2856 63.4141 64.535C63.4141 64.7844 63.5131 65.0236 63.6895 65.2L64.2695 65.78C64.3564 65.8662 64.4593 65.9344 64.5726 65.9808C64.6859 66.0271 64.8071 66.0506 64.9295 66.05Z" fill="#BA54C8"/>
<path d="M62 73.06C62.2493 73.06 62.4884 72.961 62.6647 72.7847C62.841 72.6084 62.94 72.3693 62.94 72.12C62.94 71.8707 62.841 71.6316 62.6647 71.4553C62.4884 71.279 62.2493 71.18 62 71.18H61.19C60.9407 71.18 60.7016 71.279 60.5253 71.4553C60.349 71.6316 60.25 71.8707 60.25 72.12C60.25 72.3693 60.349 72.6084 60.5253 72.7847C60.7016 72.961 60.9407 73.06 61.19 73.06H62Z" fill="#BA54C8"/>
<path d="M63.6887 80.37C63.8706 80.5403 64.1095 80.6366 64.3587 80.64C64.4811 80.6406 64.6024 80.6171 64.7156 80.5708C64.8289 80.5244 64.9319 80.4562 65.0187 80.37L65.5987 79.79C65.6973 79.7055 65.7774 79.6015 65.8338 79.4846C65.8903 79.3677 65.9218 79.2403 65.9266 79.1105C65.9314 78.9808 65.9092 78.8514 65.8615 78.7307C65.8138 78.6099 65.7416 78.5003 65.6494 78.4089C65.5572 78.3174 65.4471 78.246 65.326 78.1992C65.2049 78.1524 65.0754 78.1312 64.9457 78.137C64.8159 78.1427 64.6888 78.1753 64.5723 78.2326C64.4558 78.2899 64.3524 78.3707 64.2687 78.47L63.6887 79.04C63.5256 79.2231 63.4355 79.4598 63.4355 79.705C63.4355 79.9502 63.5256 80.1869 63.6887 80.37Z" fill="#BA54C8"/>
<path d="M71 82V82.82C71 83.0693 71.099 83.3084 71.2753 83.4847C71.4516 83.661 71.6907 83.76 71.94 83.76C72.1893 83.76 72.4284 83.661 72.6047 83.4847C72.781 83.3084 72.88 83.0693 72.88 82.82V82C72.88 81.7507 72.781 81.5116 72.6047 81.3353C72.4284 81.159 72.1893 81.06 71.94 81.06C71.6907 81.06 71.4516 81.159 71.2753 81.3353C71.099 81.5116 71 81.7507 71 82Z" fill="#BA54C8"/>
<path d="M78.289 79.79L78.859 80.37C78.9458 80.4562 79.0489 80.5244 79.1621 80.5708C79.2754 80.6171 79.3966 80.6406 79.519 80.64C79.7682 80.6366 80.0071 80.5403 80.189 80.37C80.3521 80.1869 80.4422 79.9502 80.4422 79.705C80.4422 79.4598 80.3521 79.2231 80.189 79.04L79.609 78.47C79.5223 78.3833 79.4194 78.3146 79.3062 78.2677C79.193 78.2208 79.0716 78.1966 78.949 78.1966C78.8264 78.1966 78.7051 78.2208 78.5918 78.2677C78.4786 78.3146 78.3757 78.3833 78.289 78.47C78.2023 78.5567 78.1336 78.6596 78.0867 78.7728C78.0398 78.8861 78.0156 79.0074 78.0156 79.13C78.0156 79.2526 78.0398 79.374 78.0867 79.4872C78.1336 79.6004 78.2023 79.7033 78.289 79.79Z" fill="#BA54C8"/>
<path d="M82.6702 73.06C82.9195 73.06 83.1586 72.961 83.3348 72.7847C83.5111 72.6084 83.6102 72.3693 83.6102 72.12C83.6102 71.8707 83.5111 71.6316 83.3348 71.4553C83.1586 71.279 82.9195 71.18 82.6702 71.18H81.8502C81.6009 71.18 81.3618 71.279 81.1855 71.4553C81.0092 71.6316 80.9102 71.8707 80.9102 72.12C80.9102 72.3693 81.0092 72.6084 81.1855 72.7847C81.3618 72.961 81.6009 73.06 81.8502 73.06H82.6702Z" fill="#BA54C8"/>
<path d="M78.9991 66.05C79.1214 66.0506 79.2427 66.0271 79.356 65.9808C79.4692 65.9344 79.5722 65.8662 79.6591 65.78L80.2391 65.2C80.3264 65.1127 80.3957 65.009 80.4429 64.8949C80.4902 64.7808 80.5145 64.6585 80.5145 64.535C80.5145 64.4115 80.4902 64.2892 80.4429 64.1751C80.3957 64.061 80.3264 63.9573 80.2391 63.87C80.1518 63.7827 80.0481 63.7134 79.934 63.6661C79.8199 63.6189 79.6976 63.5945 79.5741 63.5945C79.4506 63.5945 79.3283 63.6189 79.2142 63.6661C79.1001 63.7134 78.9964 63.7827 78.9091 63.87L78.3391 64.45C78.2095 64.5814 78.1214 64.7481 78.0859 64.9292C78.0504 65.1103 78.069 65.2979 78.1394 65.4685C78.2098 65.6391 78.3288 65.7852 78.4817 65.8886C78.6346 65.9921 78.8145 66.0482 78.9991 66.05Z" fill="#BA54C8"/>
<path d="M76.7584 68.64C76.622 68.4711 76.4243 68.3633 76.2085 68.34C75.9898 68.3219 75.7722 68.386 75.5985 68.52L73.8084 70H73.7385C73.2745 69.6883 72.7375 69.5022 72.1801 69.4602C71.6227 69.4181 71.064 69.5214 70.5584 69.76H70.4885L68.2784 67.31C68.2087 67.2281 68.1232 67.161 68.027 67.1129C67.9308 67.0648 67.8258 67.0366 67.7185 67.03H67.6684C67.4661 67.0331 67.2714 67.1075 67.1184 67.24C66.9557 67.3874 66.858 67.5933 66.8468 67.8126C66.8355 68.0319 66.9117 68.2467 67.0584 68.41L69.2584 70.86V70.93C68.9973 71.3514 68.8377 71.8276 68.7921 72.3212C68.7465 72.8149 68.8162 73.3123 68.9957 73.7744C69.1752 74.2365 69.4596 74.6505 69.8264 74.9839C70.1933 75.3173 70.6326 75.5609 71.1097 75.6954C71.5868 75.83 72.0886 75.8519 72.5756 75.7594C73.0626 75.6669 73.5215 75.4625 73.916 75.1624C74.3105 74.8623 74.6299 74.4746 74.849 74.0299C75.0681 73.5852 75.1809 73.0957 75.1784 72.6C75.1756 72.1744 75.0907 71.7534 74.9284 71.36V71.28L76.7185 69.82C76.8032 69.7513 76.8734 69.6664 76.9249 69.5702C76.9764 69.4741 77.0082 69.3686 77.0185 69.26C77.022 69.1441 77.0007 69.0287 76.9558 68.9218C76.911 68.8148 76.8436 68.7187 76.7584 68.64ZM71.9385 74.13C71.6319 74.13 71.3322 74.0391 71.0773 73.8688C70.8224 73.6985 70.6237 73.4564 70.5064 73.1732C70.3891 72.8899 70.3584 72.5783 70.4182 72.2776C70.478 71.9769 70.6257 71.7008 70.8424 71.484C71.0592 71.2672 71.3354 71.1196 71.6361 71.0598C71.9367 71 72.2484 71.0307 72.5316 71.148C72.8148 71.2653 73.0569 71.464 73.2272 71.7189C73.3975 71.9738 73.4885 72.2734 73.4885 72.58C73.4885 72.9911 73.3251 73.3853 73.0345 73.676C72.7438 73.9667 72.3495 74.13 71.9385 74.13Z" fill="#BA54C8"/>
<path d="M34.3601 47.56H31.5801C31.0496 47.56 30.5409 47.7707 30.1659 48.1458C29.7908 48.5209 29.5801 49.0296 29.5801 49.56V52.34C29.5801 52.8704 29.7908 53.3791 30.1659 53.7542C30.5409 54.1293 31.0496 54.34 31.5801 54.34H34.3601C34.8905 54.34 35.3992 54.1293 35.7743 53.7542C36.1494 53.3791 36.3601 52.8704 36.3601 52.34V49.56C36.3601 49.0296 36.1494 48.5209 35.7743 48.1458C35.3992 47.7707 34.8905 47.56 34.3601 47.56ZM34.8401 52.34C34.8375 52.4656 34.7857 52.5851 34.696 52.673C34.6063 52.7608 34.4857 52.81 34.3601 52.81H31.5801C31.4554 52.81 31.3359 52.7605 31.2477 52.6723C31.1596 52.5842 31.1101 52.4646 31.1101 52.34V49.56C31.1101 49.4353 31.1596 49.3158 31.2477 49.2277C31.3359 49.1395 31.4554 49.09 31.5801 49.09H34.3601C34.4857 49.09 34.6063 49.1392 34.696 49.227C34.7857 49.3149 34.8375 49.4344 34.8401 49.56V52.34Z" fill="#BA54C8"/>
<path d="M44.3093 47.56H41.5293C40.9989 47.56 40.4902 47.7707 40.1151 48.1458C39.74 48.5209 39.5293 49.0296 39.5293 49.56V52.34C39.5293 52.8704 39.74 53.3791 40.1151 53.7542C40.4902 54.1293 40.9989 54.34 41.5293 54.34H44.3093C44.8397 54.34 45.3484 54.1293 45.7235 53.7542C46.0986 53.3791 46.3093 52.8704 46.3093 52.34V49.56C46.3093 49.0296 46.0986 48.5209 45.7235 48.1458C45.3484 47.7707 44.8397 47.56 44.3093 47.56ZM44.7793 52.34C44.7793 52.4646 44.7298 52.5842 44.6416 52.6723C44.5535 52.7605 44.4339 52.81 44.3093 52.81H41.5293C41.4046 52.81 41.2851 52.7605 41.197 52.6723C41.1088 52.5842 41.0593 52.4646 41.0593 52.34V49.56C41.0593 49.4353 41.1088 49.3158 41.197 49.2277C41.2851 49.1395 41.4046 49.09 41.5293 49.09H44.3093C44.4339 49.09 44.5535 49.1395 44.6416 49.2277C44.7298 49.3158 44.7793 49.4353 44.7793 49.56V52.34Z" fill="#BA54C8"/>
<path d="M54.2585 47.56H51.4785C50.9481 47.56 50.4394 47.7707 50.0643 48.1458C49.6892 48.5209 49.4785 49.0296 49.4785 49.56V52.34C49.4785 52.8704 49.6892 53.3791 50.0643 53.7542C50.4394 54.1293 50.9481 54.34 51.4785 54.34H54.2585C54.7889 54.34 55.2976 54.1293 55.6727 53.7542C56.0478 53.3791 56.2585 52.8704 56.2585 52.34V49.56C56.2585 49.0296 56.0478 48.5209 55.6727 48.1458C55.2976 47.7707 54.7889 47.56 54.2585 47.56ZM54.7285 52.34C54.7285 52.4646 54.679 52.5842 54.5909 52.6723C54.5027 52.7605 54.3832 52.81 54.2585 52.81H51.4785C51.3529 52.81 51.2323 52.7608 51.1426 52.673C51.0529 52.5851 51.0011 52.4656 50.9985 52.34V49.56C51.0011 49.4344 51.0529 49.3149 51.1426 49.227C51.2323 49.1392 51.3529 49.09 51.4785 49.09H54.2585C54.3832 49.09 54.5027 49.1395 54.5909 49.2277C54.679 49.3158 54.7285 49.4353 54.7285 49.56V52.34Z" fill="#BA54C8"/>
<path d="M64.1999 47.56H61.4199C60.8895 47.56 60.3808 47.7707 60.0057 48.1458C59.6306 48.5209 59.4199 49.0296 59.4199 49.56V52.34C59.4199 52.8704 59.6306 53.3791 60.0057 53.7542C60.3808 54.1293 60.8895 54.34 61.4199 54.34H64.1999C64.7304 54.34 65.2391 54.1293 65.6141 53.7542C65.9892 53.3791 66.1999 52.8704 66.1999 52.34V49.56C66.1999 49.0296 65.9892 48.5209 65.6141 48.1458C65.2391 47.7707 64.7304 47.56 64.1999 47.56ZM64.6699 52.34C64.6699 52.4646 64.6204 52.5842 64.5323 52.6723C64.4441 52.7605 64.3246 52.81 64.1999 52.81H61.4199C61.2953 52.81 61.1757 52.7605 61.0876 52.6723C60.9994 52.5842 60.9499 52.4646 60.9499 52.34V49.56C60.9499 49.4353 60.9994 49.3158 61.0876 49.2277C61.1757 49.1395 61.2953 49.09 61.4199 49.09H64.1999C64.3246 49.09 64.4441 49.1395 64.5323 49.2277C64.6204 49.3158 64.6699 49.4353 64.6699 49.56V52.34Z" fill="#BA54C8"/>
<path d="M74.1491 47.56H71.3691C70.8387 47.56 70.33 47.7707 69.9549 48.1458C69.5799 48.5209 69.3691 49.0296 69.3691 49.56V52.34C69.3691 52.8704 69.5799 53.3791 69.9549 53.7542C70.33 54.1293 70.8387 54.34 71.3691 54.34H74.1491C74.6796 54.34 75.1883 54.1293 75.5634 53.7542C75.9384 53.3791 76.1491 52.8704 76.1491 52.34V49.56C76.1491 49.0296 75.9384 48.5209 75.5634 48.1458C75.1883 47.7707 74.6796 47.56 74.1491 47.56ZM74.6191 52.34C74.6191 52.4646 74.5696 52.5842 74.4815 52.6723C74.3933 52.7605 74.2738 52.81 74.1491 52.81H71.3691C71.2445 52.81 71.1249 52.7605 71.0368 52.6723C70.9487 52.5842 70.8991 52.4646 70.8991 52.34V49.56C70.8991 49.4353 70.9487 49.3158 71.0368 49.2277C71.1249 49.1395 71.2445 49.09 71.3691 49.09H74.1491C74.2738 49.09 74.3933 49.1395 74.4815 49.2277C74.5696 49.3158 74.6191 49.4353 74.6191 49.56V52.34Z" fill="#BA54C8"/>
<path d="M34.3601 57H31.5801C31.0496 57 30.5409 57.2107 30.1659 57.5858C29.7908 57.9609 29.5801 58.4696 29.5801 59V61.78C29.5801 62.3104 29.7908 62.8191 30.1659 63.1942C30.5409 63.5693 31.0496 63.78 31.5801 63.78H34.3601C34.8905 63.78 35.3992 63.5693 35.7743 63.1942C36.1494 62.8191 36.3601 62.3104 36.3601 61.78V59C36.3601 58.4696 36.1494 57.9609 35.7743 57.5858C35.3992 57.2107 34.8905 57 34.3601 57ZM34.8401 61.78C34.8375 61.9056 34.7857 62.0251 34.696 62.113C34.6063 62.2008 34.4857 62.25 34.3601 62.25H31.5801C31.4554 62.25 31.3359 62.2005 31.2477 62.1123C31.1596 62.0242 31.1101 61.9047 31.1101 61.78V59C31.1101 58.8753 31.1596 58.7558 31.2477 58.6677C31.3359 58.5795 31.4554 58.53 31.5801 58.53H34.3601C34.4857 58.53 34.6063 58.5792 34.696 58.667C34.7857 58.7549 34.8375 58.8744 34.8401 59V61.78Z" fill="#BA54C8"/>
<path d="M44.3093 57H41.5293C40.9989 57 40.4902 57.2107 40.1151 57.5858C39.74 57.9609 39.5293 58.4696 39.5293 59V61.78C39.5293 62.3104 39.74 62.8191 40.1151 63.1942C40.4902 63.5693 40.9989 63.78 41.5293 63.78H44.3093C44.8397 63.78 45.3484 63.5693 45.7235 63.1942C46.0986 62.8191 46.3093 62.3104 46.3093 61.78V59C46.3093 58.4696 46.0986 57.9609 45.7235 57.5858C45.3484 57.2107 44.8397 57 44.3093 57ZM44.7793 61.78C44.7793 61.9047 44.7298 62.0242 44.6416 62.1123C44.5535 62.2005 44.4339 62.25 44.3093 62.25H41.5293C41.4046 62.25 41.2851 62.2005 41.197 62.1123C41.1088 62.0242 41.0593 61.9047 41.0593 61.78V59C41.0593 58.8753 41.1088 58.7558 41.197 58.6677C41.2851 58.5795 41.4046 58.53 41.5293 58.53H44.3093C44.4339 58.53 44.5535 58.5795 44.6416 58.6677C44.7298 58.7558 44.7793 58.8753 44.7793 59V61.78Z" fill="#BA54C8"/>
<path d="M54.2585 57H51.4785C50.9481 57 50.4394 57.2107 50.0643 57.5858C49.6892 57.9609 49.4785 58.4696 49.4785 59V61.78C49.4785 62.3104 49.6892 62.8191 50.0643 63.1942C50.4394 63.5693 50.9481 63.78 51.4785 63.78H54.2585C54.7889 63.78 55.2976 63.5693 55.6727 63.1942C56.0478 62.8191 56.2585 62.3104 56.2585 61.78V59C56.2585 58.4696 56.0478 57.9609 55.6727 57.5858C55.2976 57.2107 54.7889 57 54.2585 57ZM54.7285 61.78C54.7285 61.9047 54.679 62.0242 54.5909 62.1123C54.5027 62.2005 54.3832 62.25 54.2585 62.25H51.4785C51.3529 62.25 51.2323 62.2008 51.1426 62.113C51.0529 62.0251 51.0011 61.9056 50.9985 61.78V59C51.0011 58.8744 51.0529 58.7549 51.1426 58.667C51.2323 58.5792 51.3529 58.53 51.4785 58.53H54.2585C54.3832 58.53 54.5027 58.5795 54.5909 58.6677C54.679 58.7558 54.7285 58.8753 54.7285 59V61.78Z" fill="#BA54C8"/>
<path d="M34.3601 66.51H31.5801C31.0496 66.51 30.5409 66.7207 30.1659 67.0958C29.7908 67.4709 29.5801 67.9796 29.5801 68.51V71.3C29.5801 71.8304 29.7908 72.3391 30.1659 72.7142C30.5409 73.0893 31.0496 73.3 31.5801 73.3H34.3601C34.8905 73.3 35.3992 73.0893 35.7743 72.7142C36.1494 72.3391 36.3601 71.8304 36.3601 71.3V68.51C36.3601 67.9796 36.1494 67.4709 35.7743 67.0958C35.3992 66.7207 34.8905 66.51 34.3601 66.51ZM34.8401 71.3C34.8375 71.4256 34.7857 71.5451 34.696 71.633C34.6063 71.7208 34.4857 71.77 34.3601 71.77H31.5801C31.4562 71.7674 31.3382 71.7171 31.2506 71.6295C31.163 71.5419 31.1126 71.4239 31.1101 71.3V68.51C31.1101 68.3854 31.1596 68.2658 31.2477 68.1777C31.3359 68.0895 31.4554 68.04 31.5801 68.04H34.3601C34.4857 68.04 34.6063 68.0892 34.696 68.177C34.7857 68.2649 34.8375 68.3844 34.8401 68.51V71.3Z" fill="#BA54C8"/>
<path d="M44.3093 66.51H41.5293C40.9989 66.51 40.4902 66.7207 40.1151 67.0958C39.74 67.4709 39.5293 67.9796 39.5293 68.51V71.3C39.5293 71.8304 39.74 72.3391 40.1151 72.7142C40.4902 73.0893 40.9989 73.3 41.5293 73.3H44.3093C44.8397 73.3 45.3484 73.0893 45.7235 72.7142C46.0986 72.3391 46.3093 71.8304 46.3093 71.3V68.51C46.3093 67.9796 46.0986 67.4709 45.7235 67.0958C45.3484 66.7207 44.8397 66.51 44.3093 66.51ZM44.7793 71.3C44.7767 71.4239 44.7264 71.5419 44.6388 71.6295C44.5512 71.7171 44.4331 71.7674 44.3093 71.77H41.5293C41.4054 71.7674 41.2874 71.7171 41.1998 71.6295C41.1122 71.5419 41.0619 71.4239 41.0593 71.3V68.51C41.0593 68.3854 41.1088 68.2658 41.197 68.1777C41.2851 68.0895 41.4046 68.04 41.5293 68.04H44.3093C44.4339 68.04 44.5535 68.0895 44.6416 68.1777C44.7298 68.2658 44.7793 68.3854 44.7793 68.51V71.3Z" fill="#BA54C8"/>

</svg>
