<svg width="112" height="112" viewBox="0 0 112 112" fill="none" xmlns="http://www.w3.org/2000/svg">
<path d="M83.2999 36.37H35.8199C35.6652 36.3894 35.523 36.4647 35.4198 36.5816C35.3167 36.6985 35.2598 36.8491 35.2598 37.005C35.2598 37.1609 35.3167 37.3115 35.4198 37.4284C35.523 37.5453 35.6652 37.6205 35.8199 37.64H83.2999C83.4546 37.6205 83.5969 37.5453 83.7 37.4284C83.8032 37.3115 83.8601 37.1609 83.8601 37.005C83.8601 36.8491 83.8032 36.6985 83.7 36.5816C83.5969 36.4647 83.4546 36.3894 83.2999 36.37Z" fill="#BA54C8"/>
<path d="M31.7388 36.37H29.4488C29.2941 36.3894 29.1519 36.4647 29.0487 36.5816C28.9456 36.6985 28.8887 36.8491 28.8887 37.005C28.8887 37.1609 28.9456 37.3115 29.0487 37.4284C29.1519 37.5453 29.2941 37.6205 29.4488 37.64H31.7388C31.8289 37.6513 31.9204 37.6433 32.0071 37.6166C32.0939 37.5899 32.174 37.545 32.2421 37.4849C32.3101 37.4249 32.3647 37.351 32.402 37.2683C32.4394 37.1855 32.4587 37.0958 32.4587 37.005C32.4587 36.9142 32.4394 36.8245 32.402 36.7417C32.3647 36.659 32.3101 36.5851 32.2421 36.525C32.174 36.465 32.0939 36.4201 32.0071 36.3934C31.9204 36.3666 31.8289 36.3587 31.7388 36.37Z" fill="#BA54C8"/>
<path d="M88.1385 65.31C88.4374 65.3074 88.7233 65.1875 88.9347 64.9762C89.146 64.7648 89.2659 64.4789 89.2685 64.18V35.25C89.2685 34.0698 88.7997 32.938 87.9651 32.1034C87.1306 31.2689 85.9987 30.8 84.8185 30.8H27.9285C26.7483 30.8 25.6164 31.2689 24.7819 32.1034C23.9474 32.938 23.4785 34.0698 23.4785 35.25V77.5C23.4812 78.6794 23.9508 79.8098 24.7848 80.6438C25.6188 81.4777 26.7491 81.9474 27.9285 81.95H84.8185C85.9979 81.9474 87.1283 81.4777 87.9622 80.6438C88.7962 79.8098 89.2659 78.6794 89.2685 77.5V72.24C89.2421 71.96 89.1121 71.6998 88.9041 71.5105C88.696 71.3212 88.4248 71.2162 88.1435 71.2162C87.8622 71.2162 87.591 71.3212 87.3829 71.5105C87.1749 71.6998 87.045 71.96 87.0185 72.24V77.5C87.0159 78.0818 86.7829 78.6388 86.3706 79.0492C85.9583 79.4596 85.4003 79.6901 84.8185 79.69H27.9285C27.3477 79.69 26.7907 79.4593 26.38 79.0486C25.9692 78.6379 25.7385 78.0809 25.7385 77.5V35.25C25.7385 34.6683 25.9689 34.1102 26.3793 33.6979C26.7898 33.2856 27.3468 33.0527 27.9285 33.05H84.8185C85.4012 33.0527 85.9592 33.2853 86.3712 33.6973C86.7832 34.1093 87.0159 34.6674 87.0185 35.25V40.25H29.8185C29.6037 40.25 29.3977 40.3354 29.2458 40.4873C29.0939 40.6392 29.0085 40.8452 29.0085 41.06C29.0085 41.2749 29.0939 41.4809 29.2458 41.6328C29.3977 41.7847 29.6037 41.87 29.8185 41.87H86.9985V64.19C86.9998 64.3384 87.0303 64.4851 87.0883 64.6217C87.1463 64.7583 87.2307 64.8822 87.3365 64.9862C87.4424 65.0902 87.5677 65.1723 87.7053 65.2279C87.8429 65.2834 87.9901 65.3114 88.1385 65.31Z" fill="#BA54C8"/>
<path d="M68.999 66.34H61.339C63.1812 65.391 64.7312 63.9595 65.8231 62.1982C66.9151 60.4369 67.5082 58.4121 67.539 56.34C67.5424 54.4875 67.0875 52.663 66.2149 51.029C65.3422 49.3949 64.0788 48.0021 62.5374 46.9747C60.9959 45.9473 59.2243 45.3172 57.3802 45.1404C55.5362 44.9637 53.6771 45.2459 51.9686 45.9619C50.2601 46.6779 48.7552 47.8054 47.5881 49.244C46.421 50.6826 45.6279 52.3875 45.2794 54.207C44.931 56.0264 45.0381 57.9037 45.5911 59.6717C46.1441 61.4397 47.1259 63.0434 48.449 64.34L48.679 64.57C49.4213 65.2572 50.252 65.8424 51.149 66.31H43.879C42.6404 66.31 41.4526 66.802 40.5768 67.6778C39.701 68.5536 39.209 69.7415 39.209 70.98C39.209 72.2186 39.701 73.4064 40.5768 74.2822C41.4526 75.158 42.6404 75.65 43.879 75.65H68.999C70.2375 75.65 71.4254 75.158 72.3012 74.2822C73.177 73.4064 73.669 72.2186 73.669 70.98C73.669 69.7415 73.177 68.5536 72.3012 67.6778C71.4254 66.802 70.2375 66.31 68.999 66.31V66.34ZM48.559 62.76L48.079 62.06C47.0431 60.5591 46.4373 58.8035 46.3272 56.9832C46.2171 55.1628 46.607 53.347 47.4545 51.7323C48.302 50.1175 49.575 48.7652 51.1357 47.8218C52.6963 46.8783 54.4853 46.3796 56.309 46.3796C58.1327 46.3796 59.9216 46.8783 61.4823 47.8218C63.043 48.7652 64.3159 50.1175 65.1635 51.7323C66.011 53.347 66.4008 55.1628 66.2907 56.9832C66.1807 58.8035 65.5749 60.5591 64.539 62.06L64.059 62.76L63.729 61.98C63.4178 61.2558 62.9537 60.6075 62.3686 60.0793C61.7835 59.5512 61.0911 59.1557 60.339 58.92L59.819 58.76L60.069 58.27C60.3944 57.6282 60.5498 56.9137 60.5205 56.1946C60.4911 55.4756 60.278 54.7762 59.9014 54.163C59.5248 53.5498 58.9973 53.0434 58.3692 52.6921C57.7412 52.3408 57.0336 52.1563 56.314 52.1563C55.5944 52.1563 54.8868 52.3408 54.2588 52.6921C53.6307 53.0434 53.1032 53.5498 52.7266 54.163C52.35 54.7762 52.1368 55.4756 52.1075 56.1946C52.0781 56.9137 52.2336 57.6282 52.559 58.27L52.809 58.76L52.279 58.92C51.5277 59.1575 50.8362 59.5536 50.2514 60.0815C49.6665 60.6095 49.2019 61.2569 48.889 61.98L48.559 62.76ZM50.279 63.07C50.5198 62.2743 51.013 61.5786 51.6841 61.0879C52.3552 60.5972 53.1677 60.3382 53.999 60.35H54.229C54.4528 60.3493 54.6705 60.2772 54.8504 60.1441C55.0303 60.0109 55.1629 59.8238 55.229 59.61C55.3006 59.3955 55.3024 59.1638 55.2341 58.9482C55.1658 58.7326 55.031 58.5442 54.849 58.41L54.569 58.21L54.349 57.94C54.0925 57.6104 53.9202 57.2232 53.847 56.812C53.7738 56.4008 53.8019 55.9779 53.929 55.58C54.0534 55.2015 54.2654 54.8578 54.5478 54.5768C54.8302 54.2957 55.175 54.0854 55.5541 53.9628C55.9331 53.8402 56.3358 53.8089 56.7293 53.8714C57.1227 53.9339 57.4959 54.0884 57.8184 54.3224C58.1408 54.5564 58.4034 54.8632 58.5849 55.2179C58.7663 55.5726 58.8614 55.9651 58.8624 56.3635C58.8635 56.7619 58.7704 57.1549 58.5908 57.5105C58.4113 57.8662 58.1502 58.1744 57.829 58.41C57.647 58.5442 57.5121 58.7326 57.4439 58.9482C57.3756 59.1638 57.3774 59.3955 57.449 59.61C57.5151 59.8238 57.6477 60.0109 57.8276 60.1441C58.0075 60.2772 58.2252 60.3493 58.449 60.35H58.699C59.5196 60.354 60.3172 60.6215 60.9743 61.1129C61.6314 61.6044 62.1133 62.294 62.349 63.08L62.519 63.62C60.8003 65.1169 58.5981 65.9415 56.319 65.9415C54.0398 65.9415 51.8377 65.1169 50.119 63.62L50.279 63.07ZM68.999 74.33H43.919C43.0385 74.33 42.194 73.9802 41.5714 73.3576C40.9488 72.735 40.599 71.8905 40.599 71.01C40.599 70.1295 40.9488 69.285 41.5714 68.6624C42.194 68.0398 43.0385 67.69 43.919 67.69H68.999C69.8795 67.69 70.724 68.0398 71.3466 68.6624C71.9692 69.285 72.319 70.1295 72.319 71.01C72.319 71.8905 71.9692 72.735 71.3466 73.3576C70.724 73.9802 69.8795 74.33 68.999 74.33Z" fill="#BA54C8"/>

</svg>
