<svg width="147" height="147" viewBox="0 0 147 147" fill="none" xmlns="http://www.w3.org/2000/svg">
<path d="M73.591 122.43C100.543 122.43 122.391 100.581 122.391 73.63C122.391 46.6785 100.543 24.83 73.591 24.83C46.6395 24.83 24.791 46.6785 24.791 73.63C24.791 100.581 46.6395 122.43 73.591 122.43Z" fill="url(#paint0_linear)"/>
<path d="M73.5897 129.54C104.468 129.54 129.5 104.508 129.5 73.63C129.5 42.7517 104.468 17.72 73.5897 17.72C42.7114 17.72 17.6797 42.7517 17.6797 73.63C17.6797 104.508 42.7114 129.54 73.5897 129.54Z" stroke="url(#paint1_linear)" stroke-width="2" stroke-miterlimit="10"/>
<path opacity="0.67" d="M73.5898 137.13C108.66 137.13 137.09 108.7 137.09 73.63C137.09 38.5599 108.66 10.13 73.5898 10.13C38.5198 10.13 10.0898 38.5599 10.0898 73.63C10.0898 108.7 38.5198 137.13 73.5898 137.13Z" stroke="url(#paint2_linear)" stroke-width="2" stroke-miterlimit="10"/>
<path opacity="0.12" d="M73.5901 145.39C113.222 145.39 145.35 113.262 145.35 73.63C145.35 33.998 113.222 1.87 73.5901 1.87C33.9581 1.87 1.83008 33.998 1.83008 73.63C1.83008 113.262 33.9581 145.39 73.5901 145.39Z" stroke="url(#paint3_linear)" stroke-width="2" stroke-miterlimit="10"/>
<path d="M73.5007 86.59C73.1068 86.2926 72.6554 86.0804 72.1751 85.9668C71.6948 85.8531 71.1961 85.8406 70.7107 85.93H70.5407V85.75C70.3912 84.8591 69.9086 84.0584 69.1907 83.51C68.821 83.2284 68.3989 83.0232 67.9491 82.9065C67.4993 82.7897 67.0307 82.7638 66.5707 82.83C66.3428 82.8621 66.1185 82.9156 65.9007 82.99L65.7207 83.05V82.87C65.514 82.1431 65.075 81.5039 64.4707 81.05C63.9765 80.6818 63.3959 80.4469 62.7846 80.3681C62.1734 80.2893 61.5521 80.3692 60.9807 80.6L60.8107 80.67L60.7507 80.5C60.5322 79.8195 60.1055 79.2248 59.5307 78.8C58.8556 78.2911 58.0208 78.0406 57.177 78.0938C56.3333 78.147 55.5365 78.5004 54.9307 79.09L54.8807 79.14L50.7207 78.86L53.1507 59.14L57.5907 59.44C57.7639 59.4528 57.9371 59.4141 58.0884 59.3287C58.2396 59.2433 58.3622 59.115 58.4407 58.96L60.0007 55.87C60.2255 55.4584 60.5833 55.1352 61.0157 54.9536C61.4481 54.7719 61.9294 54.7424 62.3807 54.87L62.8207 54.97C62.9334 55.0046 63.0521 55.0153 63.1691 55.0015C63.2862 54.9877 63.3991 54.9498 63.5007 54.89C63.698 54.7675 63.8465 54.5801 63.9207 54.36C63.9824 54.132 63.952 53.8888 63.836 53.683C63.72 53.4773 63.5277 53.3253 63.3007 53.26L62.8607 53.15C62.0035 52.9226 61.0941 52.9973 60.2855 53.3615C59.4769 53.7258 58.8184 54.3573 58.4207 55.15L57.0907 57.75L53.3307 57.5L53.4307 56.65C53.5495 55.673 53.2762 54.6888 52.6708 53.9128C52.0655 53.1369 51.1772 52.6325 50.2007 52.51L42.0107 51.51C41.8937 51.4947 41.7748 51.5027 41.6609 51.5337C41.547 51.5647 41.4405 51.6181 41.3474 51.6907C41.2544 51.7633 41.1767 51.8536 41.1189 51.9565C41.061 52.0594 41.0243 52.1728 41.0107 52.29C40.9939 52.4065 41.0006 52.5251 41.0304 52.639C41.0603 52.7528 41.1126 52.8595 41.1844 52.9527C41.2562 53.046 41.346 53.1238 41.4484 53.1818C41.5508 53.2397 41.6638 53.2765 41.7807 53.29L49.9707 54.29C50.2238 54.3185 50.4686 54.3978 50.6903 54.5233C50.9119 54.6487 51.106 54.8177 51.2607 55.02C51.4177 55.2186 51.5339 55.4464 51.6025 55.6901C51.6712 55.9338 51.691 56.1887 51.6607 56.44L48.8107 79.2C48.7481 79.7085 48.4869 80.1716 48.0841 80.4883C47.6813 80.8049 47.1696 80.9493 46.6607 80.89L38.4607 79.89C38.3442 79.8732 38.2256 79.8799 38.1118 79.9097C37.9979 79.9396 37.8912 79.9919 37.798 80.0637C37.7048 80.1355 37.6269 80.2253 37.569 80.3277C37.511 80.4301 37.4742 80.5431 37.4607 80.66C37.4453 80.777 37.4534 80.8959 37.4844 81.0098C37.5154 81.1237 37.5688 81.2303 37.6414 81.3233C37.7139 81.4164 37.8043 81.4941 37.9072 81.5519C38.0101 81.6097 38.1235 81.6464 38.2407 81.66L46.4307 82.66C47.1684 82.7528 47.9169 82.6211 48.5787 82.2822C49.2405 81.9432 49.7848 81.4128 50.1407 80.76L50.1907 80.67L53.4807 80.89L53.3507 81.12C53.0533 81.6969 52.9208 82.3446 52.9676 82.9919C53.0143 83.6392 53.2387 84.2611 53.6159 84.7892C53.9931 85.3173 54.5086 85.7312 55.1058 85.9854C55.7029 86.2396 56.3586 86.3242 57.0007 86.23H57.1807V86.4C57.2921 87.2502 57.7084 88.0311 58.3521 88.5976C58.9958 89.164 59.8232 89.4776 60.6807 89.48C60.8539 89.4899 61.0275 89.4899 61.2007 89.48H61.3807V89.66C61.4392 90.1265 61.5906 90.5766 61.8259 90.9837C62.0612 91.3907 62.3756 91.7465 62.7507 92.03C63.124 92.3153 63.5514 92.5218 64.007 92.6369C64.4625 92.7521 64.9366 92.7736 65.4007 92.7H65.5807V92.88C65.6713 93.5901 65.975 94.256 66.4518 94.7899C66.9286 95.3238 67.556 95.7006 68.2513 95.8707C68.9466 96.0407 69.6772 95.996 70.3465 95.7423C71.0159 95.4887 71.5927 95.0381 72.0007 94.45L74.2007 91.54C74.488 91.1685 74.6984 90.7435 74.8199 90.2899C74.9413 89.8362 74.9712 89.3629 74.9079 88.8976C74.8446 88.4323 74.6894 87.9842 74.4512 87.5794C74.2131 87.1747 73.8968 86.8213 73.5207 86.54L73.5007 86.59ZM57.9107 83.79C57.6271 84.1588 57.211 84.4027 56.7507 84.47H56.5107C56.184 84.4714 55.8634 84.3814 55.5853 84.21C55.3071 84.0387 55.0825 83.7929 54.9368 83.5004C54.7911 83.208 54.7302 82.8806 54.7609 82.5554C54.7916 82.2301 54.9128 81.92 55.1107 81.66L55.9207 80.59C56.0581 80.4042 56.2317 80.2481 56.4311 80.1312C56.6304 80.0144 56.8514 79.9391 57.0807 79.91C57.3091 79.8771 57.5418 79.8903 57.7651 79.9486C57.9883 80.007 58.1976 80.1095 58.3807 80.25C58.752 80.5315 58.9965 80.9486 59.0607 81.41C59.1205 81.8711 58.9986 82.3373 58.7207 82.71L57.9107 83.79ZM62.1307 87C61.9925 87.1851 61.8187 87.3405 61.6195 87.4573C61.4202 87.5741 61.1997 87.6498 60.9707 87.68H60.7207C60.3947 87.6773 60.0759 87.584 59.7998 87.4106C59.5237 87.2373 59.3011 86.9906 59.157 86.6982C59.0129 86.4058 58.9528 86.0791 58.9835 85.7545C59.0141 85.4299 59.1343 85.1203 59.3307 84.86L60.8507 82.86C61.0158 82.6425 61.229 82.4661 61.4736 82.3446C61.7182 82.2232 61.9876 82.16 62.2607 82.16C62.6236 82.1721 62.9734 82.2981 63.2607 82.52C63.4519 82.6551 63.6141 82.8271 63.7376 83.0259C63.8611 83.2248 63.9435 83.4464 63.9799 83.6776C64.0162 83.9088 64.0059 84.145 63.9493 84.3722C63.8928 84.5993 63.7912 84.8128 63.6507 85L62.1307 87ZM66.3507 90.2C66.0657 90.5672 65.6503 90.8107 65.1907 90.88H64.9407C64.5182 90.8813 64.1096 90.7288 63.7912 90.4509C63.4729 90.1731 63.2666 89.7889 63.2107 89.37C63.1749 89.1416 63.1866 88.9082 63.2451 88.6845C63.3036 88.4609 63.4076 88.2517 63.5507 88.07L65.6307 85.32C65.9105 84.9518 66.3233 84.7078 66.7807 84.64C67.245 84.5786 67.7149 84.7006 68.0907 84.98C68.2745 85.1195 68.4288 85.2939 68.5449 85.4932C68.661 85.6925 68.7366 85.9128 68.7673 86.1414C68.7979 86.37 68.7831 86.6024 68.7236 86.8253C68.6642 87.0482 68.5612 87.2571 68.4207 87.44L66.3507 90.2ZM72.7607 90.49L70.5607 93.39C70.4242 93.5767 70.2508 93.7334 70.0512 93.8504C69.8517 93.9673 69.6303 94.0421 69.4007 94.07H69.1607C68.7779 94.0671 68.4061 93.9409 68.1007 93.71C67.9162 93.5713 67.761 93.3975 67.6439 93.1985C67.5269 92.9996 67.4503 92.7794 67.4187 92.5508C67.3871 92.3221 67.4011 92.0895 67.4598 91.8662C67.5185 91.643 67.6207 91.4336 67.7607 91.25L69.9607 88.35C70.0989 88.165 70.2727 88.0095 70.4719 87.8927C70.6712 87.7759 70.8918 87.7002 71.1207 87.67C71.3491 87.6342 71.5825 87.6459 71.8062 87.7044C72.0299 87.7629 72.2391 87.8669 72.4207 88.01C72.6063 88.1479 72.7626 88.3213 72.8804 88.5203C72.9982 88.7192 73.0752 88.9397 73.1069 89.1687C73.1385 89.3977 73.1242 89.6308 73.0648 89.8542C73.0053 90.0776 72.902 90.287 72.7607 90.47V90.49Z" fill="white"/>
<path d="M108.711 79.88L100.521 80.88C100.01 80.9422 99.4958 80.7991 99.0907 80.4822C98.6857 80.1653 98.4231 79.7005 98.3606 79.19L95.5506 56.33C95.4952 55.8243 95.6347 55.3166 95.9406 54.91C96.0961 54.7086 96.2903 54.5402 96.5119 54.4148C96.7334 54.2894 96.9777 54.2096 97.2306 54.18L105.431 53.18C105.664 53.1484 105.876 53.0263 106.021 52.84C106.093 52.7497 106.147 52.6455 106.178 52.5337C106.209 52.4219 106.216 52.3049 106.201 52.19C106.187 52.0728 106.15 51.9594 106.092 51.8565C106.035 51.7537 105.957 51.6633 105.864 51.5907C105.771 51.5181 105.664 51.4648 105.55 51.4337C105.436 51.4027 105.318 51.3947 105.201 51.41L97.0106 52.41C96.0934 52.5195 95.2504 52.968 94.6471 53.6675C94.0439 54.367 93.7241 55.2668 93.7506 56.19V56.35L91.4706 56.63L85.0006 53C84.1282 52.5095 83.127 52.2967 82.1306 52.39L71.5506 53.39C70.7695 53.4635 70.0173 53.7223 69.3564 54.145C68.6954 54.5676 68.1449 55.1419 67.7506 55.82L60.3206 68.64C60.1265 68.9746 60.008 69.3476 59.9735 69.7329C59.9389 70.1181 59.9891 70.5063 60.1206 70.87C60.2476 71.2363 60.4543 71.5697 60.7258 71.8464C60.9973 72.1231 61.3268 72.3361 61.6906 72.47L61.9906 72.59C62.8479 72.9106 63.7553 73.0765 64.6706 73.08C65.8257 73.0762 66.9641 72.803 67.9952 72.2822C69.0263 71.7615 69.9218 71.0074 70.6106 70.08L72.8506 67.17L72.9906 67.29C74.6348 68.7447 76.6958 69.644 78.8806 69.86H78.9406L92.8306 81.86C92.9777 81.9831 93.0973 82.1358 93.1818 82.308C93.2662 82.4803 93.3134 82.6683 93.3206 82.86C93.3411 83.2248 93.2192 83.5834 92.9806 83.86L92.4406 84.49C92.0815 84.9022 91.574 85.1555 91.0288 85.1949C90.4837 85.2342 89.9451 85.0563 89.5306 84.7L89.4106 84.62L85.7906 81.49C85.6115 81.3349 85.3782 81.2572 85.1419 81.2741C84.9056 81.291 84.6857 81.401 84.5306 81.58C84.3754 81.7591 84.2977 81.9924 84.3146 82.2287C84.3315 82.465 84.4415 82.6849 84.6206 82.84L87.6806 85.48L86.2306 87.16C86.0591 87.3716 85.8463 87.5459 85.6051 87.6723C85.3639 87.7987 85.0995 87.8745 84.828 87.8951C84.5565 87.9157 84.2836 87.8807 84.0261 87.7921C83.7686 87.7035 83.5319 87.5633 83.3306 87.38L80.0006 84.53C79.8224 84.3772 79.5912 84.3009 79.357 84.3177C79.1229 84.3346 78.9049 84.4432 78.7506 84.62C78.5943 84.7992 78.5152 85.0328 78.5306 85.27C78.5402 85.3855 78.5725 85.498 78.6257 85.601C78.6789 85.7039 78.7519 85.7954 78.8406 85.87L81.5306 88.19L80.2506 89.72C79.9306 90.1 79.8206 90.2 79.1906 90.13H79.0906C78.8915 90.1322 78.6985 90.1989 78.5406 90.32C78.447 90.3917 78.3693 90.482 78.3125 90.5853C78.2557 90.6886 78.221 90.8026 78.2106 90.92C78.1952 91.0371 78.2032 91.156 78.2343 91.2698C78.2653 91.3837 78.3186 91.4903 78.3912 91.5833C78.4638 91.6764 78.5542 91.7541 78.6571 91.8119C78.76 91.8697 78.8733 91.9065 78.9906 91.92H79.4406C80.5706 91.92 80.6906 91.92 81.4406 91.05L82.9606 89.28L83.0806 89.34C83.4599 89.5167 83.865 89.6315 84.2806 89.68C84.9051 89.7544 85.5384 89.6737 86.1244 89.4453C86.7104 89.2168 87.2311 88.8475 87.6406 88.37L89.1706 86.6L89.2906 86.66C90.0552 87.0158 90.9156 87.1107 91.7394 86.93C92.5632 86.7494 93.3049 86.3032 93.8506 85.66L94.3906 85.03C94.939 84.3906 95.2122 83.5602 95.1506 82.72C95.1112 82.3047 94.9891 81.9014 94.7917 81.5339C94.5942 81.1664 94.3252 80.8421 94.0006 80.58L92.7806 79.52H96.5806V79.66C96.7541 80.5878 97.2748 81.4146 98.0365 81.9719C98.7982 82.5293 99.7438 82.7754 100.681 82.66L108.871 81.66C108.994 81.6551 109.114 81.6247 109.225 81.5706C109.336 81.5166 109.434 81.4402 109.514 81.3462C109.593 81.2523 109.653 81.1428 109.688 81.0247C109.723 80.9067 109.733 80.7826 109.718 80.6604C109.703 80.5381 109.662 80.4204 109.599 80.3146C109.536 80.2089 109.452 80.1173 109.351 80.0459C109.251 79.9744 109.137 79.9245 109.016 79.8994C108.896 79.8743 108.771 79.8745 108.651 79.9L108.711 79.88ZM92.3706 77.74C92.1568 77.7396 91.9503 77.8179 91.7906 77.96L91.3706 78.28L91.2606 78.19L81.4106 69.7L81.7206 69.61C84.186 68.7706 86.3356 67.1968 87.8806 65.1C88.0287 64.9169 88.0983 64.6825 88.0739 64.4482C88.0495 64.2139 87.9333 63.9988 87.7506 63.85C87.661 63.7755 87.5571 63.7202 87.4453 63.6875C87.3335 63.6548 87.2161 63.6455 87.1006 63.66C86.9838 63.6686 86.8701 63.7015 86.7667 63.7566C86.6634 63.8117 86.5727 63.8878 86.5006 63.98C84.2806 66.71 81.9306 68.11 79.5006 68.15C76.0206 68.23 73.4306 65.32 73.4106 65.3C73.3264 65.1945 73.2177 65.1111 73.094 65.0571C72.9702 65.0031 72.8352 64.9801 72.7006 64.99C72.5703 64.9916 72.4421 65.023 72.326 65.082C72.2098 65.141 72.1087 65.2258 72.0306 65.33L69.2006 69.05C68.4527 70.0304 67.4076 70.7424 66.2216 71.0794C65.0355 71.4165 63.7722 71.3606 62.6206 70.92L62.3106 70.81C62.1912 70.7638 62.083 70.6926 61.9934 70.6012C61.9037 70.5098 61.8345 70.4003 61.7906 70.28C61.7468 70.1592 61.7305 70.0301 61.7426 69.9022C61.7547 69.7742 61.795 69.6506 61.8606 69.54L69.3206 56.7C69.5755 56.2691 69.9284 55.9042 70.3505 55.635C70.7727 55.3657 71.2523 55.1996 71.7506 55.15L82.3306 54.15C82.966 54.0917 83.6041 54.2277 84.1606 54.54L90.7906 58.28C90.9702 58.399 91.187 58.4488 91.4006 58.42L94.0006 58.13L96.4106 77.74H92.3706Z" fill="white"/>
<path d="M103.08 73.13C102.498 73.1399 101.932 73.3215 101.454 73.652C100.975 73.9825 100.605 74.4472 100.389 74.9876C100.174 75.5281 100.123 76.1201 100.243 76.6892C100.364 77.2584 100.649 77.7793 101.065 78.1865C101.48 78.5937 102.007 78.8689 102.578 78.9776C103.15 79.0863 103.741 79.0236 104.277 78.7974C104.813 78.5712 105.27 78.1916 105.591 77.7063C105.911 77.221 106.082 76.6517 106.08 76.07C106.064 75.2848 105.741 74.5371 105.18 73.9874C104.619 73.4377 103.865 73.1298 103.08 73.13ZM103.08 77.24C102.848 77.24 102.622 77.1714 102.43 77.0428C102.237 76.9143 102.087 76.7315 101.999 76.5177C101.91 76.304 101.887 76.0687 101.932 75.8418C101.977 75.6148 102.089 75.4063 102.252 75.2427C102.416 75.0791 102.624 74.9676 102.851 74.9225C103.078 74.8773 103.314 74.9005 103.527 74.9891C103.741 75.0776 103.924 75.2276 104.052 75.42C104.181 75.6124 104.25 75.8386 104.25 76.07C104.25 76.3803 104.126 76.6779 103.907 76.8973C103.688 77.1167 103.39 77.24 103.08 77.24Z" fill="white"/>
<path d="M43.9996 73.13C43.4179 73.1399 42.8522 73.3215 42.3735 73.652C41.8948 73.9825 41.5245 74.4472 41.3091 74.9876C41.0938 75.5281 41.0431 76.1201 41.1633 76.6892C41.2835 77.2584 41.5693 77.7793 41.9848 78.1865C42.4003 78.5937 42.9269 78.8689 43.4984 78.9776C44.0699 79.0863 44.6607 79.0236 45.1967 78.7974C45.7326 78.5712 46.1898 78.1916 46.5105 77.7063C46.8313 77.221 47.0015 76.6517 46.9996 76.07C46.9997 75.6788 46.9217 75.2916 46.7702 74.9309C46.6187 74.5702 46.3968 74.2434 46.1174 73.9696C45.838 73.6958 45.5068 73.4805 45.1431 73.3363C44.7795 73.1922 44.3907 73.122 43.9996 73.13ZM43.9996 77.24C43.7682 77.24 43.542 77.1714 43.3496 77.0428C43.1572 76.9143 43.0072 76.7315 42.9187 76.5177C42.8301 76.304 42.8069 76.0687 42.8521 75.8418C42.8972 75.6148 43.0087 75.4063 43.1723 75.2427C43.3359 75.0791 43.5444 74.9676 43.7713 74.9225C43.9983 74.8773 44.2335 74.9005 44.4473 74.9891C44.6611 75.0776 44.8439 75.2276 44.9724 75.42C45.101 75.6124 45.1696 75.8386 45.1696 76.07C45.1709 76.224 45.1416 76.3768 45.0833 76.5193C45.0249 76.6619 44.9388 76.7914 44.8299 76.9003C44.721 77.0092 44.5915 77.0953 44.4489 77.1537C44.3064 77.212 44.1536 77.2413 43.9996 77.24Z" fill="white"/>
<defs>
<linearGradient id="paint0_linear" x1="17.8082" y1="112.773" x2="137.194" y2="28.9919" gradientUnits="userSpaceOnUse">
<stop stop-color="#FF5350"/>
<stop offset="0.17" stop-color="#FE5354"/>
<stop offset="0.36" stop-color="#F95361"/>
<stop offset="0.54" stop-color="#F25375"/>
<stop offset="0.73" stop-color="#E85392"/>
<stop offset="0.91" stop-color="#DB53B7"/>
<stop offset="1" stop-color="#D453CC"/>
</linearGradient>
<linearGradient class="a" id="paint1_linear" x1="2441.94" y1="9369.23" x2="15168.2" y2="9369.23" gradientUnits="userSpaceOnUse">
<stop stop-color="#FF5350"/>
<stop offset="0.17" stop-color="#FE5354"/>
<stop offset="0.36" stop-color="#F95361"/>
<stop offset="0.54" stop-color="#F25375"/>
<stop offset="0.73" stop-color="#E85392"/>
<stop offset="0.91" stop-color="#DB53B7"/>
<stop offset="1" stop-color="#D453CC"/>
</linearGradient>
<linearGradient class="b" id="paint2_linear" x1="1799.52" y1="10631.1" x2="18182.5" y2="10631.1" gradientUnits="userSpaceOnUse">
<stop stop-color="#FF5350"/>
<stop offset="0.17" stop-color="#FE5354"/>
<stop offset="0.36" stop-color="#F95361"/>
<stop offset="0.54" stop-color="#F25375"/>
<stop offset="0.73" stop-color="#E85392"/>
<stop offset="0.91" stop-color="#DB53B7"/>
<stop offset="1" stop-color="#D453CC"/>
</linearGradient>
<linearGradient class="c" id="paint3_linear" x1="838.552" y1="12004.4" x2="21723.6" y2="12004.4" gradientUnits="userSpaceOnUse">
<stop stop-color="#FF5350"/>
<stop offset="0.17" stop-color="#FE5354"/>
<stop offset="0.36" stop-color="#F95361"/>
<stop offset="0.54" stop-color="#F25375"/>
<stop offset="0.73" stop-color="#E85392"/>
<stop offset="0.91" stop-color="#DB53B7"/>
<stop offset="1" stop-color="#D453CC"/>
</linearGradient>
</defs>
</svg>
