<svg width="147" height="147" viewBox="0 0 147 147" fill="none" xmlns="http://www.w3.org/2000/svg">
<path d="M73.591 122.43C100.543 122.43 122.391 100.581 122.391 73.63C122.391 46.6785 100.543 24.83 73.591 24.83C46.6395 24.83 24.791 46.6785 24.791 73.63C24.791 100.581 46.6395 122.43 73.591 122.43Z" fill="url(#paint0_linear)"/>
<path d="M73.5897 129.54C104.468 129.54 129.5 104.508 129.5 73.63C129.5 42.7517 104.468 17.72 73.5897 17.72C42.7114 17.72 17.6797 42.7517 17.6797 73.63C17.6797 104.508 42.7114 129.54 73.5897 129.54Z" stroke="url(#paint1_linear)" stroke-width="2" stroke-miterlimit="10"/>
<path opacity="0.67" d="M73.5898 137.13C108.66 137.13 137.09 108.7 137.09 73.63C137.09 38.5599 108.66 10.13 73.5898 10.13C38.5198 10.13 10.0898 38.5599 10.0898 73.63C10.0898 108.7 38.5198 137.13 73.5898 137.13Z" stroke="url(#paint2_linear)" stroke-width="2" stroke-miterlimit="10"/>
<path opacity="0.12" d="M73.5901 145.39C113.222 145.39 145.35 113.262 145.35 73.63C145.35 33.998 113.222 1.87 73.5901 1.87C33.9581 1.87 1.83008 33.998 1.83008 73.63C1.83008 113.262 33.9581 145.39 73.5901 145.39Z" stroke="url(#paint3_linear)" stroke-width="2" stroke-miterlimit="10"/>
<path d="M100.371 101H97.6908V64.1201C97.6908 63.3403 97.381 62.5925 96.8297 62.0412C96.2783 61.4898 95.5305 61.1801 94.7508 61.1801H89.1008C88.3241 61.1928 87.5827 61.5064 87.0325 62.0547C86.4823 62.6031 86.1662 63.3434 86.1508 64.1201V101H79.4308V80.7501C79.4151 79.9648 79.0921 79.2171 78.5312 78.6674C77.9703 78.1177 77.2161 77.8099 76.4308 77.8101H70.8308C70.051 77.8101 69.3032 78.1198 68.7519 78.6712C68.2005 79.2225 67.8908 79.9703 67.8908 80.7501V101H61.1608V90.4301C61.1608 89.6503 60.851 88.9025 60.2997 88.3512C59.7483 87.7998 59.0005 87.4901 58.2208 87.4901H52.5608C51.781 87.4901 51.0332 87.7998 50.4819 88.3512C49.9305 88.9025 49.6208 89.6503 49.6208 90.4301V101H46.8008C46.5356 101 46.2812 101.105 46.0937 101.293C45.9061 101.48 45.8008 101.735 45.8008 102C45.8008 102.265 45.9061 102.52 46.0937 102.707C46.2812 102.895 46.5356 103 46.8008 103H100.371C100.636 103 100.89 102.895 101.078 102.707C101.265 102.52 101.371 102.265 101.371 102C101.371 101.735 101.265 101.48 101.078 101.293C100.89 101.105 100.636 101 100.371 101ZM59.1608 101H51.6208V90.4301C51.6203 90.1749 51.7174 89.9292 51.8922 89.7433C52.0669 89.5574 52.3061 89.4454 52.5608 89.4301H58.2108C58.4672 89.4429 58.7089 89.5539 58.8858 89.7401C59.0626 89.9262 59.1611 90.1733 59.1608 90.4301V101ZM77.4308 101H69.8808V80.7501C69.8961 80.4954 70.0082 80.2562 70.1941 80.0814C70.38 79.9067 70.6256 79.8096 70.8808 79.8101H76.5308C76.7859 79.8096 77.0316 79.9067 77.2175 80.0814C77.4034 80.2562 77.5155 80.4954 77.5308 80.7501L77.4308 101ZM95.6908 101H88.1508V64.1201C88.1505 63.8633 88.2489 63.6162 88.4258 63.4301C88.6026 63.2439 88.8443 63.1329 89.1008 63.1201H94.7508C95.0055 63.1354 95.2447 63.2474 95.4194 63.4333C95.5942 63.6192 95.6912 63.8649 95.6908 64.1201V101Z" fill="white"/>
<path d="M97.4002 44.56C97.3001 44.4629 97.1807 44.3878 97.0499 44.3396C96.919 44.2914 96.7794 44.2711 96.6402 44.28H89.6402C89.375 44.28 89.1207 44.3854 88.9331 44.5729C88.7456 44.7604 88.6402 45.0148 88.6402 45.28C88.6402 45.5452 88.7456 45.7996 88.9331 45.9871C89.1207 46.1746 89.375 46.28 89.6402 46.28H94.3102L82.5202 58L78.1102 53.59C77.9229 53.4037 77.6694 53.2992 77.4052 53.2992C77.1411 53.2992 76.8876 53.4037 76.7002 53.59L51.4802 78.85C51.294 79.0374 51.1895 79.2908 51.1895 79.555C51.1895 79.8192 51.294 80.0726 51.4802 80.26C51.5732 80.3537 51.6838 80.4281 51.8057 80.4789C51.9275 80.5297 52.0582 80.5558 52.1902 80.5558C52.3223 80.5558 52.453 80.5297 52.5748 80.4789C52.6967 80.4281 52.8073 80.3537 52.9002 80.26L77.4102 55.75L81.8102 60.16C81.9976 60.3463 82.2511 60.4508 82.5152 60.4508C82.7794 60.4508 83.0329 60.3463 83.2202 60.16L95.6902 47.68V52C95.6902 52.2652 95.7956 52.5196 95.9831 52.7071C96.1707 52.8946 96.425 53 96.6902 53C96.9555 53 97.2098 52.8946 97.3974 52.7071C97.5849 52.5196 97.6902 52.2652 97.6902 52V45.32C97.6979 45.1801 97.676 45.0401 97.626 44.9092C97.5761 44.7783 97.4991 44.6593 97.4002 44.56Z" fill="white"/>
<defs>
<linearGradient id="paint0_linear" x1="17.815" y1="112.774" x2="137.201" y2="28.9929" gradientUnits="userSpaceOnUse">
<stop stop-color="#FF5350"/>
<stop offset="0.17" stop-color="#FE5354"/>
<stop offset="0.36" stop-color="#F95361"/>
<stop offset="0.54" stop-color="#F25375"/>
<stop offset="0.73" stop-color="#E85392"/>
<stop offset="0.91" stop-color="#DB53B7"/>
<stop offset="1" stop-color="#D453CC"/>
</linearGradient>
<linearGradient class="a" id="paint1_linear" x1="2441.94" y1="9369.23" x2="15168.2" y2="9369.23" gradientUnits="userSpaceOnUse">
<stop stop-color="#FF5350"/>
<stop offset="0.17" stop-color="#FE5354"/>
<stop offset="0.36" stop-color="#F95361"/>
<stop offset="0.54" stop-color="#F25375"/>
<stop offset="0.73" stop-color="#E85392"/>
<stop offset="0.91" stop-color="#DB53B7"/>
<stop offset="1" stop-color="#D453CC"/>
</linearGradient>
<linearGradient class="b" id="paint2_linear" x1="1799.52" y1="10631.1" x2="18182.5" y2="10631.1" gradientUnits="userSpaceOnUse">
<stop stop-color="#FF5350"/>
<stop offset="0.17" stop-color="#FE5354"/>
<stop offset="0.36" stop-color="#F95361"/>
<stop offset="0.54" stop-color="#F25375"/>
<stop offset="0.73" stop-color="#E85392"/>
<stop offset="0.91" stop-color="#DB53B7"/>
<stop offset="1" stop-color="#D453CC"/>
</linearGradient>
<linearGradient class="c" id="paint3_linear" x1="838.552" y1="12004.4" x2="21723.6" y2="12004.4" gradientUnits="userSpaceOnUse">
<stop stop-color="#FF5350"/>
<stop offset="0.17" stop-color="#FE5354"/>
<stop offset="0.36" stop-color="#F95361"/>
<stop offset="0.54" stop-color="#F25375"/>
<stop offset="0.73" stop-color="#E85392"/>
<stop offset="0.91" stop-color="#DB53B7"/>
<stop offset="1" stop-color="#D453CC"/>
</linearGradient>
</defs>
</svg>
