<svg width="147" height="147" viewBox="0 0 147 147" fill="none" xmlns="http://www.w3.org/2000/svg">
<path d="M73.591 122.43C100.543 122.43 122.391 100.581 122.391 73.63C122.391 46.6785 100.543 24.83 73.591 24.83C46.6395 24.83 24.791 46.6785 24.791 73.63C24.791 100.581 46.6395 122.43 73.591 122.43Z" fill="url(#paint0_linear)"/>
<path d="M73.5897 129.54C104.468 129.54 129.5 104.508 129.5 73.63C129.5 42.7517 104.468 17.72 73.5897 17.72C42.7114 17.72 17.6797 42.7517 17.6797 73.63C17.6797 104.508 42.7114 129.54 73.5897 129.54Z" stroke="url(#paint1_linear)" stroke-width="2" stroke-miterlimit="10"/>
<path opacity="0.67" d="M73.5898 137.13C108.66 137.13 137.09 108.7 137.09 73.63C137.09 38.5599 108.66 10.13 73.5898 10.13C38.5198 10.13 10.0898 38.5599 10.0898 73.63C10.0898 108.7 38.5198 137.13 73.5898 137.13Z" stroke="url(#paint2_linear)" stroke-width="2" stroke-miterlimit="10"/>
<path opacity="0.12" d="M73.5901 145.39C113.222 145.39 145.35 113.262 145.35 73.63C145.35 33.998 113.222 1.87 73.5901 1.87C33.9581 1.87 1.83008 33.998 1.83008 73.63C1.83008 113.262 33.9581 145.39 73.5901 145.39Z" stroke="url(#paint3_linear)" stroke-width="2" stroke-miterlimit="10"/>
<path d="M97.3305 49.34H91.6805V47.58C91.6805 46.7048 91.3328 45.8654 90.7139 45.2465C90.0951 44.6277 89.2557 44.28 88.3805 44.28C87.5053 44.28 86.6659 44.6277 86.047 45.2465C85.4281 45.8654 85.0805 46.7048 85.0805 47.58V49.34H65.4105V47.58C65.4352 47.1307 65.368 46.6811 65.2131 46.2586C65.0582 45.8361 64.8188 45.4496 64.5094 45.1228C64.2001 44.796 63.8274 44.5357 63.4141 44.3578C63.0007 44.1799 62.5555 44.0881 62.1055 44.0881C61.6555 44.0881 61.2102 44.1799 60.7969 44.3578C60.3835 44.5357 60.0108 44.796 59.7015 45.1228C59.3922 45.4496 59.1527 45.8361 58.9978 46.2586C58.8429 46.6811 58.7757 47.1307 58.8005 47.58V49.37H58.3405H53.7405C53.0024 49.3713 52.2719 49.518 51.5905 49.8016C50.9092 50.0853 50.2904 50.5003 49.7695 51.0231C49.2485 51.5459 48.8357 52.1662 48.5544 52.8486C48.2732 53.5309 48.1292 54.262 48.1305 55V74.59C48.1305 74.8552 48.2358 75.1096 48.4234 75.2971C48.6109 75.4846 48.8653 75.59 49.1305 75.59C49.3957 75.59 49.65 75.4846 49.8376 75.2971C50.0251 75.1096 50.1305 74.8552 50.1305 74.59V60.91H91.8405C92.1057 60.91 92.36 60.8046 92.5476 60.6171C92.7351 60.4296 92.8405 60.1752 92.8405 59.91C92.8405 59.6448 92.7351 59.3904 92.5476 59.2029C92.36 59.0154 92.1057 58.91 91.8405 58.91H50.1305V55C50.1305 54.0426 50.5108 53.1244 51.1878 52.4473C51.8648 51.7703 52.783 51.39 53.7405 51.39H58.8005V52.98C58.847 53.8251 59.2154 54.6203 59.8302 55.2021C60.4449 55.7839 61.2591 56.1081 62.1055 56.1081C62.9519 56.1081 63.7661 55.7839 64.3808 55.2021C64.9955 54.6203 65.364 53.8251 65.4105 52.98V51.38H85.0805V52.98C85.0805 53.8552 85.4281 54.6946 86.047 55.3135C86.6659 55.9323 87.5053 56.28 88.3805 56.28C89.2557 56.28 90.0951 55.9323 90.7139 55.3135C91.3328 54.6946 91.6805 53.8552 91.6805 52.98V51.38H97.3305C97.8054 51.38 98.2756 51.4737 98.7143 51.6558C99.1529 51.8378 99.5513 52.1046 99.8867 52.4409C100.222 52.7772 100.488 53.1763 100.669 53.6154C100.849 54.0546 100.942 54.5251 100.94 55V98.8C100.961 99.1047 100.919 99.4104 100.816 99.6981C100.713 99.9858 100.553 100.249 100.344 100.472C100.136 100.695 99.8834 100.873 99.6032 100.995C99.3231 101.117 99.0209 101.179 98.7155 101.179C98.41 101.179 98.1079 101.117 97.8277 100.995C97.5475 100.873 97.2953 100.695 97.0867 100.472C96.8781 100.249 96.7175 99.9858 96.615 99.6981C96.5124 99.4104 96.47 99.1047 96.4905 98.8V95.8C96.4905 95.5348 96.3851 95.2804 96.1976 95.0929C96.01 94.9054 95.7557 94.8 95.4905 94.8H60.2605L60.5705 94.53C62.0112 93.2924 63.0385 91.6432 63.5141 89.8044C63.9898 87.9656 63.891 86.0252 63.2311 84.2441C62.5711 82.4631 61.3817 80.9269 59.8227 79.8419C58.2636 78.757 56.4098 78.1755 54.5105 78.1755C52.6111 78.1755 50.7573 78.757 49.1983 79.8419C47.6393 80.9269 46.4498 82.4631 45.7899 84.2441C45.1299 86.0252 45.0312 87.9656 45.5068 89.8044C45.9824 91.6432 47.0097 93.2924 48.4505 94.53L48.7605 94.8H45.2305C44.9653 94.8 44.7109 94.9054 44.5234 95.0929C44.3358 95.2804 44.2305 95.5348 44.2305 95.8V98.8C44.241 99.9158 44.691 100.983 45.4828 101.769C46.2747 102.555 47.3446 102.997 48.4605 103H98.7105C99.8323 103 100.908 102.554 101.702 101.761C102.495 100.968 102.94 99.8919 102.94 98.77V55C102.947 54.2591 102.807 53.5242 102.528 52.8378C102.249 52.1514 101.837 51.527 101.315 51.0008C100.794 50.4745 100.173 50.0568 99.4889 49.7718C98.805 49.4867 98.0714 49.34 97.3305 49.34ZM63.4105 52.94C63.4105 53.2874 63.2724 53.6206 63.0268 53.8663C62.7811 54.112 62.4479 54.25 62.1005 54.25C61.753 54.25 61.4198 54.112 61.1742 53.8663C60.9285 53.6206 60.7905 53.2874 60.7905 52.94V47.58C60.7905 47.2326 60.9285 46.8994 61.1742 46.6537C61.4198 46.408 61.753 46.27 62.1005 46.27C62.4479 46.27 62.7811 46.408 63.0268 46.6537C63.2724 46.8994 63.4105 47.2326 63.4105 47.58V52.94ZM89.6905 52.94C89.6905 53.2874 89.5525 53.6206 89.3068 53.8663C89.0611 54.112 88.7279 54.25 88.3805 54.25C88.033 54.25 87.6998 54.112 87.4542 53.8663C87.2085 53.6206 87.0705 53.2874 87.0705 52.94V47.58C87.0705 47.2326 87.2085 46.8994 87.4542 46.6537C87.6998 46.408 88.033 46.27 88.3805 46.27C88.7279 46.27 89.0611 46.408 89.3068 46.6537C89.5525 46.8994 89.6905 47.2326 89.6905 47.58V52.94ZM47.2105 87.46C47.2105 86.0162 47.6386 84.6048 48.4407 83.4043C49.2429 82.2039 50.383 81.2682 51.7169 80.7157C53.0508 80.1632 54.5186 80.0186 55.9346 80.3003C57.3507 80.5819 58.6514 81.2772 59.6724 82.2981C60.6933 83.319 61.3885 84.6198 61.6702 86.0358C61.9519 87.4519 61.8073 88.9197 61.2548 90.2536C60.7023 91.5875 59.7666 92.7276 58.5661 93.5297C57.3657 94.3319 55.9543 94.76 54.5105 94.76C52.5752 94.7574 50.72 93.9874 49.3515 92.619C47.9831 91.2505 47.2131 89.3953 47.2105 87.46ZM48.4605 101C47.869 101 47.3018 100.765 46.8836 100.347C46.4654 99.9286 46.2305 99.3614 46.2305 98.77V96.77H94.4905V98.77C94.4888 99.4678 94.6606 100.155 94.9905 100.77L95.1105 101H48.4605Z" fill="white"/>
<path d="M70.1597 87.7699C70.9963 87.7699 71.8141 87.5218 72.5098 87.0571C73.2054 86.5923 73.7475 85.9316 74.0677 85.1587C74.3879 84.3858 74.4716 83.5352 74.3084 82.7147C74.1452 81.8942 73.7423 81.1404 73.1507 80.5489C72.5592 79.9573 71.8055 79.5544 70.9849 79.3912C70.1644 79.228 69.3139 79.3118 68.5409 79.6319C67.768 79.9521 67.1074 80.4943 66.6426 81.1899C66.1778 81.8855 65.9297 82.7033 65.9297 83.5399C65.9323 84.661 66.3788 85.7354 67.1715 86.5281C67.9642 87.3208 69.0386 87.7673 70.1597 87.7699ZM70.1597 81.3099C70.6007 81.3099 71.0319 81.4407 71.3986 81.6858C71.7653 81.9308 72.0512 82.2791 72.2199 82.6866C72.3887 83.094 72.4329 83.5424 72.3468 83.975C72.2608 84.4076 72.0484 84.8049 71.7365 85.1168C71.4247 85.4287 71.0273 85.641 70.5947 85.7271C70.1622 85.8131 69.7138 85.769 69.3063 85.6002C68.8988 85.4314 68.5505 85.1456 68.3055 84.7789C68.0605 84.4121 67.9297 83.981 67.9297 83.5399C67.9297 82.9485 68.1646 82.3813 68.5828 81.9631C69.001 81.5449 69.5683 81.3099 70.1597 81.3099Z" fill="white"/>
<path d="M80.9194 87.7699C81.7561 87.7699 82.5739 87.5218 83.2695 87.0571C83.9651 86.5923 84.5073 85.9316 84.8275 85.1587C85.1476 84.3858 85.2314 83.5352 85.0682 82.7147C84.905 81.8942 84.5021 81.1404 83.9105 80.5489C83.3189 79.9573 82.5652 79.5544 81.7447 79.3912C80.9241 79.228 80.0736 79.3118 79.3007 79.6319C78.5278 79.9521 77.8671 80.4943 77.4023 81.1899C76.9375 81.8855 76.6895 82.7033 76.6895 83.5399C76.6895 84.0954 76.7989 84.6455 77.0114 85.1587C77.224 85.6719 77.5356 86.1382 77.9284 86.531C78.3212 86.9238 78.7875 87.2354 79.3007 87.4479C79.8139 87.6605 80.364 87.7699 80.9194 87.7699ZM80.9194 81.3099C81.3605 81.3099 81.7916 81.4407 82.1584 81.6858C82.5251 81.9308 82.8109 82.2791 82.9797 82.6866C83.1485 83.094 83.1927 83.5424 83.1066 83.975C83.0206 84.4076 82.8082 84.8049 82.4963 85.1168C82.1844 85.4287 81.7871 85.641 81.3545 85.7271C80.9219 85.8131 80.4735 85.769 80.0661 85.6002C79.6586 85.4314 79.3103 85.1456 79.0653 84.7789C78.8202 84.4121 78.6895 83.981 78.6895 83.5399C78.6895 82.9485 78.9244 82.3813 79.3426 81.9631C79.7608 81.5449 80.328 81.3099 80.9194 81.3099Z" fill="white"/>
<path d="M91.6692 87.77C92.5063 87.772 93.3251 87.5256 94.022 87.062C94.7189 86.5984 95.2627 85.9385 95.5844 85.1657C95.9061 84.393 95.9912 83.5422 95.8292 82.721C95.6671 81.8998 95.265 81.1451 94.6738 80.5525C94.0826 79.96 93.329 79.5561 92.5081 79.3921C91.6873 79.228 90.8363 79.3112 90.0628 79.6311C89.2893 79.951 88.628 80.4931 88.1628 81.189C87.6976 81.8848 87.4492 82.703 87.4492 83.5401C87.4518 84.6594 87.897 85.7323 88.6875 86.5247C89.4781 87.3171 90.5499 87.7648 91.6692 87.77ZM91.6692 81.31C92.1107 81.3081 92.5428 81.4372 92.9109 81.681C93.2789 81.9248 93.5663 82.2724 93.7366 82.6797C93.9069 83.087 93.9525 83.5357 93.8676 83.9689C93.7827 84.4022 93.5711 84.8005 93.2596 85.1133C92.9481 85.4262 92.5508 85.6396 92.118 85.7264C91.6851 85.8133 91.2362 85.7697 90.8282 85.6012C90.4201 85.4328 90.0712 85.1469 89.8258 84.78C89.5803 84.4131 89.4492 83.9815 89.4492 83.5401C89.4492 82.9503 89.6828 82.3846 90.0988 81.9667C90.5149 81.5488 91.0795 81.3127 91.6692 81.31Z" fill="white"/>
<path d="M59.3999 67.3199C58.5633 67.3199 57.7455 67.568 57.0499 68.0328C56.3542 68.4976 55.8121 69.1583 55.4919 69.9312C55.1718 70.7041 55.088 71.5546 55.2512 72.3752C55.4144 73.1957 55.8173 73.9494 56.4089 74.541C57.0004 75.1326 57.7542 75.5355 58.5747 75.6987C59.3952 75.8619 60.2457 75.7781 61.0187 75.458C61.7916 75.1378 62.4522 74.5956 62.917 73.9C63.3818 73.2044 63.6299 72.3866 63.6299 71.5499C63.6273 70.4289 63.1808 69.3545 62.3881 68.5618C61.5954 67.7691 60.521 67.3226 59.3999 67.3199ZM59.3999 73.7799C58.9589 73.7799 58.5277 73.6492 58.161 73.4041C57.7943 73.1591 57.5085 72.8108 57.3397 72.4033C57.1709 71.9958 57.1267 71.5475 57.2128 71.1149C57.2988 70.6823 57.5112 70.285 57.8231 69.9731C58.1349 69.6612 58.5323 69.4488 58.9649 69.3628C59.3974 69.2767 59.8458 69.3209 60.2533 69.4897C60.6608 69.6585 61.0091 69.9443 61.2541 70.311C61.4991 70.6777 61.6299 71.1089 61.6299 71.5499C61.6299 71.8428 61.5722 72.1328 61.4602 72.4033C61.3481 72.6739 61.1838 72.9197 60.9768 73.1268C60.7697 73.3339 60.5239 73.4981 60.2533 73.6102C59.9828 73.7223 59.6928 73.7799 59.3999 73.7799Z" fill="white"/>
<path d="M80.9194 75.7799C81.7561 75.7799 82.5739 75.5319 83.2695 75.0671C83.9651 74.6023 84.5073 73.9416 84.8275 73.1687C85.1476 72.3958 85.2314 71.5453 85.0682 70.7247C84.905 69.9042 84.5021 69.1505 83.9105 68.5589C83.3189 67.9673 82.5652 67.5644 81.7447 67.4012C80.9241 67.238 80.0736 67.3218 79.3007 67.6419C78.5278 67.9621 77.8671 68.5043 77.4023 69.1999C76.9375 69.8955 76.6895 70.7133 76.6895 71.55C76.6895 72.6718 77.1351 73.7477 77.9284 74.541C78.7217 75.3343 79.7976 75.7799 80.9194 75.7799ZM80.9194 69.3199C81.3605 69.3199 81.7916 69.4507 82.1584 69.6958C82.5251 69.9408 82.8109 70.2891 82.9797 70.6966C83.1485 71.104 83.1927 71.5524 83.1066 71.985C83.0206 72.4176 82.8082 72.8149 82.4963 73.1268C82.1844 73.4387 81.7871 73.6511 81.3545 73.7371C80.9219 73.8231 80.4735 73.779 80.0661 73.6102C79.6586 73.4414 79.3103 73.1556 79.0653 72.7889C78.8202 72.4222 78.6895 71.991 78.6895 71.55C78.6895 70.9585 78.9244 70.3913 79.3426 69.9731C79.7608 69.5549 80.328 69.3199 80.9194 69.3199Z" fill="white"/>
<path d="M91.6692 75.7799C92.5063 75.7819 93.3251 75.5355 94.022 75.0719C94.7189 74.6083 95.2627 73.9484 95.5844 73.1756C95.9061 72.4029 95.9912 71.552 95.8292 70.7308C95.6671 69.9097 95.265 69.155 94.6738 68.5624C94.0826 67.9699 93.329 67.566 92.5081 67.402C91.6873 67.2379 90.8363 67.3211 90.0628 67.641C89.2893 67.9608 88.628 68.503 88.1628 69.1988C87.6976 69.8947 87.4492 70.7129 87.4492 71.5499C87.4518 72.6693 87.897 73.7421 88.6875 74.5346C89.4781 75.327 90.5499 75.7747 91.6692 75.7799ZM91.6692 69.3199C92.1107 69.318 92.5428 69.4471 92.9109 69.6909C93.2789 69.9347 93.5663 70.2823 93.7366 70.6896C93.9069 71.0969 93.9525 71.5456 93.8676 71.9788C93.7827 72.4121 93.5711 72.8103 93.2596 73.1232C92.9481 73.4361 92.5508 73.6495 92.118 73.7363C91.6851 73.8232 91.2362 73.7796 90.8282 73.6111C90.4201 73.4426 90.0712 73.1568 89.8258 72.7899C89.5803 72.423 89.4492 71.9914 89.4492 71.5499C89.4492 70.9602 89.6828 70.3945 90.0988 69.9766C90.5149 69.5587 91.0795 69.3226 91.6692 69.3199Z" fill="white"/>
<path d="M70.1597 75.7799C70.9963 75.7799 71.8141 75.5319 72.5098 75.0671C73.2054 74.6023 73.7475 73.9416 74.0677 73.1687C74.3879 72.3958 74.4716 71.5453 74.3084 70.7247C74.1452 69.9042 73.7423 69.1505 73.1507 68.5589C72.5592 67.9673 71.8055 67.5644 70.9849 67.4012C70.1644 67.238 69.3139 67.3218 68.5409 67.6419C67.768 67.9621 67.1074 68.5043 66.6426 69.1999C66.1778 69.8955 65.9297 70.7133 65.9297 71.55C65.9323 72.671 66.3788 73.7454 67.1715 74.5381C67.9642 75.3308 69.0386 75.7773 70.1597 75.7799ZM70.1597 69.3199C70.6007 69.3199 71.0319 69.4507 71.3986 69.6958C71.7653 69.9408 72.0512 70.2891 72.2199 70.6966C72.3887 71.104 72.4329 71.5524 72.3468 71.985C72.2608 72.4176 72.0484 72.8149 71.7365 73.1268C71.4247 73.4387 71.0273 73.6511 70.5947 73.7371C70.1622 73.8231 69.7138 73.779 69.3063 73.6102C68.8988 73.4414 68.5505 73.1556 68.3055 72.7889C68.0605 72.4222 67.9297 71.991 67.9297 71.55C67.9297 70.9585 68.1646 70.3913 68.5828 69.9731C69.001 69.5549 69.5683 69.3199 70.1597 69.3199Z" fill="white"/>
<path d="M52.5295 90.74C52.7168 90.9263 52.9703 91.0308 53.2345 91.0308C53.4987 91.0308 53.7521 90.9263 53.9395 90.74L58.5095 86.17C58.6957 85.9827 58.8003 85.7292 58.8003 85.465C58.8003 85.2008 58.6957 84.9474 58.5095 84.76C58.4165 84.6663 58.3059 84.5919 58.184 84.5411C58.0622 84.4904 57.9315 84.4642 57.7995 84.4642C57.6675 84.4642 57.5367 84.4904 57.4149 84.5411C57.293 84.5919 57.1824 84.6663 57.0895 84.76L53.2295 88.62L51.8395 87.23C51.6521 87.0438 51.3986 86.9392 51.1345 86.9392C50.8703 86.9392 50.6168 87.0438 50.4295 87.23C50.2432 87.4174 50.1387 87.6708 50.1387 87.935C50.1387 88.1992 50.2432 88.4527 50.4295 88.64L52.5295 90.74Z" fill="white"/>
<defs>
<linearGradient id="paint0_linear" x1="17.8127" y1="112.775" x2="137.198" y2="28.9937" gradientUnits="userSpaceOnUse">
<stop stop-color="#FF5350"/>
<stop offset="0.17" stop-color="#FE5354"/>
<stop offset="0.36" stop-color="#F95361"/>
<stop offset="0.54" stop-color="#F25375"/>
<stop offset="0.73" stop-color="#E85392"/>
<stop offset="0.91" stop-color="#DB53B7"/>
<stop offset="1" stop-color="#D453CC"/>
</linearGradient>
<linearGradient class="a" id="paint1_linear" x1="2441.94" y1="9369.23" x2="15168.2" y2="9369.23" gradientUnits="userSpaceOnUse">
<stop stop-color="#FF5350"/>
<stop offset="0.17" stop-color="#FE5354"/>
<stop offset="0.36" stop-color="#F95361"/>
<stop offset="0.54" stop-color="#F25375"/>
<stop offset="0.73" stop-color="#E85392"/>
<stop offset="0.91" stop-color="#DB53B7"/>
<stop offset="1" stop-color="#D453CC"/>
</linearGradient>
<linearGradient class="b" id="paint2_linear" x1="1799.52" y1="10631.1" x2="18182.5" y2="10631.1" gradientUnits="userSpaceOnUse">
<stop stop-color="#FF5350"/>
<stop offset="0.17" stop-color="#FE5354"/>
<stop offset="0.36" stop-color="#F95361"/>
<stop offset="0.54" stop-color="#F25375"/>
<stop offset="0.73" stop-color="#E85392"/>
<stop offset="0.91" stop-color="#DB53B7"/>
<stop offset="1" stop-color="#D453CC"/>
</linearGradient>
<linearGradient class="c" id="paint3_linear" x1="838.552" y1="12004.4" x2="21723.6" y2="12004.4" gradientUnits="userSpaceOnUse">
<stop stop-color="#FF5350"/>
<stop offset="0.17" stop-color="#FE5354"/>
<stop offset="0.36" stop-color="#F95361"/>
<stop offset="0.54" stop-color="#F25375"/>
<stop offset="0.73" stop-color="#E85392"/>
<stop offset="0.91" stop-color="#DB53B7"/>
<stop offset="1" stop-color="#D453CC"/>
</linearGradient>
</defs>
</svg>
