<svg width="25" height="24" viewBox="0 0 25 24" fill="none" xmlns="http://www.w3.org/2000/svg">
<path d="M24.33 12.1301C24.332 9.79186 23.6404 7.5056 22.3428 5.56049C21.0452 3.61539 19.1999 2.09883 17.0403 1.20267C14.8806 0.306506 12.5037 0.071008 10.2102 0.525955C7.91666 0.980903 5.8096 2.10586 4.15554 3.75851C2.50149 5.41117 1.37475 7.51727 0.917858 9.8104C0.46097 12.1035 0.694461 14.4807 1.58879 16.6411C2.48313 18.8015 3.99812 20.6481 5.94213 21.9473C7.88613 23.2466 10.1718 23.9401 12.51 23.9401H12.72V14.7401H10.18V11.7401H12.72V9.57005C12.6673 9.05352 12.7286 8.53173 12.8995 8.04145C13.0704 7.55117 13.3467 7.10435 13.7091 6.73248C14.0714 6.36061 14.5109 6.07274 14.9966 5.88918C15.4823 5.70561 16.0023 5.63081 16.52 5.67005C17.59 5.67005 18.52 5.75005 18.79 5.78005V8.42005H17.24C16.01 8.42005 15.78 9.00005 15.78 9.86005V11.7401H18.71L18.32 14.7401H15.78V23.4901C18.2447 22.7805 20.4117 21.2885 21.954 19.2393C23.4963 17.1901 24.3303 14.6948 24.33 12.1301V12.1301Z" fill="#CB7ED5"/>
</svg>
