<svg width="25" height="25" viewBox="0 0 25 25" fill="none" xmlns="http://www.w3.org/2000/svg">
<path d="M14.78 12.52C14.782 12.9694 14.6506 13.4093 14.4023 13.7839C14.1541 14.1585 13.8003 14.451 13.3857 14.6243C12.9711 14.7977 12.5143 14.8441 12.0733 14.7576C11.6323 14.6711 11.2269 14.4557 10.9085 14.1387C10.59 13.8216 10.3728 13.4172 10.2844 12.9766C10.196 12.5359 10.2404 12.079 10.4119 11.6636C10.5834 11.2483 10.8743 10.8932 11.2479 10.6433C11.6214 10.3934 12.0606 10.26 12.51 10.26C13.1103 10.26 13.6862 10.4978 14.1116 10.9213C14.5371 11.3449 14.7774 11.9197 14.78 12.52V12.52Z" fill="#CB7ED5"/>
<path d="M17.8 8.52C17.6967 8.22445 17.5254 7.95728 17.3 7.74C17.0813 7.51399 16.8148 7.33974 16.52 7.23C16.1157 7.08388 15.6899 7.00615 15.26 7C14.54 7 14.33 7 12.51 7C10.69 7 10.51 7 9.77 7C9.34014 7.00615 8.91431 7.08388 8.51 7.23C8.21524 7.33974 7.94874 7.51399 7.73 7.74C7.50527 7.95979 7.33122 8.22599 7.22 8.52C7.07729 8.92489 7.00294 9.35071 7 9.78C7 10.49 7 10.71 7 12.52C7 14.33 7 14.52 7 15.26C7.00615 15.6899 7.08388 16.1157 7.23 16.52C7.34122 16.814 7.51527 17.0802 7.74 17.3C7.95874 17.526 8.22524 17.7003 8.52 17.81C8.92431 17.9561 9.35014 18.0339 9.78 18.04C10.5 18.04 10.71 18.04 12.52 18.04C14.33 18.04 14.52 18.04 15.27 18.04C15.6999 18.0339 16.1257 17.9561 16.53 17.81C16.822 17.6969 17.0868 17.5236 17.3074 17.3013C17.5279 17.079 17.6992 16.8128 17.81 16.52C17.9488 16.1149 18.0132 15.688 18 15.26C18 14.55 18 14.33 18 12.52C18 10.71 18 10.52 18 9.78C17.9972 9.34891 17.9158 8.92194 17.76 8.52H17.8ZM12.51 16C11.8193 16 11.1442 15.7951 10.57 15.4111C9.99588 15.0272 9.54857 14.4815 9.28471 13.8432C9.02086 13.2049 8.95233 12.5027 9.08781 11.8254C9.22328 11.1482 9.55667 10.5263 10.0458 10.0387C10.5348 9.55098 11.1576 9.21938 11.8353 9.08584C12.5129 8.95231 13.215 9.02286 13.8525 9.28854C14.49 9.55422 15.0344 10.0031 15.4167 10.5783C15.799 11.1536 16.002 11.8293 16 12.52C16 12.9778 15.9097 13.4312 15.7341 13.8541C15.5586 14.2769 15.3014 14.661 14.9772 14.9843C14.653 15.3076 14.2682 15.5637 13.8448 15.738C13.4214 15.9123 12.9678 16.0013 12.51 16V16ZM16.14 9.7C15.9242 9.70002 15.7172 9.615 15.5637 9.46337C15.4102 9.31175 15.3226 9.10574 15.32 8.89C15.32 8.67252 15.4064 8.46395 15.5602 8.31017C15.714 8.15639 15.9225 8.07 16.14 8.07C16.3557 8.07263 16.5617 8.16018 16.7134 8.31368C16.865 8.46717 16.95 8.67424 16.95 8.89C16.95 9.10482 16.8647 9.31085 16.7128 9.46276C16.5609 9.61466 16.3548 9.7 16.14 9.7V9.7Z" fill="#CB7ED5"/>
<path d="M12.51 0.699951C10.1722 0.699951 7.88696 1.39318 5.94317 2.69198C3.99938 3.99078 2.48438 5.83681 1.58975 7.99663C0.695124 10.1565 0.461048 12.5331 0.917126 14.8259C1.3732 17.1188 2.49895 19.2249 4.15201 20.878C5.80506 22.531 7.91118 23.6568 10.204 24.1128C12.4969 24.5689 14.8735 24.3348 17.0333 23.4402C19.1931 22.5456 21.0392 21.0306 22.338 19.0868C23.6368 17.143 24.33 14.8577 24.33 12.52C24.33 9.38509 23.0847 6.37863 20.868 4.16195C18.6513 1.94527 15.6449 0.699951 12.51 0.699951V0.699951ZM19.26 15.32C19.2524 15.8944 19.1441 16.463 18.94 17C18.7669 17.4557 18.4991 17.8696 18.1544 18.2143C17.8097 18.5591 17.3958 18.8268 16.94 19C16.4114 19.1968 15.8539 19.3049 15.29 19.32C14.57 19.32 14.34 19.32 12.49 19.32C10.64 19.32 10.42 19.32 9.70001 19.32C9.14276 19.3038 8.592 19.1957 8.07001 19C7.61933 18.8278 7.21033 18.5619 6.87001 18.22C6.52237 17.8765 6.25587 17.4596 6.09001 17C5.8893 16.4724 5.78105 15.9143 5.77001 15.35C5.77001 14.62 5.77001 14.35 5.77001 12.55C5.77001 10.75 5.77001 10.48 5.77001 9.74995C5.77997 9.18878 5.88828 8.63371 6.09001 8.10995C6.25567 7.65308 6.52229 7.23947 6.87001 6.89995C7.21033 6.55799 7.61933 6.29214 8.07001 6.11995C8.59775 5.92129 9.15615 5.81638 9.72001 5.80995C10.44 5.80995 10.67 5.80995 12.51 5.80995C14.35 5.80995 14.59 5.80995 15.31 5.80995C15.8738 5.81739 16.432 5.92227 16.96 6.11995C17.4107 6.29214 17.8197 6.55799 18.16 6.89995C18.5077 7.23947 18.7743 7.65308 18.94 8.10995C19.1417 8.63371 19.25 9.18878 19.26 9.74995C19.26 10.48 19.26 10.75 19.26 12.55C19.26 14.35 19.26 14.62 19.26 15.35V15.32Z" fill="#CB7ED5"/>
</svg>
