<svg width="25" height="24" viewBox="0 0 25 24" fill="none" xmlns="http://www.w3.org/2000/svg">
<path d="M12.51 0.109868C10.1718 0.109868 7.88613 0.803348 5.94213 2.10259C3.99812 3.40183 2.48313 5.24846 1.58879 7.40886C0.694461 9.56927 0.46097 11.9464 0.917858 14.2395C1.37475 16.5326 2.50149 18.6388 4.15554 20.2914C5.8096 21.9441 7.91666 23.069 10.2102 23.524C12.5037 23.9789 14.8806 23.7434 17.0403 22.8472C19.1999 21.9511 21.0452 20.4345 22.3428 18.4894C23.6404 16.5443 24.332 14.2581 24.33 11.9199C24.33 10.3681 24.0242 8.83158 23.4301 7.39807C22.8359 5.96456 21.9651 4.66219 20.8674 3.5654C19.7697 2.46861 18.4666 1.5989 17.0326 1.00598C15.5986 0.413058 14.0618 0.108554 12.51 0.109868V0.109868ZM9.08 17.9999H6.2V9.30986H9.08V17.9999ZM7.64 8.15987C7.42955 8.18123 7.21697 8.15754 7.01639 8.09037C6.8158 8.0232 6.63182 7.91409 6.47668 7.7703C6.32154 7.62651 6.19879 7.45133 6.1166 7.25642C6.03441 7.06151 5.99466 6.85133 6 6.63987C6.00072 6.4319 6.04439 6.22632 6.12828 6.03602C6.21217 5.84572 6.33446 5.6748 6.48749 5.53397C6.64052 5.39314 6.821 5.28544 7.0176 5.21763C7.2142 5.14981 7.42269 5.12334 7.63 5.13987C8.02783 5.13987 8.40936 5.2979 8.69066 5.57921C8.97197 5.86051 9.13 6.24204 9.13 6.63987C9.13 7.03769 8.97197 7.41922 8.69066 7.70053C8.40936 7.98183 8.02783 8.13987 7.63 8.13987L7.64 8.15987ZM19.46 17.9999H16.58V13.3399C16.58 12.1799 16.16 11.3399 15.12 11.3399C14.7967 11.3422 14.482 11.4443 14.2189 11.6323C13.9558 11.8202 13.7571 12.0848 13.65 12.3899C13.5728 12.6183 13.5389 12.859 13.55 13.0999V17.9999H10.67C10.67 17.9999 10.67 10.1599 10.67 9.33986H13.55V10.5699C13.8103 10.118 14.1892 9.74599 14.6457 9.49395C15.1022 9.2419 15.6189 9.11946 16.14 9.13987C18.04 9.13987 19.46 10.3799 19.46 13.0399V17.9999Z" fill="#CB7ED5"/>
</svg>
