<svg width="112" height="112" viewBox="0 0 112 112" fill="none" xmlns="http://www.w3.org/2000/svg">
<path d="M39.0997 25.81V23.74C35.5413 23.7426 32.1294 25.1574 29.6132 27.6735C27.0971 30.1897 25.6823 33.6016 25.6797 37.16H27.7397C27.745 34.1497 28.9439 31.2643 31.0734 29.1366C33.203 27.009 36.0894 25.8126 39.0997 25.81Z" fill="#BA54C8"/>
<path d="M31.8686 37.16C31.8712 35.2433 32.6338 33.4058 33.9891 32.0505C35.3445 30.6952 37.1819 29.9326 39.0986 29.93V27.87C36.6355 27.8726 34.2741 28.8523 32.5325 30.5939C30.7909 32.3355 29.8112 34.6969 29.8086 37.16H31.8686Z" fill="#BA54C8"/>
<path d="M83.4594 37.16H85.5294C85.5267 33.6016 84.112 30.1897 81.5958 27.6735C79.0797 25.1574 75.6678 23.7426 72.1094 23.74V25.81C75.1188 25.8126 78.0041 27.0093 80.1321 29.1372C82.2601 31.2652 83.4567 34.1506 83.4594 37.16Z" fill="#BA54C8"/>
<path d="M79.3294 37.16H81.3994C81.3967 34.6969 80.4171 32.3355 78.6755 30.5939C76.9338 28.8523 74.5724 27.8726 72.1094 27.87V29.93C74.0243 29.9353 75.8592 30.699 77.2124 32.0541C78.5655 33.4091 79.3267 35.245 79.3294 37.16Z" fill="#BA54C8"/>
<path d="M64.9985 71.33V81.66C64.9985 81.9252 65.1039 82.1796 65.2914 82.3671C65.4789 82.5546 65.7333 82.66 65.9985 82.66H75.2885V80.59H67.0285V77.5H75.2885V75.43H67.0285V72.34H75.2885V70.3H65.9985C65.8646 70.2999 65.7321 70.3267 65.6088 70.3789C65.4854 70.431 65.3738 70.5073 65.2806 70.6034C65.1873 70.6995 65.1143 70.8133 65.0658 70.9381C65.0174 71.0629 64.9945 71.1962 64.9985 71.33Z" fill="#BA54C8"/>
<path d="M49.4995 70.3H47.4395V82.69H49.4995V70.3Z" fill="#BA54C8"/>
<path d="M57.7602 79.16L53.5402 69.87L51.6602 70.73L56.8202 82.08C56.898 82.2639 57.0292 82.4203 57.1967 82.529C57.3642 82.6377 57.5605 82.6938 57.7602 82.69C57.9598 82.6938 58.1561 82.6377 58.3236 82.529C58.4912 82.4203 58.6223 82.2639 58.7001 82.08L63.8602 70.73L61.9801 69.88L57.7602 79.16Z" fill="#BA54C8"/>
<path d="M39.1794 70.3H37.1094V81.66C37.1094 81.9252 37.2147 82.1796 37.4023 82.3671C37.5898 82.5546 37.8442 82.66 38.1094 82.66H46.3694V80.59H39.1394L39.1794 70.3Z" fill="#BA54C8"/>
<path d="M85.5293 68.42V74.79C85.5293 74.79 85.5293 74.87 85.5293 74.92V68.65C85.5393 68.57 85.5293 68.49 85.5293 68.42Z" fill="#BA54C8"/>
<path d="M86.5596 75.82C86.8248 75.82 87.0792 75.7146 87.2667 75.5271C87.4543 75.3396 87.5596 75.0852 87.5596 74.82V68.44C87.4979 67.1152 86.9285 65.8651 85.9696 64.949C85.0107 64.0328 83.7358 63.5211 82.4096 63.52H69.9996V55.31H73.2896C73.3054 55.31 73.321 55.3069 73.3355 55.3008C73.3501 55.2948 73.3633 55.286 73.3745 55.2748C73.3856 55.2637 73.3944 55.2505 73.4005 55.2359C73.4065 55.2213 73.4096 55.2057 73.4096 55.19V54.05C73.411 54.0334 73.4089 54.0167 73.4035 54.001C73.3981 53.9853 73.3895 53.9708 73.3782 53.9586C73.3669 53.9464 73.3532 53.9366 73.338 53.93C73.3227 53.9233 73.3062 53.9199 73.2896 53.92H67.7196V53H72.7196C72.8111 53 72.9016 52.9818 72.986 52.9465C73.0704 52.9112 73.1469 52.8595 73.2111 52.7944C73.2753 52.7292 73.3259 52.652 73.36 52.5671C73.3941 52.4822 73.4109 52.3914 73.4096 52.3V35.27C73.4096 35.087 73.3369 34.9115 73.2075 34.7821C73.0781 34.6527 72.9026 34.58 72.7196 34.58H38.5296C38.3466 34.58 38.1711 34.6527 38.0417 34.7821C37.9123 34.9115 37.8396 35.087 37.8396 35.27V52.34C37.8383 52.4314 37.8552 52.5222 37.8892 52.6071C37.9233 52.692 37.9739 52.7692 38.0381 52.8344C38.1023 52.8995 38.1789 52.9512 38.2632 52.9865C38.3476 53.0218 38.4382 53.04 38.5296 53.04H43.5296V53.92H37.9996C37.9669 53.9225 37.9363 53.9373 37.9141 53.9614C37.8918 53.9855 37.8795 54.0172 37.8796 54.05V55.19C37.8796 55.2057 37.8827 55.2213 37.8887 55.2359C37.8948 55.2505 37.9036 55.2637 37.9148 55.2748C37.9259 55.286 37.9391 55.2948 37.9537 55.3008C37.9682 55.3069 37.9839 55.31 37.9996 55.31H41.2896V63.49H28.7596C27.3911 63.49 26.0786 64.0336 25.1109 65.0013C24.1433 65.969 23.5996 67.2815 23.5996 68.65V83.1C23.5996 84.4685 24.1433 85.781 25.1109 86.7487C26.0786 87.7163 27.3911 88.26 28.7596 88.26H82.4396C83.7658 88.2589 85.0407 87.7471 85.9996 86.831C86.9585 85.9149 87.5279 84.6647 87.5896 83.34V81.16C87.6055 80.8881 87.5128 80.6211 87.3318 80.4176C87.1509 80.2141 86.8965 80.0909 86.6246 80.075C86.3528 80.0591 86.0857 80.1518 85.8823 80.3328C85.6788 80.5137 85.5555 80.7681 85.5396 81.04V83.1C85.5396 83.18 85.5396 83.26 85.5396 83.34C85.4792 84.1181 85.1274 84.8449 84.5546 85.3751C83.9818 85.9052 83.2301 86.1998 82.4496 86.2H28.7596C27.9374 86.2 27.1489 85.8734 26.5676 85.292C25.9862 84.7107 25.6596 83.9222 25.6596 83.1V68.65C25.6596 67.8278 25.9862 67.0393 26.5676 66.458C27.1489 65.8766 27.9374 65.55 28.7596 65.55H82.4396C83.221 65.5527 83.9728 65.8494 84.5454 66.3812C85.1179 66.913 85.4693 67.6409 85.5296 68.42C85.5296 68.49 85.5296 68.57 85.5296 68.65V74.92C85.5549 75.1728 85.6754 75.4065 85.8667 75.5736C86.058 75.7408 86.3057 75.8289 86.5596 75.82ZM39.2296 51.65V36H71.9996V51.65H39.2296ZM45.7996 55.31V63.49H42.6396V55.31H45.7996ZM63.9996 63.49H47.1896V55.31H63.9996V63.49ZM44.9096 53.92V53H66.2796V53.88L44.9096 53.92ZM68.5496 63.49H65.3996V55.31H68.5596L68.5496 63.49Z" fill="#BA54C8"/>
</svg>
