<svg  width="16" height="28" viewBox="0 0 29 19" fill="none" xmlns="http://www.w3.org/2000/svg">
<path d="M25.31 0.540039H4.13C2.47315 0.540039 1.13 1.88318 1.13 3.54004V15.49C1.13 17.1469 2.47315 18.49 4.13 18.49H25.31C26.9669 18.49 28.31 17.1469 28.31 15.49V3.54004C28.31 1.88318 26.9669 0.540039 25.31 0.540039Z" stroke="white" stroke-linejoin="round"/>
<path d="M22.19 3.70007H7.17004C5.51319 3.70007 4.17004 5.04322 4.17004 6.70007V12.3301C4.17004 13.9869 5.51319 15.3301 7.17004 15.3301H22.19C23.8469 15.3301 25.19 13.9869 25.19 12.3301V6.70007C25.19 5.04322 23.8469 3.70007 22.19 3.70007Z" stroke="white" stroke-linejoin="round"/>
<path d="M14.7501 15.3201C17.9588 15.3201 20.5601 12.7188 20.5601 9.51007C20.5601 6.3013 17.9588 3.70007 14.7501 3.70007C11.5413 3.70007 8.94006 6.3013 8.94006 9.51007C8.94006 12.7188 11.5413 15.3201 14.7501 15.3201Z" stroke="white" stroke-linejoin="round"/>
<path d="M14.5801 8.54007L15.5801 8.90007C15.9366 9.00394 16.2515 9.21734 16.4801 9.51006C16.6605 9.81172 16.7507 10.1587 16.7401 10.5101C16.7646 10.7325 16.7406 10.9577 16.6698 11.17C16.5991 11.3823 16.4831 11.5768 16.3301 11.7401C15.9089 12.0131 15.4109 12.1429 14.9101 12.1101L14.8301 12.9701H14.0001L14.0801 12.0801C13.6728 12.0501 13.2684 11.9899 12.8701 11.9001L12.9501 11.0001H14.76C14.9825 11.0181 15.2059 10.9803 15.4101 10.8901C15.5201 10.8301 15.5701 10.6901 15.5701 10.4801C15.587 10.3375 15.5475 10.1939 15.4601 10.0801C15.3411 9.97413 15.1962 9.90166 15.0401 9.87006L13.9501 9.47007C13.6002 9.36367 13.2924 9.15035 13.0701 8.86007C12.8875 8.5593 12.7971 8.21164 12.8101 7.86007C12.8059 7.56255 12.8709 7.26814 13.0001 7.00006C13.1343 6.78012 13.344 6.61659 13.5901 6.54007C13.9461 6.44912 14.3126 6.40541 14.6801 6.41006L14.7501 5.69006H15.6401L15.5601 6.44006C15.8984 6.47339 16.2331 6.53698 16.5601 6.63007L16.4901 7.47007C16.0201 7.47007 15.4901 7.47007 14.7701 7.47007C14.5527 7.4532 14.3343 7.48392 14.1301 7.56007C14.0201 7.56007 13.9701 7.75006 13.9701 7.98006C13.9575 8.12076 14.0006 8.26076 14.0901 8.37006C14.2416 8.45633 14.4077 8.51396 14.5801 8.54007V8.54007Z" fill="white"/>
</svg>
