<svg width="16" height="28" viewBox="0 0 16 28" fill="none" xmlns="http://www.w3.org/2000/svg">
<path d="M14.03 0.790039H2.83998C2.05574 0.790039 1.41998 1.42579 1.41998 2.21004V18.16C1.41998 18.9443 2.05574 19.58 2.83998 19.58H14.03C14.8142 19.58 15.45 18.9443 15.45 18.16V2.21004C15.45 1.42579 14.8142 0.790039 14.03 0.790039Z" stroke="white" stroke-miterlimit="10"/>
<path d="M12.31 3.54004H4.55998C4.23966 3.54004 3.97998 3.79971 3.97998 4.12004V14.82C3.97998 15.1404 4.23966 15.4 4.55998 15.4H12.31C12.6303 15.4 12.89 15.1404 12.89 14.82V4.12004C12.89 3.79971 12.6303 3.54004 12.31 3.54004Z" stroke="white" stroke-miterlimit="10"/>
<path d="M11.83 19.5801H5.04999V24.4601H11.83V19.5801Z" stroke="white" stroke-miterlimit="10"/>
<path d="M12.85 24.46H4.02003C3.2634 24.46 2.65002 25.0711 2.65002 25.825C2.65002 26.5788 3.2634 27.19 4.02003 27.19H12.85C13.6067 27.19 14.22 26.5788 14.22 25.825C14.22 25.0711 13.6067 24.46 12.85 24.46Z" stroke="white" stroke-miterlimit="10"/>
</svg>
