<svg width="25" height="28" viewBox="0 0 25 28" fill="none" xmlns="http://www.w3.org/2000/svg">
<g clip-path="url(#clip0)">
<path d="M12.2999 1.84002C11.3535 1.84656 10.4177 2.03961 9.54604 2.40812C8.67434 2.77664 7.88385 3.3134 7.21977 3.98769C6.5557 4.66198 6.03108 5.46058 5.67591 6.3378C5.32074 7.21502 5.142 8.15366 5.14991 9.10002C5.14991 13.1 12.4799 25.22 12.4799 25.22C12.4799 25.22 19.5799 13 19.5499 9.00002C19.5447 8.05365 19.3529 7.1176 18.9856 6.2454C18.6183 5.37321 18.0827 4.58198 17.4093 3.91698C16.7359 3.25198 15.9381 2.72625 15.0614 2.36986C14.1846 2.01348 13.2463 1.83343 12.2999 1.84002ZM12.3799 12.27C11.6976 12.2759 11.0289 12.0794 10.4583 11.7052C9.88765 11.3311 9.44081 10.7961 9.17423 10.168C8.90765 9.53991 8.83331 8.84686 8.96061 8.1765C9.08791 7.50615 9.41113 6.88859 9.8894 6.40193C10.3677 5.91527 10.9795 5.58136 11.6476 5.44243C12.3156 5.30349 13.0098 5.36576 13.6425 5.62138C14.2751 5.87699 14.8178 6.31447 15.2018 6.87848C15.5858 7.44249 15.794 8.10771 15.7999 8.79002C15.8039 9.24308 15.7185 9.69249 15.5488 10.1126C15.3791 10.5327 15.1283 10.9152 14.8107 11.2384C14.4931 11.5615 14.115 11.8189 13.6979 11.996C13.2808 12.173 12.833 12.2661 12.3799 12.27Z" fill="#DD548C"/>
<path d="M-875.22 107.24V-595.82L58.23 -1119.31V-445.05" fill="url(#paint0_linear)"/>
</g>
<defs>
<linearGradient id="paint0_linear" x1="-676.93" y1="-361.19" x2="235.29" y2="-902.35" gradientUnits="userSpaceOnUse">
<stop stop-color="white" stop-opacity="0"/>
<stop offset="0.09" stop-color="white" stop-opacity="0.03"/>
<stop offset="0.24" stop-color="white" stop-opacity="0.13"/>
<stop offset="0.43" stop-color="white" stop-opacity="0.29"/>
<stop offset="0.65" stop-color="white" stop-opacity="0.5"/>
<stop offset="0.89" stop-color="white" stop-opacity="0.77"/>
<stop offset="1" stop-color="white" stop-opacity="0.9"/>
</linearGradient>
<clipPath id="clip0">
<rect width="24.71" height="27.06" fill="white"/>
</clipPath>
</defs>
</svg>
