<svg width="112" height="112" viewBox="0 0 112 112" fill="none" xmlns="http://www.w3.org/2000/svg">
<path d="M78.9089 81.03H73.3789V81.09H78.9089V81.03Z" fill="#BA54C8"/>
<path d="M85.8997 48.45H86.0997C86.2609 48.4587 86.4221 48.4333 86.5728 48.3755C86.7235 48.3178 86.8604 48.229 86.9745 48.1148C87.0886 48.0007 87.1775 47.8638 87.2352 47.7131C87.293 47.5624 87.3183 47.4012 87.3097 47.24V31.72V30.5C87.3097 30.1791 87.1822 29.8713 86.9553 29.6444C86.7284 29.4175 86.4206 29.29 86.0997 29.29H26.3997C26.0778 29.29 25.769 29.4172 25.5405 29.6438C25.312 29.8704 25.1823 30.1782 25.1797 30.5V57.12C25.9581 56.7655 26.7729 56.4973 27.6097 56.32V31.72H84.8897V47.25C84.87 47.5419 84.9642 47.83 85.1526 48.0538C85.3409 48.2776 85.6087 48.4196 85.8997 48.45Z" fill="#BA54C8"/>
<path d="M36.5801 62.86C36.4952 62.7816 36.3956 62.7208 36.287 62.6813C36.1784 62.6418 36.063 62.6243 35.9475 62.6299C35.8321 62.6355 35.7189 62.664 35.6146 62.7138C35.5103 62.7637 35.417 62.8337 35.3401 62.92L28.0901 70.92L24.0901 66.79C24.01 66.7081 23.9144 66.643 23.8087 66.5985C23.7031 66.5541 23.5897 66.5312 23.4751 66.5312C23.3605 66.5312 23.2471 66.5541 23.1415 66.5985C23.0359 66.643 22.9402 66.7081 22.8601 66.79C22.6971 66.9532 22.6055 67.1744 22.6055 67.405C22.6055 67.6357 22.6971 67.8569 22.8601 68.02L27.4901 72.83H27.5501H27.6501H27.7601H27.9301H28.1001H28.2101H28.2701L28.3601 72.77C28.3832 72.7746 28.407 72.7746 28.4301 72.77L36.3201 64.05C36.5086 63.9235 36.6408 63.729 36.6893 63.5073C36.7377 63.2855 36.6986 63.0536 36.5801 62.86Z" fill="#BA54C8"/>
<path d="M87.3097 57.07V53.13C87.3183 52.9688 87.293 52.8076 87.2352 52.6569C87.1775 52.5062 87.0886 52.3693 86.9745 52.2552C86.8604 52.141 86.7235 52.0522 86.5728 51.9945C86.4221 51.9367 86.2609 51.9113 86.0997 51.92H85.9097C85.6214 51.9504 85.3561 52.0914 85.1696 52.3133C84.9832 52.5352 84.89 52.8208 84.9097 53.11V56.3C84.1559 56.1473 83.3888 56.0702 82.6197 56.07C79.6985 56.0716 76.8837 57.1668 74.7297 59.14H37.9297C38.7009 59.858 39.3734 60.6751 39.9297 61.57H72.6497C72.3358 62.0658 72.0584 62.5839 71.8197 63.12H40.7797C41.1256 63.9015 41.3806 64.7202 41.5397 65.56H70.9997V66.38C70.9358 66.8574 70.9024 67.3384 70.8997 67.82C70.9028 68.3049 70.9362 68.7892 70.9997 69.27V82.27C70.9997 82.5918 71.1268 82.9006 71.3535 83.1291C71.5801 83.3577 71.8879 83.4874 72.2097 83.49H80.2097C80.5315 83.4874 80.8393 83.3577 81.0659 83.1291C81.2925 82.9006 81.4197 82.5918 81.4197 82.27V79.52C81.8397 79.52 82.2497 79.59 82.6797 79.59C85.374 79.588 87.9856 78.6594 90.0763 76.9599C92.167 75.2604 93.6095 72.8935 94.1618 70.2565C94.7141 67.6194 94.3425 64.8726 93.1094 62.477C91.8763 60.0814 89.8568 58.1829 87.3897 57.1L87.3097 57.07ZM78.9197 81.07H73.3797V75.07C74.808 76.8786 76.7335 78.2306 78.9197 78.96V81.07ZM82.5997 77.85C80.6219 77.85 78.6885 77.2635 77.044 76.1647C75.3995 75.0659 74.1178 73.5041 73.3609 71.6768C72.604 69.8496 72.406 67.8389 72.7918 65.8991C73.1777 63.9593 74.1301 62.1774 75.5286 60.7789C76.9271 59.3804 78.709 58.428 80.6488 58.0421C82.5886 57.6563 84.5993 57.8543 86.4265 58.6112C88.2538 59.3681 89.8156 60.6498 90.9144 62.2943C92.0132 63.9388 92.5997 65.8722 92.5997 67.85C92.5891 70.4952 91.5309 73.0285 89.6567 74.8952C87.7824 76.7619 85.2449 77.81 82.5997 77.81V77.85Z" fill="#BA54C8"/>
<path d="M83.8 67.81L87.6799 63.93C87.764 63.85 87.8311 63.7539 87.8775 63.6476C87.9239 63.5412 87.9485 63.4266 87.9499 63.3106C87.9513 63.1946 87.9295 63.0794 87.8857 62.972C87.842 62.8645 87.7772 62.7669 87.6951 62.6848C87.6131 62.6028 87.5155 62.538 87.408 62.4942C87.3005 62.4505 87.1854 62.4286 87.0694 62.4301C86.9533 62.4315 86.8387 62.4561 86.7324 62.5024C86.626 62.5488 86.53 62.616 86.45 62.7L82.57 66.58L78.69 62.7C78.5251 62.5363 78.3022 62.4445 78.07 62.4445C77.8377 62.4445 77.6148 62.5363 77.45 62.7C77.2869 62.8631 77.1953 63.0843 77.1953 63.315C77.1953 63.5456 77.2869 63.7669 77.45 63.93L81.33 67.81L77.45 71.69C77.3079 71.8586 77.2343 72.0743 77.2437 72.2945C77.253 72.5148 77.3447 72.7235 77.5006 72.8793C77.6565 73.0352 77.8652 73.1269 78.0854 73.1363C78.3057 73.1457 78.5214 73.072 78.69 72.93L82.57 69.05L86.45 72.93C86.6144 73.0906 86.8351 73.1806 87.065 73.1806C87.2948 73.1806 87.5155 73.0906 87.6799 72.93C87.8436 72.7652 87.9355 72.5423 87.9355 72.31C87.9355 72.0777 87.8436 71.8548 87.6799 71.69L83.8 67.81Z" fill="#BA54C8"/>
<path d="M46.4303 46.41C46.2477 46.407 46.0729 46.3356 45.9403 46.21C45.8084 46.077 45.7344 45.8973 45.7344 45.71C45.7344 45.5227 45.8084 45.343 45.9403 45.21L50.8503 40.3C50.9159 40.2343 50.9939 40.1823 51.0797 40.1467C51.1655 40.1112 51.2574 40.0929 51.3503 40.0929C51.4431 40.0929 51.5351 40.1112 51.6209 40.1467C51.7067 40.1823 51.7846 40.2343 51.8503 40.3C51.9159 40.3657 51.968 40.4436 52.0036 40.5294C52.0391 40.6152 52.0574 40.7071 52.0574 40.8C52.0574 40.8929 52.0391 40.9848 52.0036 41.0706C51.968 41.1564 51.9159 41.2343 51.8503 41.3L46.9403 46.21C46.8731 46.2759 46.7933 46.3276 46.7057 46.362C46.618 46.3963 46.5244 46.4127 46.4303 46.41Z" fill="#BA54C8"/>
<path d="M51.3791 50.3C51.288 50.3023 51.1975 50.2857 51.1131 50.2513C51.0288 50.2168 50.9525 50.1653 50.8891 50.1C50.82 50.0363 50.7648 49.959 50.7271 49.873C50.6894 49.7869 50.6699 49.694 50.6699 49.6C50.6699 49.506 50.6894 49.4131 50.7271 49.327C50.7648 49.241 50.82 49.1637 50.8891 49.1L60.5891 39.39C60.722 39.2581 60.9017 39.1841 61.0891 39.1841C61.2764 39.1841 61.4561 39.2581 61.5891 39.39C61.6568 39.4545 61.7108 39.532 61.7477 39.618C61.7845 39.7039 61.8036 39.7965 61.8036 39.89C61.8036 39.9835 61.7845 40.0761 61.7477 40.162C61.7108 40.248 61.6568 40.3255 61.5891 40.39L51.8791 50.1C51.8141 50.1661 51.7361 50.218 51.65 50.2524C51.564 50.2869 51.4717 50.3031 51.3791 50.3Z" fill="#BA54C8"/>
<path d="M58.5592 51.87C58.3766 51.867 58.2018 51.7956 58.0692 51.67C57.9373 51.537 57.8633 51.3573 57.8633 51.17C57.8633 50.9827 57.9373 50.803 58.0692 50.67L63.5492 45.19C63.6149 45.1244 63.6928 45.0723 63.7786 45.0367C63.8644 45.0012 63.9563 44.9829 64.0492 44.9829C64.1421 44.9829 64.234 45.0012 64.3198 45.0367C64.4056 45.0723 64.4835 45.1244 64.5492 45.19C64.6149 45.2557 64.6669 45.3336 64.7025 45.4194C64.738 45.5052 64.7563 45.5972 64.7563 45.69C64.7563 45.7829 64.738 45.8748 64.7025 45.9606C64.6669 46.0464 64.6149 46.1244 64.5492 46.19L59.0692 51.67C58.931 51.7995 58.7485 51.871 58.5592 51.87Z" fill="#BA54C8"/>
<path d="M41.75 67.86C41.75 65.5361 41.0609 63.2643 39.7698 61.332C38.4787 59.3998 36.6436 57.8937 34.4965 57.0044C32.3495 56.1151 29.987 55.8824 27.7077 56.3358C25.4284 56.7891 23.3348 57.9082 21.6915 59.5515C20.0482 61.1948 18.9292 63.2884 18.4758 65.5677C18.0224 67.847 18.2551 70.2095 19.1444 72.3565C20.0337 74.5036 21.5398 76.3387 23.4721 77.6298C25.4043 78.9209 27.6761 79.61 30 79.61C30.3808 79.6102 30.7613 79.5902 31.14 79.55V82.24C31.14 82.5636 31.2685 82.8739 31.4973 83.1027C31.7261 83.3315 32.0364 83.46 32.36 83.46H40.36C40.6818 83.4574 40.9896 83.3277 41.2162 83.0991C41.4428 82.8706 41.57 82.5618 41.57 82.24L41.63 69.76C41.6345 69.8232 41.6345 69.8867 41.63 69.95C41.736 69.2587 41.7762 68.5589 41.75 67.86ZM20.01 67.86C20.01 65.8822 20.5965 63.9488 21.6953 62.3043C22.7941 60.6598 24.3559 59.3781 26.1832 58.6212C28.0104 57.8643 30.0211 57.6663 31.9609 58.0521C33.9007 58.438 35.6825 59.3904 37.0811 60.7889C38.4796 62.1875 39.432 63.9693 39.8179 65.9091C40.2037 67.8489 40.0057 69.8596 39.2488 71.6868C38.4919 73.5141 37.2102 75.0759 35.5657 76.1747C33.9212 77.2735 31.9878 77.86 30.01 77.86C28.6959 77.8613 27.3945 77.6036 26.1801 77.1017C24.9657 76.5997 23.8621 75.8633 22.9325 74.9346C22.0028 74.0059 21.2653 72.903 20.7622 71.6891C20.259 70.4752 20 69.1741 20 67.86H20.01ZM39.11 81V81.15H33.58V79.02C35.749 78.3191 37.6693 77.0064 39.11 75.24V81Z" fill="#BA54C8"/>
</svg>
