<svg width="147" height="147" viewBox="0 0 147 147" fill="none" xmlns="http://www.w3.org/2000/svg">
<path d="M73.591 122.43C100.543 122.43 122.391 100.581 122.391 73.63C122.391 46.6785 100.543 24.83 73.591 24.83C46.6395 24.83 24.791 46.6785 24.791 73.63C24.791 100.581 46.6395 122.43 73.591 122.43Z" fill="url(#paint0_linear)"/>
<path d="M73.5897 129.54C104.468 129.54 129.5 104.508 129.5 73.63C129.5 42.7517 104.468 17.72 73.5897 17.72C42.7114 17.72 17.6797 42.7517 17.6797 73.63C17.6797 104.508 42.7114 129.54 73.5897 129.54Z" stroke="url(#paint1_linear)" stroke-width="2" stroke-miterlimit="10"/>
<path opacity="0.67" d="M73.5898 137.13C108.66 137.13 137.09 108.7 137.09 73.63C137.09 38.5599 108.66 10.13 73.5898 10.13C38.5198 10.13 10.0898 38.5599 10.0898 73.63C10.0898 108.7 38.5198 137.13 73.5898 137.13Z" stroke="url(#paint2_linear)" stroke-width="2" stroke-miterlimit="10"/>
<path opacity="0.12" d="M73.5901 145.39C113.222 145.39 145.35 113.262 145.35 73.63C145.35 33.998 113.222 1.87 73.5901 1.87C33.9581 1.87 1.83008 33.998 1.83008 73.63C1.83008 113.262 33.9581 145.39 73.5901 145.39Z" stroke="url(#paint3_linear)" stroke-width="2" stroke-miterlimit="10"/>
<path d="M66.3997 49.36H42.6397C41.211 49.3626 39.8416 49.9313 38.8313 50.9416C37.8211 51.9518 37.2523 53.3213 37.2497 54.75V81.29C37.0367 81.4659 36.8331 81.6528 36.6397 81.85C35.5354 82.9389 34.7177 84.2842 34.2595 85.7658C33.8013 87.2474 33.7168 88.8194 34.0135 90.3416C34.3102 91.8638 34.979 93.289 35.9601 94.49C36.9413 95.6911 38.2044 96.6307 39.6368 97.2252C41.0692 97.8196 42.6265 98.0504 44.1697 97.897C45.713 97.7436 47.1943 97.2107 48.4817 96.3459C49.769 95.4811 50.8224 94.3112 51.5479 92.9405C52.2734 91.5698 52.6485 90.0408 52.6397 88.49C52.6397 88.26 52.6397 88.03 52.6397 87.8H62.6397C63.6343 87.8 64.5881 87.4049 65.2913 86.7016C65.9946 85.9984 66.3897 85.0445 66.3897 84.05V60.18C66.3897 59.1854 65.9946 58.2316 65.2913 57.5283C64.5881 56.8251 63.6343 56.43 62.6397 56.43H56.8197C56.6579 56.43 56.5028 56.4943 56.3884 56.6087C56.274 56.723 56.2097 56.8782 56.2097 57.04C56.2097 57.2018 56.274 57.3569 56.3884 57.4713C56.5028 57.5857 56.6579 57.65 56.8197 57.65H62.6897C63.359 57.6526 63.9999 57.9204 64.4722 58.3945C64.9445 58.8687 65.2097 59.5107 65.2097 60.18V84.05C65.2097 84.7183 64.9442 85.3593 64.4716 85.8319C63.999 86.3045 63.358 86.57 62.6897 86.57H52.4897C52.0648 84.5495 50.9864 82.7251 49.4212 81.3786C47.856 80.0321 45.891 79.2383 43.8297 79.12V60.18C43.8297 59.509 44.0962 58.8655 44.5707 58.391C45.0452 57.9165 45.6887 57.65 46.3597 57.65C46.5215 57.65 46.6766 57.5857 46.791 57.4713C46.9054 57.3569 46.9697 57.2018 46.9697 57.04C46.9697 56.8782 46.9054 56.723 46.791 56.6087C46.6766 56.4943 46.5215 56.43 46.3597 56.43C45.3642 56.43 44.4094 56.8247 43.7045 57.5277C42.9997 58.2307 42.6023 59.1845 42.5997 60.18V79.13C41.3027 79.2212 40.0391 79.5823 38.8897 80.19V54.75C38.8897 53.7554 39.2848 52.8016 39.988 52.0983C40.6913 51.3951 41.6451 51 42.6397 51H66.3997C67.3943 51 68.3481 51.3951 69.0513 52.0983C69.7546 52.8016 70.1497 53.7554 70.1497 54.75V89.48C70.1497 90.4745 69.7546 91.4284 69.0513 92.1316C68.3481 92.8349 67.3943 93.23 66.3997 93.23H57.8697C57.6522 93.23 57.4436 93.3164 57.2899 93.4702C57.1361 93.6239 57.0497 93.8325 57.0497 94.05C57.0497 94.2675 57.1361 94.476 57.2899 94.6298C57.4436 94.7836 57.6522 94.87 57.8697 94.87H66.3997C67.8284 94.8673 69.1978 94.2986 70.2081 93.2884C71.2183 92.2781 71.7871 90.9087 71.7897 89.48V54.75C71.7871 53.3213 71.2183 51.9518 70.2081 50.9416C69.1978 49.9313 67.8284 49.3626 66.3997 49.36ZM43.2897 80.36C43.4696 80.35 43.6498 80.35 43.8297 80.36C45.8063 80.4788 47.6707 81.3185 49.0697 82.72C50.1305 83.7839 50.8778 85.1194 51.2297 86.58C51.3214 86.9855 51.3882 87.3963 51.4297 87.81C51.4297 88.0433 51.4297 88.2733 51.4297 88.5C51.432 90.0894 50.9712 91.645 50.1036 92.9767C49.2361 94.3084 47.9994 95.3585 46.5446 95.9987C45.0899 96.6389 43.4802 96.8415 41.9122 96.5816C40.3442 96.3217 38.8859 95.6107 37.7155 94.5354C36.5451 93.4601 35.7133 92.0671 35.3218 90.5267C34.9303 88.9863 34.996 87.3653 35.5109 85.8616C36.0258 84.358 36.9676 83.0369 38.2212 82.0598C39.4748 81.0828 40.9858 80.4921 42.5697 80.36C42.8164 80.3333 43.0564 80.32 43.2897 80.32V80.36Z" fill="white" stroke="white" stroke-width="0.2" stroke-miterlimit="10"/>
<path d="M47.4802 85.67C47.3846 85.5747 47.2551 85.5212 47.1202 85.5212C46.9852 85.5212 46.8558 85.5747 46.7602 85.67L42.2102 90.22L39.8202 87.83C39.7229 87.7341 39.5918 87.6804 39.4552 87.6804C39.3186 87.6804 39.1875 87.7341 39.0902 87.83C38.9949 87.9256 38.9414 88.055 38.9414 88.19C38.9414 88.3249 38.9949 88.4544 39.0902 88.55L41.8502 91.31C41.9458 91.4053 42.0752 91.4587 42.2102 91.4587C42.3451 91.4587 42.4746 91.4053 42.5702 91.31L47.4802 86.4C47.5301 86.3532 47.5699 86.2967 47.5972 86.2339C47.6244 86.1711 47.6384 86.1034 47.6384 86.035C47.6384 85.9666 47.6244 85.8989 47.5972 85.8361C47.5699 85.7733 47.5301 85.7168 47.4802 85.67Z" fill="white" stroke="white" stroke-width="0.2" stroke-miterlimit="10"/>
<path d="M107.9 49.36H84.1397C82.711 49.3626 81.3416 49.9313 80.3313 50.9416C79.3211 51.9518 78.7523 53.3213 78.7497 54.75V81.29C78.5367 81.4659 78.3331 81.6528 78.1397 81.85C77.0354 82.9389 76.2177 84.2842 75.7595 85.7658C75.3013 87.2474 75.2168 88.8194 75.5135 90.3416C75.8102 91.8638 76.479 93.289 77.4601 94.49C78.4413 95.6911 79.7044 96.6307 81.1368 97.2252C82.5692 97.8196 84.1265 98.0504 85.6697 97.897C87.213 97.7436 88.6943 97.2107 89.9817 96.3459C91.269 95.4811 92.3224 94.3112 93.0479 92.9405C93.7734 91.5698 94.1485 90.0408 94.1397 88.49C94.1397 88.2633 94.1397 88.0333 94.1397 87.8H104.14C105.135 87.8 106.09 87.4052 106.795 86.7022C107.5 85.9993 107.897 85.0455 107.9 84.05V60.18C107.897 59.1845 107.5 58.2307 106.795 57.5277C106.09 56.8247 105.135 56.43 104.14 56.43H98.2797C98.1179 56.43 97.9628 56.4943 97.8484 56.6087C97.734 56.723 97.6697 56.8782 97.6697 57.04C97.6697 57.2018 97.734 57.3569 97.8484 57.4713C97.9628 57.5857 98.1179 57.65 98.2797 57.65H104.14C104.811 57.65 105.454 57.9165 105.929 58.391C106.403 58.8655 106.67 59.509 106.67 60.18V84.05C106.67 84.3818 106.604 84.7103 106.477 85.0167C106.35 85.3231 106.163 85.6013 105.928 85.8354C105.693 86.0696 105.414 86.255 105.107 86.381C104.8 86.5071 104.471 86.5713 104.14 86.57H93.9997C93.5748 84.5495 92.4964 82.7251 90.9312 81.3786C89.366 80.0321 87.401 79.2383 85.3397 79.12V60.18C85.3397 59.509 85.6062 58.8655 86.0807 58.391C86.5552 57.9165 87.1987 57.65 87.8697 57.65C88.0315 57.65 88.1866 57.5857 88.301 57.4713C88.4154 57.3569 88.4797 57.2018 88.4797 57.04C88.4797 56.8782 88.4154 56.723 88.301 56.6087C88.1866 56.4943 88.0315 56.43 87.8697 56.43C86.8742 56.43 85.9193 56.8247 85.2145 57.5277C84.5096 58.2307 84.1123 59.1845 84.1097 60.18V79.13C82.8127 79.2212 81.5491 79.5823 80.3997 80.19V54.75C80.3997 53.7572 80.7934 52.8048 81.4945 52.1019C82.1956 51.3989 83.1469 51.0026 84.1397 51H107.9C108.894 51 109.848 51.3951 110.551 52.0983C111.255 52.8016 111.65 53.7554 111.65 54.75V89.48C111.65 90.4745 111.255 91.4284 110.551 92.1316C109.848 92.8349 108.894 93.23 107.9 93.23H99.3697C99.1522 93.23 98.9436 93.3164 98.7899 93.4702C98.6361 93.6239 98.5497 93.8325 98.5497 94.05C98.5497 94.2675 98.6361 94.476 98.7899 94.6298C98.9436 94.7836 99.1522 94.87 99.3697 94.87H107.9C109.328 94.8673 110.698 94.2986 111.708 93.2884C112.718 92.2781 113.287 90.9087 113.29 89.48V54.75C113.287 53.3213 112.718 51.9518 111.708 50.9416C110.698 49.9313 109.328 49.3626 107.9 49.36ZM84.7897 80.36C84.9696 80.35 85.1498 80.35 85.3297 80.36C87.0666 80.4642 88.7236 81.1256 90.0549 82.246C91.3861 83.3665 92.3206 84.8863 92.7197 86.58C92.8211 86.9836 92.888 87.3951 92.9197 87.81C92.9197 88.04 92.9197 88.27 92.9197 88.5C92.922 90.0894 92.4612 91.645 91.5936 92.9767C90.7261 94.3084 89.4894 95.3585 88.0346 95.9987C86.5799 96.6389 84.9702 96.8415 83.4022 96.5816C81.8342 96.3217 80.3759 95.6107 79.2055 94.5354C78.0351 93.4601 77.2033 92.0671 76.8118 90.5267C76.4203 88.9863 76.486 87.3653 77.0009 85.8616C77.5158 84.358 78.4576 83.0369 79.7112 82.0598C80.9648 81.0828 82.4758 80.4921 84.0597 80.36C84.3197 80.3333 84.563 80.32 84.7897 80.32V80.36Z" fill="white" stroke="white" stroke-width="0.2" stroke-miterlimit="10"/>
<path d="M85.5207 88.49L87.9007 86.11C87.9385 86.0728 87.9685 86.0284 87.989 85.9795C88.0094 85.9305 88.02 85.878 88.02 85.825C88.02 85.7719 88.0094 85.7194 87.989 85.6705C87.9685 85.6216 87.9385 85.5772 87.9007 85.54C87.8626 85.5019 87.8174 85.4716 87.7676 85.451C87.7179 85.4304 87.6645 85.4198 87.6107 85.4198C87.5568 85.4198 87.5035 85.4304 87.4537 85.451C87.4039 85.4716 87.3587 85.5019 87.3207 85.54L84.9407 87.91L82.5607 85.54C82.5226 85.5019 82.4774 85.4716 82.4276 85.451C82.3779 85.4304 82.3245 85.4198 82.2707 85.4198C82.2168 85.4198 82.1635 85.4304 82.1137 85.451C82.0639 85.4716 82.0187 85.5019 81.9807 85.54C81.9429 85.5772 81.9129 85.6216 81.8924 85.6705C81.8719 85.7194 81.8613 85.7719 81.8613 85.825C81.8613 85.878 81.8719 85.9305 81.8924 85.9795C81.9129 86.0284 81.9429 86.0728 81.9807 86.11L84.3607 88.49L82.0007 90.87C81.9626 90.908 81.9323 90.9533 81.9117 91.003C81.8911 91.0528 81.8805 91.1061 81.8805 91.16C81.8805 91.2138 81.8911 91.2672 81.9117 91.3169C81.9323 91.3667 81.9626 91.4119 82.0007 91.45C82.0782 91.5259 82.1821 91.5689 82.2907 91.57C82.3446 91.5706 82.3981 91.5602 82.4479 91.5396C82.4978 91.519 82.5429 91.4885 82.5807 91.45L84.9607 89.07L87.3407 91.45C87.3784 91.4885 87.4236 91.519 87.4734 91.5396C87.5232 91.5602 87.5767 91.5706 87.6307 91.57C87.7392 91.5689 87.8431 91.5259 87.9207 91.45C87.9588 91.4119 87.989 91.3667 88.0096 91.3169C88.0302 91.2672 88.0408 91.2138 88.0408 91.16C88.0408 91.1061 88.0302 91.0528 88.0096 91.003C87.989 90.9533 87.9588 90.908 87.9207 90.87L85.5207 88.49Z" fill="white" stroke="white" stroke-width="0.2" stroke-miterlimit="10"/>
<defs>
<linearGradient id="paint0_linear" x1="17.8079" y1="112.773" x2="137.194" y2="28.992" gradientUnits="userSpaceOnUse">
<stop stop-color="#FF5350"/>
<stop offset="0.17" stop-color="#FE5354"/>
<stop offset="0.36" stop-color="#F95361"/>
<stop offset="0.54" stop-color="#F25375"/>
<stop offset="0.73" stop-color="#E85392"/>
<stop offset="0.91" stop-color="#DB53B7"/>
<stop offset="1" stop-color="#D453CC"/>
</linearGradient>
<linearGradient class="a" id="paint1_linear" x1="2441.94" y1="9369.23" x2="15168.2" y2="9369.23" gradientUnits="userSpaceOnUse">
<stop stop-color="#FF5350"/>
<stop offset="0.17" stop-color="#FE5354"/>
<stop offset="0.36" stop-color="#F95361"/>
<stop offset="0.54" stop-color="#F25375"/>
<stop offset="0.73" stop-color="#E85392"/>
<stop offset="0.91" stop-color="#DB53B7"/>
<stop offset="1" stop-color="#D453CC"/>
</linearGradient>
<linearGradient class="b" id="paint2_linear" x1="1799.52" y1="10631.1" x2="18182.5" y2="10631.1" gradientUnits="userSpaceOnUse">
<stop stop-color="#FF5350"/>
<stop offset="0.17" stop-color="#FE5354"/>
<stop offset="0.36" stop-color="#F95361"/>
<stop offset="0.54" stop-color="#F25375"/>
<stop offset="0.73" stop-color="#E85392"/>
<stop offset="0.91" stop-color="#DB53B7"/>
<stop offset="1" stop-color="#D453CC"/>
</linearGradient>
<linearGradient class="b" id="paint3_linear" x1="838.552" y1="12004.4" x2="21723.6" y2="12004.4" gradientUnits="userSpaceOnUse">
<stop stop-color="#FF5350"/>
<stop offset="0.17" stop-color="#FE5354"/>
<stop offset="0.36" stop-color="#F95361"/>
<stop offset="0.54" stop-color="#F25375"/>
<stop offset="0.73" stop-color="#E85392"/>
<stop offset="0.91" stop-color="#DB53B7"/>
<stop offset="1" stop-color="#D453CC"/>
</linearGradient>
</defs>
</svg>
