<svg width="146" height="147" viewBox="0 0 146 147" fill="none" xmlns="http://www.w3.org/2000/svg">
<path d="M72.9992 122.35C99.9507 122.35 121.799 100.501 121.799 73.55C121.799 46.5985 99.9507 24.75 72.9992 24.75C46.0477 24.75 24.1992 46.5985 24.1992 73.55C24.1992 100.501 46.0477 122.35 72.9992 122.35Z" fill="url(#paint0_linear)"/>
<path d="M72.9998 129.46C103.878 129.46 128.91 104.428 128.91 73.55C128.91 42.6718 103.878 17.64 72.9998 17.64C42.1216 17.64 17.0898 42.6718 17.0898 73.55C17.0898 104.428 42.1216 129.46 72.9998 129.46Z" stroke="url(#paint1_linear)" stroke-width="2" stroke-miterlimit="10"/>
<path opacity="0.67" d="M73 137.05C108.07 137.05 136.5 108.62 136.5 73.5501C136.5 38.48 108.07 10.05 73 10.05C37.9299 10.05 9.5 38.48 9.5 73.5501C9.5 108.62 37.9299 137.05 73 137.05Z" stroke="url(#paint2_linear)" stroke-width="2" stroke-miterlimit="10"/>
<path opacity="0.12" d="M72.9983 145.31C112.63 145.31 144.758 113.182 144.758 73.55C144.758 33.9181 112.63 1.79004 72.9983 1.79004C33.3663 1.79004 1.23828 33.9181 1.23828 73.55C1.23828 113.182 33.3663 145.31 72.9983 145.31Z" stroke="url(#paint3_linear)" stroke-width="2" stroke-miterlimit="10"/>
<path d="M72.8088 77.92C69.8732 77.92 67.0037 77.0494 64.5631 75.4183C62.1224 73.7872 60.2203 71.4689 59.0974 68.7567C57.9745 66.0445 57.6812 63.0601 58.2546 60.1812C58.8281 57.3022 60.2424 54.658 62.3188 52.583C64.3952 50.508 67.0404 49.0954 69.9198 48.5239C72.7991 47.9525 75.7832 48.2478 78.4947 49.3725C81.2062 50.4972 83.5232 52.4009 85.1526 54.8426C86.7821 57.2843 87.6507 60.1545 87.6488 63.09C87.6461 67.0241 86.0814 70.7961 83.2987 73.577C80.5159 76.3579 76.7428 77.92 72.8088 77.92V77.92ZM72.8088 50.25C70.2692 50.25 67.7868 51.003 65.6752 52.4139C63.5637 53.8248 61.918 55.8301 60.9461 58.1763C59.9743 60.5225 59.72 63.1042 60.2155 65.595C60.7109 68.0857 61.9338 70.3735 63.7295 72.1692C65.5252 73.965 67.8131 75.1878 70.3038 75.6833C72.7945 76.1787 75.3762 75.9244 77.7224 74.9526C80.0686 73.9808 82.0739 72.335 83.4848 70.2235C84.8957 68.112 85.6488 65.6295 85.6488 63.09C85.6461 59.6854 84.2925 56.4211 81.8851 54.0137C79.4777 51.6063 76.2133 50.2526 72.8088 50.25Z" fill="white"/>
<path d="M51.0664 95.4501C50.8012 95.4501 50.5468 95.3447 50.3593 95.1572C50.1718 94.9697 50.0664 94.7153 50.0664 94.4501C50.0664 83.8401 55.0664 76.2601 64.0664 73.1001C64.1905 73.0558 64.3221 73.0364 64.4537 73.043C64.5853 73.0497 64.7143 73.0823 64.8332 73.139C64.9522 73.1957 65.0587 73.2753 65.1468 73.3733C65.2349 73.4714 65.3027 73.5858 65.3464 73.7101C65.3915 73.8373 65.4103 73.9724 65.4018 74.1071C65.3932 74.2418 65.3575 74.3733 65.2968 74.4939C65.2361 74.6144 65.1516 74.7214 65.0484 74.8084C64.9452 74.8954 64.8255 74.9606 64.6964 75.0001C54.2564 78.6601 52.0664 87.6001 52.0664 94.4601C52.0638 94.7236 51.9573 94.9754 51.77 95.1608C51.5827 95.3461 51.3299 95.4501 51.0664 95.4501V95.4501Z" fill="white"/>
<path d="M94.9284 95.4501C94.6631 95.4501 94.4088 95.3447 94.2212 95.1572C94.0337 94.9697 93.9284 94.7153 93.9284 94.4501C93.9284 87.5901 91.7384 78.6501 81.2984 74.9901C81.1732 74.9474 81.0577 74.8803 80.9586 74.7926C80.8595 74.705 80.7788 74.5986 80.7211 74.4795C80.6634 74.3605 80.63 74.2312 80.6226 74.0991C80.6153 73.967 80.6342 73.8348 80.6784 73.7101C80.7217 73.581 80.7909 73.4622 80.8818 73.3608C80.9727 73.2594 81.0833 73.1777 81.2069 73.1206C81.3305 73.0634 81.4644 73.0322 81.6005 73.0287C81.7366 73.0251 81.872 73.0494 81.9984 73.1001C90.9984 76.2601 95.9984 83.8401 95.9984 94.4501C95.9987 94.5875 95.9707 94.7235 95.9161 94.8497C95.8615 94.9758 95.7816 95.0893 95.6812 95.1831C95.5808 95.277 95.4621 95.3491 95.3326 95.395C95.203 95.441 95.0654 95.4597 94.9284 95.4501Z" fill="white"/>
<path d="M73.4189 82.1901C73.8289 82.1902 74.2295 82.3127 74.5694 82.5418C74.9093 82.771 75.1732 83.0963 75.3272 83.4762C75.4812 83.8561 75.5183 84.2734 75.4339 84.6745C75.3494 85.0757 75.1471 85.4425 74.853 85.7281C74.5589 86.0136 74.1862 86.2049 73.7828 86.2775C73.3793 86.3501 72.9634 86.3006 72.5881 86.1355C72.2129 85.9703 71.8955 85.697 71.6766 85.3504C71.4576 85.0039 71.347 84.5998 71.3589 84.1901C71.3745 83.6542 71.5985 83.1455 71.9831 82.7721C72.3677 82.3986 72.8828 82.1898 73.4189 82.1901ZM73.4189 80.1901C72.6134 80.1902 71.8261 80.4299 71.1572 80.8787C70.4883 81.3275 69.968 81.9652 69.6626 82.7105C69.3571 83.4559 69.2803 84.2753 69.4419 85.0645C69.6035 85.8536 69.9962 86.5769 70.57 87.1422C71.1438 87.7075 71.8728 88.0894 72.6643 88.2392C73.4558 88.389 74.2739 88.3 75.0146 87.9835C75.7554 87.667 76.3852 87.1373 76.8241 86.4618C77.2629 85.7863 77.4908 84.9955 77.4789 84.1901C77.4632 83.1237 77.0285 82.1064 76.2688 81.3579C75.5091 80.6094 74.4854 80.1899 73.4189 80.1901V80.1901Z" fill="white"/>
<path d="M73.4194 92.2001C73.8268 92.2001 74.2251 92.3209 74.5639 92.5472C74.9026 92.7736 75.1666 93.0953 75.3226 93.4717C75.4785 93.8482 75.5193 94.2624 75.4398 94.662C75.3603 95.0616 75.1641 95.4286 74.876 95.7167C74.5879 96.0048 74.2209 96.201 73.8213 96.2805C73.4217 96.36 73.0075 96.3192 72.6311 96.1633C72.2546 96.0074 71.9329 95.7433 71.7066 95.4045C71.4802 95.0658 71.3594 94.6675 71.3594 94.2601C71.3594 93.7137 71.5764 93.1898 71.9627 92.8034C72.3491 92.4171 72.873 92.2001 73.4194 92.2001V92.2001ZM73.4194 90.2001C72.6164 90.2001 71.8314 90.4382 71.1638 90.8843C70.4961 91.3304 69.9757 91.9645 69.6684 92.7064C69.3611 93.4483 69.2807 94.2646 69.4374 95.0521C69.594 95.8397 69.9807 96.5631 70.5485 97.1309C71.1163 97.6987 71.8397 98.0854 72.6273 98.2421C73.4149 98.3987 74.2312 98.3183 74.9731 98.011C75.7149 97.7037 76.349 97.1834 76.7951 96.5157C77.2413 95.848 77.4794 95.0631 77.4794 94.2601C77.4794 93.7269 77.3744 93.199 77.1703 92.7064C76.9663 92.2138 76.6672 91.7662 76.2902 91.3892C75.9132 91.0122 75.4657 90.7132 74.9731 90.5091C74.4805 90.3051 73.9525 90.2001 73.4194 90.2001Z" fill="white"/>
<defs>
<linearGradient id="paint0_linear" x1="17.2212" y1="112.694" x2="136.607" y2="28.9125" gradientUnits="userSpaceOnUse">
<stop stop-color="#FF5350"/>
<stop offset="0.17" stop-color="#FE5354"/>
<stop offset="0.36" stop-color="#F95361"/>
<stop offset="0.54" stop-color="#F25375"/>
<stop offset="0.73" stop-color="#E85392"/>
<stop offset="0.91" stop-color="#DB53B7"/>
<stop offset="1" stop-color="#D453CC"/>
</linearGradient>
<linearGradient class="a" id="paint1_linear" x1="2039.91" y1="9136.56" x2="14767.3" y2="9136.56" gradientUnits="userSpaceOnUse">
<stop stop-color="#FF5350"/>
<stop offset="0.17" stop-color="#FE5354"/>
<stop offset="0.36" stop-color="#F95361"/>
<stop offset="0.54" stop-color="#F25375"/>
<stop offset="0.73" stop-color="#E85392"/>
<stop offset="0.91" stop-color="#DB53B7"/>
<stop offset="1" stop-color="#D453CC"/>
</linearGradient>
<linearGradient class="b" id="paint2_linear" x1="1343" y1="10366.9" x2="17726" y2="10366.9" gradientUnits="userSpaceOnUse">
<stop stop-color="#FF5350"/>
<stop offset="0.17" stop-color="#FE5354"/>
<stop offset="0.36" stop-color="#F95361"/>
<stop offset="0.54" stop-color="#F25375"/>
<stop offset="0.73" stop-color="#E85392"/>
<stop offset="0.91" stop-color="#DB53B7"/>
<stop offset="1" stop-color="#D453CC"/>
</linearGradient>
<linearGradient class="c" id="paint3_linear" x1="322.723" y1="11705.8" x2="21207.8" y2="11705.8" gradientUnits="userSpaceOnUse">
<stop stop-color="#FF5350"/>
<stop offset="0.17" stop-color="#FE5354"/>
<stop offset="0.36" stop-color="#F95361"/>
<stop offset="0.54" stop-color="#F25375"/>
<stop offset="0.73" stop-color="#E85392"/>
<stop offset="0.91" stop-color="#DB53B7"/>
<stop offset="1" stop-color="#D453CC"/>
</linearGradient>
</defs>
</svg>
