<svg width="146" height="147" viewBox="0 0 146 147" fill="none" xmlns="http://www.w3.org/2000/svg">
<path d="M72.9992 122.35C99.9507 122.35 121.799 100.501 121.799 73.55C121.799 46.5985 99.9507 24.75 72.9992 24.75C46.0477 24.75 24.1992 46.5985 24.1992 73.55C24.1992 100.501 46.0477 122.35 72.9992 122.35Z" fill="url(#paint0_linear)"/>
<path d="M72.9998 129.46C103.878 129.46 128.91 104.428 128.91 73.55C128.91 42.6718 103.878 17.64 72.9998 17.64C42.1216 17.64 17.0898 42.6718 17.0898 73.55C17.0898 104.428 42.1216 129.46 72.9998 129.46Z" stroke="url(#paint1_linear)" stroke-width="2" stroke-miterlimit="10"/>
<path opacity="0.67" d="M73 137.05C108.07 137.05 136.5 108.62 136.5 73.5501C136.5 38.48 108.07 10.05 73 10.05C37.9299 10.05 9.5 38.48 9.5 73.5501C9.5 108.62 37.9299 137.05 73 137.05Z" stroke="url(#paint2_linear)" stroke-width="2" stroke-miterlimit="10"/>
<path opacity="0.12" d="M72.9983 145.31C112.63 145.31 144.758 113.182 144.758 73.55C144.758 33.9181 112.63 1.79004 72.9983 1.79004C33.3663 1.79004 1.23828 33.9181 1.23828 73.55C1.23828 113.182 33.3663 145.31 72.9983 145.31Z" stroke="url(#paint3_linear)" stroke-width="2" stroke-miterlimit="10"/>
<path d="M99.7586 101.91H58.6986C57.666 101.907 56.6766 101.495 55.9473 100.764C55.2181 100.033 54.8086 99.0427 54.8086 98.0101V62.2101C54.8086 61.1774 55.2181 60.187 55.9473 59.4559C56.6766 58.7248 57.666 58.3127 58.6986 58.3101H99.7586C100.791 58.3127 101.781 58.7248 102.51 59.4559C103.239 60.187 103.649 61.1774 103.649 62.2101V98.0001C103.65 98.5122 103.55 99.0196 103.356 99.4933C103.161 99.967 102.875 100.398 102.513 100.761C102.152 101.124 101.723 101.412 101.25 101.609C100.778 101.807 100.271 101.909 99.7586 101.91V101.91ZM58.6986 60.3101C58.1964 60.3127 57.7157 60.514 57.3615 60.8701C57.0074 61.2261 56.8086 61.7079 56.8086 62.2101V98.0001C56.8086 98.5022 57.0074 98.984 57.3615 99.34C57.7157 99.6961 58.1964 99.8974 58.6986 99.9001H99.7586C100.261 99.8974 100.741 99.6961 101.096 99.34C101.45 98.984 101.649 98.5022 101.649 98.0001V62.2101C101.649 61.7079 101.45 61.2261 101.096 60.8701C100.741 60.514 100.261 60.3127 99.7586 60.3101H58.6986Z" fill="white"/>
<path d="M102.649 66.77H55.8086C55.5434 66.77 55.289 66.6647 55.1015 66.4771C54.9139 66.2896 54.8086 66.0352 54.8086 65.77C54.8086 65.5048 54.9139 65.2505 55.1015 65.0629C55.289 64.8754 55.5434 64.77 55.8086 64.77H102.649C102.914 64.77 103.168 64.8754 103.356 65.0629C103.543 65.2505 103.649 65.5048 103.649 65.77C103.649 66.0352 103.543 66.2896 103.356 66.4771C103.168 66.6647 102.914 66.77 102.649 66.77Z" fill="white"/>
<path d="M55.8084 89.71H46.8984C46.1028 89.71 45.3397 89.394 44.7771 88.8313C44.2145 88.2687 43.8984 87.5057 43.8984 86.71V49.15C43.8984 48.3544 44.2145 47.5913 44.7771 47.0287C45.3397 46.4661 46.1028 46.15 46.8984 46.15H89.6884C90.4841 46.15 91.2471 46.4661 91.8098 47.0287C92.3724 47.5913 92.6884 48.3544 92.6884 49.15V59.31H90.6884V49.15C90.6884 48.8848 90.5831 48.6305 90.3955 48.4429C90.208 48.2554 89.9537 48.15 89.6884 48.15H46.8984C46.6332 48.15 46.3789 48.2554 46.1913 48.4429C46.0038 48.6305 45.8984 48.8848 45.8984 49.15V86.68C45.8984 86.9452 46.0038 87.1996 46.1913 87.3871C46.3789 87.5747 46.6332 87.68 46.8984 87.68H55.8084V89.71Z" fill="white"/>
<path d="M91.7172 54.5801H44.8672C44.602 54.5801 44.3476 54.4747 44.1601 54.2872C43.9725 54.0996 43.8672 53.8453 43.8672 53.5801C43.8672 53.3149 43.9725 53.0605 44.1601 52.873C44.3476 52.6854 44.602 52.5801 44.8672 52.5801H91.7172C91.9824 52.5801 92.2368 52.6854 92.4243 52.873C92.6118 53.0605 92.7172 53.3149 92.7172 53.5801C92.7172 53.8453 92.6118 54.0996 92.4243 54.2872C92.2368 54.4747 91.9824 54.5801 91.7172 54.5801Z" fill="white"/>
<path d="M65.2383 80.12H66.4783L67.1883 84.47L69.1883 80.12H70.3583L71.2283 84.47L73.0983 80.12H74.2983L71.5983 86H70.4883L69.5583 81.64L67.5583 86H66.3383L65.2383 80.12Z" fill="white"/>
<path d="M74.8867 80.12H76.1267L76.8367 84.47L78.8367 80.12H79.9967L80.8567 84.47L82.7167 80.12H83.9967L81.2467 86H80.1267L79.2067 81.64L77.2067 86H75.9967L74.8867 80.12Z" fill="white"/>
<path d="M84.5391 80.12H85.7791L86.4791 84.47L88.4791 80.12H89.6491L90.5091 84.47L92.3691 80.12H93.5991L90.8991 86H89.7791L88.8491 81.64L86.8491 86H85.6391L84.5391 80.12Z" fill="white"/>
<defs>
<linearGradient id="paint0_linear" x1="17.2165" y1="112.695" x2="136.602" y2="28.914" gradientUnits="userSpaceOnUse">
<stop stop-color="#FF5350"/>
<stop offset="0.17" stop-color="#FE5354"/>
<stop offset="0.36" stop-color="#F95361"/>
<stop offset="0.54" stop-color="#F25375"/>
<stop offset="0.73" stop-color="#E85392"/>
<stop offset="0.91" stop-color="#DB53B7"/>
<stop offset="1" stop-color="#D453CC"/>
</linearGradient>
<linearGradient class="a" id="paint1_linear" x1="2039.91" y1="9136.56" x2="14767.3" y2="9136.56" gradientUnits="userSpaceOnUse">
<stop stop-color="#FF5350"/>
<stop offset="0.17" stop-color="#FE5354"/>
<stop offset="0.36" stop-color="#F95361"/>
<stop offset="0.54" stop-color="#F25375"/>
<stop offset="0.73" stop-color="#E85392"/>
<stop offset="0.91" stop-color="#DB53B7"/>
<stop offset="1" stop-color="#D453CC"/>
</linearGradient>
<linearGradient class="b" id="paint2_linear" x1="1343" y1="10366.9" x2="17726" y2="10366.9" gradientUnits="userSpaceOnUse">
<stop stop-color="#FF5350"/>
<stop offset="0.17" stop-color="#FE5354"/>
<stop offset="0.36" stop-color="#F95361"/>
<stop offset="0.54" stop-color="#F25375"/>
<stop offset="0.73" stop-color="#E85392"/>
<stop offset="0.91" stop-color="#DB53B7"/>
<stop offset="1" stop-color="#D453CC"/>
</linearGradient>
<linearGradient class="c" id="paint3_linear" x1="322.723" y1="11705.8" x2="21207.8" y2="11705.8" gradientUnits="userSpaceOnUse">
<stop stop-color="#FF5350"/>
<stop offset="0.17" stop-color="#FE5354"/>
<stop offset="0.36" stop-color="#F95361"/>
<stop offset="0.54" stop-color="#F25375"/>
<stop offset="0.73" stop-color="#E85392"/>
<stop offset="0.91" stop-color="#DB53B7"/>
<stop offset="1" stop-color="#D453CC"/>
</linearGradient>
</defs>
</svg>
