<svg width="147" height="147" viewBox="0 0 147 147" fill="none" xmlns="http://www.w3.org/2000/svg">
<path d="M73.5891 122.43C100.541 122.43 122.389 100.581 122.389 73.63C122.389 46.6785 100.541 24.83 73.5891 24.83C46.6376 24.83 24.7891 46.6785 24.7891 73.63C24.7891 100.581 46.6376 122.43 73.5891 122.43Z" fill="url(#paint0_linear)"/>
<path d="M73.5897 129.54C104.468 129.54 129.5 104.508 129.5 73.63C129.5 42.7517 104.468 17.72 73.5897 17.72C42.7114 17.72 17.6797 42.7517 17.6797 73.63C17.6797 104.508 42.7114 129.54 73.5897 129.54Z" stroke="url(#paint1_linear)" stroke-width="2" stroke-miterlimit="10"/>
<path opacity="0.67" d="M73.5898 137.13C108.66 137.13 137.09 108.7 137.09 73.6299C137.09 38.5598 108.66 10.1299 73.5898 10.1299C38.5198 10.1299 10.0898 38.5598 10.0898 73.6299C10.0898 108.7 38.5198 137.13 73.5898 137.13Z" stroke="url(#paint2_linear)" stroke-width="2" stroke-miterlimit="10"/>
<path opacity="0.12" d="M73.5901 145.39C113.222 145.39 145.35 113.262 145.35 73.6299C145.35 33.9979 113.222 1.86987 73.5901 1.86987C33.9581 1.86987 1.83008 33.9979 1.83008 73.6299C1.83008 113.262 33.9581 145.39 73.5901 145.39Z" stroke="url(#paint3_linear)" stroke-width="2" stroke-miterlimit="10"/>
<path d="M68.749 44.6H52.829C51.6037 44.6 50.4286 45.0867 49.5622 45.9531C48.6957 46.8196 48.209 47.9947 48.209 49.22V65.14C48.209 66.3653 48.6957 67.5404 49.5622 68.4068C50.4286 69.2732 51.6037 69.76 52.829 69.76H68.749C69.9743 69.76 71.1494 69.2732 72.0158 68.4068C72.8822 67.5404 73.369 66.3653 73.369 65.14V49.22C73.369 47.9947 72.8822 46.8196 72.0158 45.9531C71.1494 45.0867 69.9743 44.6 68.749 44.6ZM71.619 65.14C71.6137 65.8986 71.3093 66.6245 70.772 67.16C70.2346 67.6955 69.5076 67.9974 68.749 68H52.829C52.0773 67.9869 51.3605 67.6805 50.8317 67.1461C50.303 66.6117 50.0041 65.8917 49.999 65.14V49.22C50.0016 48.4596 50.3048 47.7312 50.8425 47.1935C51.3802 46.6558 52.1086 46.3526 52.869 46.35H68.749C69.5093 46.3526 70.2378 46.6558 70.7755 47.1935C71.3131 47.7312 71.6164 48.4596 71.619 49.22V65.14Z" fill="white"/>
<path d="M68.749 73.6299H52.829C51.6037 73.6299 50.4286 74.1166 49.5622 74.9831C48.6957 75.8495 48.209 77.0246 48.209 78.2499V94.1699C48.209 95.3952 48.6957 96.5703 49.5622 97.4367C50.4286 98.3031 51.6037 98.7899 52.829 98.7899H68.749C69.9743 98.7899 71.1494 98.3031 72.0158 97.4367C72.8822 96.5703 73.369 95.3952 73.369 94.1699V78.2499C73.369 77.0246 72.8822 75.8495 72.0158 74.9831C71.1494 74.1166 69.9743 73.6299 68.749 73.6299ZM71.619 94.1699C71.6059 94.9233 71.2981 95.6415 70.7615 96.1706C70.225 96.6997 69.5025 96.9974 68.749 96.9999H52.829C52.0824 96.987 51.3701 96.6847 50.8421 96.1568C50.3141 95.6288 50.0118 94.9164 49.999 94.1699V78.2499C50.0016 77.4895 50.3048 76.7611 50.8425 76.2234C51.3802 75.6857 52.1086 75.3825 52.869 75.3799H68.749C69.5093 75.3825 70.2378 75.6857 70.7755 76.2234C71.3131 76.7611 71.6164 77.4895 71.619 78.2499V94.1699Z" fill="white"/>
<path d="M97.7785 73.6299H81.8585C80.6323 73.6299 79.4561 74.1163 78.5881 74.9824C77.7201 75.8486 77.2312 77.0237 77.2285 78.2499V94.1699C77.2312 95.3961 77.7201 96.5712 78.5881 97.4373C79.4561 98.3035 80.6323 98.7899 81.8585 98.7899H97.7785C99.0038 98.7899 100.179 98.3031 101.045 97.4367C101.912 96.5703 102.399 95.3952 102.399 94.1699V78.2499C102.399 77.0246 101.912 75.8495 101.045 74.9831C100.179 74.1166 99.0038 73.6299 97.7785 73.6299ZM100.639 94.1699C100.639 94.9293 100.338 95.6578 99.8014 96.1958C99.2654 96.7337 98.5379 97.0372 97.7785 97.0399H81.8585C81.0999 97.0346 80.374 96.7302 79.8385 96.1929C79.303 95.6555 79.0011 94.9285 78.9985 94.1699V78.2499C79.0011 77.4895 79.3044 76.7611 79.842 76.2234C80.3797 75.6857 81.1082 75.3825 81.8685 75.3799H97.7885C98.548 75.3825 99.2754 75.6861 99.8114 76.224C100.348 76.762 100.649 77.4904 100.649 78.2499L100.639 94.1699Z" fill="white"/>
<path d="M90.5501 68.9299H89.0801C88.5063 68.9273 87.9569 68.6975 87.5521 68.2908C87.1473 67.8842 86.9201 67.3337 86.9201 66.7599V66.2699C86.411 66.103 85.9161 65.8956 85.4401 65.6499L85.0901 66.0099C84.8882 66.2152 84.6474 66.378 84.3817 66.4889C84.116 66.5997 83.8309 66.6564 83.543 66.6554C83.2551 66.6545 82.9703 66.596 82.7053 66.4835C82.4404 66.3709 82.2006 66.2065 82.0001 65.9999L81.0001 64.9999C80.7987 64.7993 80.6389 64.5608 80.5299 64.2983C80.4209 64.0357 80.3648 63.7542 80.3648 63.4699C80.3648 63.1856 80.4209 62.9042 80.5299 62.6416C80.6389 62.379 80.7987 62.1406 81.0001 61.9399L81.3501 61.5799C81.1059 61.1079 80.9018 60.6162 80.7401 60.1099H80.2401C79.6672 60.1099 79.1178 59.8824 78.7127 59.4773C78.3076 59.0722 78.0801 58.5228 78.0801 57.9499V56.4399C78.0801 55.8671 78.3076 55.3177 78.7127 54.9126C79.1178 54.5075 79.6672 54.2799 80.2401 54.2799H80.7401C80.9018 53.7737 81.1059 53.282 81.3501 52.8099L81.0001 52.4499C80.7987 52.2493 80.6389 52.0108 80.5299 51.7483C80.4209 51.4857 80.3648 51.2042 80.3648 50.9199C80.3648 50.6356 80.4209 50.3542 80.5299 50.0916C80.6389 49.8291 80.7987 49.5906 81.0001 49.3899L82.0001 48.3899C82.4067 47.9857 82.9567 47.7588 83.5301 47.7588C84.1034 47.7588 84.6535 47.9857 85.0601 48.3899L85.4101 48.7499C85.8861 48.5042 86.381 48.2969 86.8901 48.1299V47.5999C86.8901 47.0261 87.1173 46.4757 87.5221 46.069C87.9269 45.6624 88.4763 45.4326 89.0501 45.4299H90.5201C90.805 45.4299 91.0872 45.4861 91.3505 45.5951C91.6138 45.7042 91.853 45.864 92.0545 46.0655C92.256 46.267 92.4158 46.5062 92.5249 46.7695C92.6339 47.0328 92.6901 47.315 92.6901 47.5999V48.0899C93.1958 48.2571 93.6874 48.4644 94.1601 48.7099L94.5101 48.3499C94.9167 47.9457 95.4667 47.7188 96.0401 47.7188C96.6134 47.7188 97.1635 47.9457 97.5701 48.3499L98.5701 49.3499C98.7724 49.5491 98.933 49.7864 99.0426 50.0483C99.1523 50.3101 99.2088 50.5911 99.2088 50.8749C99.2088 51.1588 99.1523 51.4398 99.0426 51.7016C98.933 51.9634 98.7724 52.2008 98.5701 52.3999L98.2201 52.7599C98.4685 53.23 98.6727 53.7221 98.8301 54.2299H99.3301C99.9029 54.2299 100.452 54.4575 100.857 54.8626C101.263 55.2677 101.49 55.8171 101.49 56.3899V57.8699C101.49 58.4428 101.263 58.9922 100.857 59.3973C100.452 59.8024 99.9029 60.0299 99.3301 60.0299H98.8301C98.6727 60.5378 98.4685 61.0299 98.2201 61.4999L98.5701 61.8599C98.7726 62.0599 98.9335 62.2982 99.0433 62.5608C99.1531 62.8234 99.2096 63.1053 99.2096 63.3899C99.2096 63.6746 99.1531 63.9564 99.0433 64.2191C98.9335 64.4817 98.7726 64.7199 98.5701 64.9199L97.5701 65.9199C97.1635 66.3242 96.6134 66.5511 96.0401 66.5511C95.4667 66.5511 94.9167 66.3242 94.5101 65.9199L94.1601 65.5599C93.6874 65.8054 93.1958 66.0127 92.6901 66.1799V66.6699C92.6901 66.9549 92.6339 67.2371 92.5249 67.5004C92.4158 67.7636 92.256 68.0028 92.0545 68.2044C91.853 68.4059 91.6138 68.5657 91.3505 68.6748C91.0872 68.7838 90.805 68.8399 90.5201 68.8399L90.5501 68.9299ZM85.6701 64.2099C86.3288 64.5981 87.0392 64.891 87.7801 65.0799C87.9271 65.1197 88.0569 65.2069 88.1491 65.3281C88.2414 65.4493 88.2909 65.5976 88.2901 65.7499V66.7499C88.2901 66.9595 88.3733 67.1604 88.5215 67.3085C88.6696 67.4567 88.8706 67.5399 89.0801 67.5399H90.5501C90.7596 67.5399 90.9605 67.4567 91.1087 67.3085C91.2568 67.1604 91.3401 66.9595 91.3401 66.7499V65.7499C91.3398 65.5963 91.3908 65.447 91.485 65.3256C91.5792 65.2042 91.7112 65.1178 91.8601 65.0799C92.5979 64.8914 93.3051 64.5984 93.9601 64.2099C94.0918 64.1327 94.2452 64.1006 94.3969 64.1187C94.5485 64.1367 94.6901 64.2039 94.8001 64.3099L95.5201 65.0299C95.5919 65.1046 95.6781 65.1641 95.7735 65.2047C95.8688 65.2453 95.9714 65.2662 96.0751 65.2662C96.1787 65.2662 96.2813 65.2453 96.3767 65.2047C96.472 65.1641 96.5582 65.1046 96.6301 65.0299L97.6301 64.0299C97.776 63.8821 97.8579 63.6827 97.8579 63.4749C97.8579 63.2672 97.776 63.0678 97.6301 62.9199L96.9101 62.1999C96.8025 62.0909 96.7344 61.9491 96.7163 61.7971C96.6982 61.645 96.7312 61.4912 96.8101 61.3599C97.1957 60.7035 97.4885 59.9968 97.6801 59.2599C97.7195 59.1119 97.8063 58.9808 97.9274 58.8869C98.0484 58.793 98.1969 58.7413 98.3501 58.7399H99.3501C99.5579 58.7399 99.7573 58.6581 99.9052 58.5121C100.053 58.3661 100.137 58.1677 100.14 57.9599V56.4399C100.137 56.2322 100.053 56.0338 99.9052 55.8878C99.7573 55.7418 99.5579 55.6599 99.3501 55.6599H98.3501C98.1969 55.6585 98.0484 55.6069 97.9274 55.513C97.8063 55.419 97.7195 55.288 97.6801 55.1399C97.4867 54.4037 97.194 53.6972 96.8101 53.0399C96.7312 52.9087 96.6982 52.7549 96.7163 52.6028C96.7344 52.4507 96.8025 52.309 96.9101 52.1999L97.6301 51.4799C97.776 51.3321 97.8579 51.1327 97.8579 50.9249C97.8579 50.7172 97.776 50.5178 97.6301 50.3699L96.6301 49.3699C96.5582 49.2952 96.472 49.2358 96.3767 49.1952C96.2813 49.1546 96.1787 49.1337 96.0751 49.1337C95.9714 49.1337 95.8688 49.1546 95.7735 49.1952C95.6781 49.2358 95.5919 49.2952 95.5201 49.3699L94.8001 50.0899C94.691 50.1975 94.5493 50.2657 94.3972 50.2838C94.2451 50.3019 94.0913 50.2689 93.9601 50.1899C93.3051 49.8015 92.5979 49.5085 91.8601 49.3199C91.7112 49.2821 91.5792 49.1956 91.485 49.0743C91.3908 48.9529 91.3398 48.8036 91.3401 48.6499V47.6499C91.3401 47.4404 91.2568 47.2395 91.1087 47.0913C90.9605 46.9432 90.7596 46.8599 90.5501 46.8599H89.0801C88.8706 46.8599 88.6696 46.9432 88.5215 47.0913C88.3733 47.2395 88.2901 47.4404 88.2901 47.6499V48.6499C88.2909 48.8022 88.2414 48.9505 88.1491 49.0717C88.0569 49.1929 87.9271 49.2802 87.7801 49.3199C87.0392 49.5089 86.3288 49.8018 85.6701 50.1899C85.5403 50.2681 85.3882 50.3007 85.2379 50.2825C85.0875 50.2644 84.9475 50.1966 84.8401 50.0899L84.1201 49.3699C84.0475 49.2965 83.9611 49.2381 83.8658 49.1983C83.7706 49.1585 83.6683 49.138 83.5651 49.138C83.4618 49.138 83.3596 49.1585 83.2643 49.1983C83.169 49.2381 83.0826 49.2965 83.0101 49.3699L81.9601 50.3699C81.8141 50.5178 81.7323 50.7172 81.7323 50.9249C81.7323 51.1327 81.8141 51.3321 81.9601 51.4799L82.6801 52.1999C82.7908 52.3068 82.8619 52.4481 82.8819 52.6007C82.9018 52.7533 82.8695 52.9081 82.7901 53.0399C82.4004 53.6943 82.1073 54.4017 81.9201 55.1399C81.8792 55.2872 81.792 55.4173 81.6712 55.511C81.5505 55.6046 81.4028 55.6569 81.2501 55.6599H80.2501C80.0432 55.6599 79.8448 55.7421 79.6985 55.8884C79.5523 56.0347 79.4701 56.2331 79.4701 56.4399V57.9199C79.4701 58.1268 79.5523 58.3252 79.6985 58.4715C79.8448 58.6178 80.0432 58.6999 80.2501 58.6999H81.2501C81.4028 58.703 81.5505 58.7552 81.6712 58.8489C81.792 58.9426 81.8792 59.0727 81.9201 59.2199C82.1073 59.9582 82.4004 60.6655 82.7901 61.3199C82.8695 61.4517 82.9018 61.6066 82.8819 61.7592C82.8619 61.9117 82.7908 62.053 82.6801 62.1599L81.9601 62.8799C81.8889 62.9559 81.8334 63.0453 81.7968 63.1428C81.7603 63.2404 81.7434 63.3442 81.7471 63.4482C81.7508 63.5523 81.7751 63.6547 81.8185 63.7494C81.8619 63.844 81.9236 63.9292 82.0001 63.9999L83.0001 64.9999C83.0719 65.0746 83.1581 65.1341 83.2535 65.1747C83.3488 65.2153 83.4514 65.2362 83.5551 65.2362C83.6587 65.2362 83.7613 65.2153 83.8567 65.1747C83.952 65.1341 84.0382 65.0746 84.1101 64.9999L84.8301 64.2799C84.9375 64.1732 85.0775 64.1054 85.2279 64.0873C85.3782 64.0692 85.5304 64.1018 85.6601 64.1799L85.6701 64.2099Z" fill="white"/>
<path d="M89.819 62.29C88.8083 62.29 87.8204 61.9903 86.98 61.4288C86.1397 60.8673 85.4847 60.0692 85.098 59.1355C84.7112 58.2017 84.61 57.1743 84.8072 56.183C85.0043 55.1918 85.491 54.2813 86.2057 53.5666C86.9203 52.852 87.8308 52.3653 88.8221 52.1681C89.8133 51.971 90.8408 52.0722 91.7745 52.4589C92.7082 52.8457 93.5063 53.5006 94.0678 54.341C94.6293 55.1813 94.929 56.1693 94.929 57.1799C94.929 58.5352 94.3906 59.835 93.4323 60.7933C92.474 61.7516 91.1742 62.29 89.819 62.29ZM89.819 53.4499C89.0784 53.448 88.354 53.6659 87.7374 54.0761C87.1208 54.4863 86.6399 55.0703 86.3556 55.7541C86.0713 56.4379 85.9964 57.1907 86.1404 57.9171C86.2844 58.6435 86.6408 59.3109 87.1644 59.8345C87.6881 60.3582 88.3554 60.7146 89.0818 60.8586C89.8082 61.0026 90.561 60.9276 91.2448 60.6433C91.9287 60.359 92.5127 59.8781 92.9229 59.2615C93.333 58.645 93.551 57.9205 93.549 57.1799C93.5463 56.1915 93.1525 55.2443 92.4536 54.5454C91.7546 53.8464 90.8074 53.4526 89.819 53.4499Z" fill="white"/>
<defs>
<linearGradient id="paint0_linear" x1="17.8156" y1="112.783" x2="137.201" y2="29.0021" gradientUnits="userSpaceOnUse">
<stop stop-color="#FF5350"/>
<stop offset="0.17" stop-color="#FE5354"/>
<stop offset="0.36" stop-color="#F95361"/>
<stop offset="0.54" stop-color="#F25375"/>
<stop offset="0.73" stop-color="#E85392"/>
<stop offset="0.91" stop-color="#DB53B7"/>
<stop offset="1" stop-color="#D453CC"/>
</linearGradient>
<linearGradient class="a" id="paint1_linear" x1="2441.94" y1="9369.23" x2="15168.2" y2="9369.23" gradientUnits="userSpaceOnUse">
<stop stop-color="#FF5350"/>
<stop offset="0.17" stop-color="#FE5354"/>
<stop offset="0.36" stop-color="#F95361"/>
<stop offset="0.54" stop-color="#F25375"/>
<stop offset="0.73" stop-color="#E85392"/>
<stop offset="0.91" stop-color="#DB53B7"/>
<stop offset="1" stop-color="#D453CC"/>
</linearGradient>
<linearGradient class="b" id="paint2_linear" x1="1799.52" y1="10631.1" x2="18182.5" y2="10631.1" gradientUnits="userSpaceOnUse">
<stop stop-color="#FF5350"/>
<stop offset="0.17" stop-color="#FE5354"/>
<stop offset="0.36" stop-color="#F95361"/>
<stop offset="0.54" stop-color="#F25375"/>
<stop offset="0.73" stop-color="#E85392"/>
<stop offset="0.91" stop-color="#DB53B7"/>
<stop offset="1" stop-color="#D453CC"/>
</linearGradient>
<linearGradient class="c" id="paint3_linear" x1="838.552" y1="12004.4" x2="21723.6" y2="12004.4" gradientUnits="userSpaceOnUse">
<stop stop-color="#FF5350"/>
<stop offset="0.17" stop-color="#FE5354"/>
<stop offset="0.36" stop-color="#F95361"/>
<stop offset="0.54" stop-color="#F25375"/>
<stop offset="0.73" stop-color="#E85392"/>
<stop offset="0.91" stop-color="#DB53B7"/>
<stop offset="1" stop-color="#D453CC"/>
</linearGradient>
</defs>
</svg>
