<svg width="25" height="25" viewBox="0 0 25 25" fill="none" xmlns="http://www.w3.org/2000/svg">
<path d="M11 14.94L14.85 12.72L11 10.51V14.94Z" fill="#CB7ED5"/>
<path d="M12.51 0.909916C10.1718 0.909917 7.88613 1.6034 5.94213 2.90264C3.99812 4.20188 2.48313 6.04851 1.58879 8.20891C0.694461 10.3693 0.46097 12.7464 0.917858 15.0396C1.37475 17.3327 2.50149 19.4388 4.15554 21.0915C5.8096 22.7441 7.91666 23.8691 10.2102 24.324C12.5037 24.779 14.8806 24.5435 17.0403 23.6473C19.1999 22.7511 21.0452 21.2346 22.3428 19.2895C23.6404 17.3444 24.332 15.0581 24.33 12.7199C24.33 11.1682 24.0242 9.63162 23.4301 8.19811C22.8359 6.76461 21.9651 5.46224 20.8674 4.36545C19.7697 3.26866 18.4666 2.39895 17.0326 1.80603C15.5986 1.21311 14.0618 0.908602 12.51 0.909916V0.909916ZM19.9 12.7299C19.9074 13.9236 19.8036 15.1154 19.59 16.2899C19.5054 16.6011 19.341 16.8848 19.1129 17.1128C18.8849 17.3409 18.6012 17.5053 18.29 17.5899C16.3717 17.8124 14.4411 17.9126 12.51 17.8899C10.582 17.9131 8.65447 17.8096 6.74 17.5799C6.42622 17.4951 6.14015 17.3295 5.9103 17.0996C5.68045 16.8698 5.51485 16.5837 5.43 16.2699C5.02992 13.9202 5.02992 11.5197 5.43 9.16991C5.52013 8.85878 5.6875 8.57551 5.91655 8.34646C6.1456 8.11742 6.42887 7.95004 6.74 7.85992C8.65445 7.63007 10.582 7.52651 12.51 7.54992C14.4417 7.52571 16.3728 7.63262 18.29 7.86992C18.6012 7.9545 18.8849 8.11897 19.1129 8.347C19.341 8.57504 19.5054 8.85872 19.59 9.16991C19.8089 10.3437 19.9127 11.536 19.9 12.7299V12.7299Z" fill="#CB7ED5"/>
</svg>
